<svg width="1536" height="848" viewBox="0 0 1536 848" fill="none" xmlns="http://www.w3.org/2000/svg">
    <path fill-rule="evenodd" clip-rule="evenodd" d="M0 0L85.2741 13.7407C170.548 28.463 341.096 56.9259 511.645 77.537C682.193 99.1296 853.807 112.87 1024.36 106C1194.9 99.1296 1365.45 70.6667 1450.73 56.9259L1536 42.2037V424H1450.73C1365.45 424 1194.9 424 1024.36 424C853.807 424 682.193 424 511.645 424C341.096 424 170.548 424 85.2741 424H0V0Z" fill="#F4FCF3"/>
    <path fill-rule="evenodd" clip-rule="evenodd" d="M1536 848L1450.73 834.259C1365.45 819.537 1194.9 791.074 1024.36 770.463C853.807 748.87 682.193 735.13 511.645 742C341.096 748.87 170.548 777.333 85.2741 791.074L1.06096e-05 805.796V424H85.2741C170.548 424 341.096 424 511.645 424C682.193 424 853.807 424 1024.36 424C1194.9 424 1365.45 424 1450.73 424H1536V848Z" fill="#F4FCF3"/>
</svg>
