<svg width="376" height="209" viewBox="0 0 376 209" fill="none" xmlns="http://www.w3.org/2000/svg">
<path d="M375.888 183.344H0.109375V183.484H375.888V183.344Z" fill="#EBEBEB"/>
<path d="M64.4267 188.675H39.5352V188.815H64.4267V188.675Z" fill="#EBEBEB"/>
<path d="M160.694 187.157H128.73V187.297H160.694V187.157Z" fill="#EBEBEB"/>
<path d="M84.7778 190.641H70.3555V190.781H84.7778V190.641Z" fill="#EBEBEB"/>
<path d="M338.235 192.937H326.789V193.077H338.235V192.937Z" fill="#EBEBEB"/>
<path d="M320.091 192.937H294.32V193.077H320.091V192.937Z" fill="#EBEBEB"/>
<path d="M249.499 188.904H231.59V189.044H249.499V188.904Z" fill="#EBEBEB"/>
<path d="M178.23 158.368H33.1195C31.9814 158.368 30.8898 158.031 30.085 157.431C29.2803 156.832 28.8281 156.018 28.8281 155.17V3.1696C28.838 2.3264 29.2945 1.52026 30.0983 0.926635C30.902 0.333011 31.9878 -3.23265e-05 33.1195 2.35343e-09H178.23C179.368 2.35343e-09 180.46 0.336889 181.265 0.936555C182.069 1.53622 182.521 2.34954 182.521 3.1976V155.17C182.521 156.018 182.069 156.832 181.265 157.431C180.46 158.031 179.368 158.368 178.23 158.368ZM33.1195 0.112C32.0318 0.113481 30.9892 0.436095 30.2201 1.00919C29.451 1.58228 29.018 2.35913 29.016 3.1696V155.17C29.018 155.981 29.451 156.758 30.2201 157.331C30.9892 157.904 32.0318 158.227 33.1195 158.228H178.23C179.318 158.227 180.36 157.904 181.13 157.331C181.899 156.758 182.332 155.981 182.334 155.17V3.1696C182.332 2.35913 181.899 1.58228 181.13 1.00919C180.36 0.436095 179.318 0.113481 178.23 0.112H33.1195Z" fill="#EBEBEB"/>
<path d="M340.796 158.368H195.67C194.533 158.367 193.442 158.029 192.638 157.43C191.834 156.83 191.381 156.018 191.379 155.17V3.1696C191.391 2.32686 191.848 1.52156 192.651 0.928252C193.454 0.334941 194.539 0.00142704 195.67 0H340.796C341.925 0.00291452 343.007 0.33726 343.807 0.930568C344.608 1.52388 345.062 2.32834 345.072 3.1696V155.17C345.072 156.016 344.622 156.828 343.821 157.427C343.019 158.027 341.931 158.365 340.796 158.368ZM195.67 0.112C194.583 0.113481 193.54 0.436095 192.771 1.00919C192.002 1.58228 191.569 2.35913 191.567 3.1696V155.17C191.569 155.981 192.002 156.758 192.771 157.331C193.54 157.904 194.583 158.227 195.67 158.228H340.796C341.884 158.227 342.926 157.904 343.695 157.331C344.464 156.758 344.897 155.981 344.899 155.17V3.1696C344.897 2.35913 344.464 1.58228 343.695 1.00919C342.926 0.436095 341.884 0.113481 340.796 0.112H195.67Z" fill="#EBEBEB"/>
<path d="M231.215 79.167L312.285 79.167V18.5974L231.215 18.5974V79.167Z" fill="#F0F0F0"/>
<path d="M231.214 18.6035H229.816V79.1731H231.214V18.6035Z" fill="#E0E0E0"/>
<path d="M238.376 75.3428H305.129V22.4228L238.376 22.4228V75.3428Z" fill="#FAFAFA"/>
<path d="M264.656 63.8404H285.797C290.382 63.8404 293.448 61.074 292.644 57.6804L288.533 40.1356C288.076 38.438 286.862 36.9054 285.088 35.7871C283.314 34.6687 281.085 34.0303 278.763 33.9756H257.674C253.089 33.9756 250.023 36.742 250.827 40.1356L254.938 57.6804C255.392 59.3721 256.598 60.9004 258.361 62.0182C260.124 63.136 262.342 63.778 264.656 63.8404Z" fill="#F0F0F0"/>
<path d="M79.0022 97.5635H60.9648V180.471H79.0022V97.5635Z" fill="#F0F0F0"/>
<path d="M158.147 180.477H62.8047V183.338H158.147V180.477Z" fill="#F0F0F0"/>
<path d="M79.0021 180.477H159.734V97.5686L79.0021 97.5686L79.0021 180.477Z" fill="#F5F5F5"/>
<path d="M82.2456 155.54H156.484V140.734H82.2456V155.54Z" fill="#F0F0F0"/>
<path d="M82.2456 174.916H156.484V160.11H82.2456V174.916Z" fill="#F0F0F0"/>
<path d="M147.699 139.826H91.0314C90.5416 139.826 90.1445 140.122 90.1445 140.487V141.198C90.1445 141.563 90.5416 141.859 91.0314 141.859H147.699C148.189 141.859 148.586 141.563 148.586 141.198V140.487C148.586 140.122 148.189 139.826 147.699 139.826Z" fill="#F5F5F5"/>
<path d="M147.699 159.208H91.0314C90.5416 159.208 90.1445 159.504 90.1445 159.869V160.58C90.1445 160.945 90.5416 161.241 91.0314 161.241H147.699C148.189 161.241 148.586 160.945 148.586 160.58V159.869C148.586 159.504 148.189 159.208 147.699 159.208Z" fill="#F5F5F5"/>
<path d="M82.2456 116.939H156.484V102.133H82.2456V116.939Z" fill="#F0F0F0"/>
<path d="M82.2456 136.17H156.484V121.364H82.2456V136.17Z" fill="#F0F0F0"/>
<path d="M147.699 101.231H91.0314C90.5416 101.231 90.1445 101.527 90.1445 101.892V102.603C90.1445 102.968 90.5416 103.264 91.0314 103.264H147.699C148.189 103.264 148.586 102.968 148.586 102.603V101.892C148.586 101.527 148.189 101.231 147.699 101.231Z" fill="#F5F5F5"/>
<path d="M147.699 120.45H91.0314C90.5416 120.45 90.1445 120.746 90.1445 121.111V121.822C90.1445 122.187 90.5416 122.483 91.0314 122.483H147.699C148.189 122.483 148.586 122.187 148.586 121.822V121.111C148.586 120.746 148.189 120.45 147.699 120.45Z" fill="#F5F5F5"/>
<path d="M156.809 14.0332H55.5664V80.2588H156.809V14.0332Z" fill="#E6E6E6"/>
<path d="M167.66 11.458H49.0113C48.8794 11.458 48.7488 11.4775 48.6271 11.5152C48.5053 11.553 48.3948 11.6084 48.3018 11.6781C48.2089 11.7479 48.1355 11.8307 48.0857 11.9217C48.0359 12.0127 48.0108 12.1101 48.0117 12.2084C48.0117 12.4059 48.1171 12.5954 48.3045 12.7351C48.492 12.8747 48.7462 12.9532 49.0113 12.9532H167.66C167.925 12.9532 168.18 12.8749 168.369 12.7354C168.558 12.5959 168.665 12.4065 168.667 12.2084C168.667 12.0094 168.561 11.8185 168.372 11.6778C168.183 11.5371 167.927 11.458 167.66 11.458Z" fill="#E6E6E6"/>
<path d="M161.109 14.0332H57.5742V80.2588H161.109V14.0332Z" fill="#F0F0F0"/>
<path d="M156.809 80.2588H55.5664V82.3812H159.77L156.809 80.2588Z" fill="#E6E6E6"/>
<path d="M168.261 80.2588H64.7344L67.688 82.3812H171.222L168.261 80.2588Z" fill="#F0F0F0"/>
<path d="M155.094 75.7793V18.5137L63.5917 18.5137V75.7793H155.094Z" fill="#FAFAFA"/>
<path d="M84.3672 75.7793L119.66 18.5137H136.33L101.029 75.7793H84.3672Z" fill="white"/>
<path d="M104.605 75.7793L139.906 18.5137H146.4L111.106 75.7793H104.605Z" fill="white"/>
<path d="M155.094 75.7793V18.5137H154.327V75.7793H155.094Z" fill="#E6E6E6"/>
<g opacity="0.4">
<path d="M63.6614 10.1191H53.3125V64.7695H63.6614V10.1191Z" fill="#F0F0F0"/>
<path d="M67.697 10.1191H59.6328V64.7695H67.697V10.1191Z" fill="#E6E6E6"/>
<path d="M74.0091 10.1191H63.6602V64.7695H74.0091V10.1191Z" fill="#F0F0F0"/>
<path d="M78.0447 10.1191H69.9805V64.7695H78.0447V10.1191Z" fill="#E6E6E6"/>
<path d="M84.3607 10.1191H74.0117V64.7695H84.3607V10.1191Z" fill="#F0F0F0"/>
</g>
<g opacity="0.4">
<path d="M151.249 10.1191H145.281V64.7695H151.249V10.1191Z" fill="#F0F0F0"/>
<path d="M153.563 10.1191H148.918V64.7695H153.563V10.1191Z" fill="#E6E6E6"/>
<path d="M157.21 10.1191H151.242V64.7695H157.21V10.1191Z" fill="#F0F0F0"/>
<path d="M159.531 10.1191H154.887V64.7695H159.531V10.1191Z" fill="#E6E6E6"/>
<path d="M163.174 10.1191H157.207V64.7695H163.174V10.1191Z" fill="#F0F0F0"/>
</g>
<path d="M268.303 119.957C268.215 120.767 268.451 121.579 268.981 122.289C269.511 122.999 270.312 123.576 271.283 123.948C272.253 124.319 273.349 124.467 274.433 124.374C275.517 124.281 276.539 123.951 277.371 123.425C278.202 122.899 278.806 122.201 279.106 121.42C279.405 120.638 279.387 119.808 279.054 119.034C278.721 118.261 278.087 117.578 277.233 117.072C276.379 116.567 275.343 116.261 274.256 116.194C272.797 116.106 271.351 116.453 270.235 117.158C269.119 117.864 268.424 118.871 268.303 119.957Z" fill="#E0E0E0"/>
<path d="M283.64 126.504C286.658 126.173 288.745 124.082 288.301 121.833C287.857 119.584 285.05 118.029 282.032 118.36C279.013 118.691 276.926 120.782 277.37 123.031C277.815 125.28 280.621 126.835 283.64 126.504Z" fill="#E0E0E0"/>
<path d="M286.995 122.948C286.906 123.758 287.142 124.569 287.672 125.279C288.203 125.989 289.004 126.567 289.974 126.938C290.945 127.309 292.041 127.457 293.124 127.364C294.208 127.271 295.23 126.941 296.062 126.415C296.894 125.889 297.498 125.191 297.797 124.41C298.097 123.628 298.079 122.798 297.745 122.024C297.412 121.251 296.778 120.568 295.924 120.062C295.07 119.557 294.034 119.251 292.947 119.184C292.224 119.139 291.497 119.201 290.806 119.365C290.115 119.53 289.475 119.795 288.922 120.145C288.369 120.494 287.914 120.922 287.583 121.403C287.253 121.884 287.053 122.409 286.995 122.948Z" fill="#E0E0E0"/>
<path d="M258.046 122.114C257.957 122.924 258.193 123.735 258.723 124.445C259.254 125.156 260.055 125.733 261.025 126.104C261.995 126.475 263.092 126.623 264.175 126.53C265.259 126.437 266.281 126.107 267.113 125.581C267.944 125.055 268.548 124.358 268.848 123.576C269.148 122.795 269.13 121.964 268.796 121.191C268.463 120.417 267.829 119.734 266.975 119.228C266.121 118.723 265.085 118.417 263.998 118.35C262.539 118.262 261.093 118.609 259.977 119.314C258.861 120.02 258.166 121.027 258.046 122.114Z" fill="#E0E0E0"/>
<path d="M301.273 126.501C304.291 126.17 306.378 124.079 305.934 121.83C305.489 119.581 302.683 118.026 299.664 118.357C296.646 118.688 294.559 120.779 295.003 123.028C295.447 125.277 298.254 126.832 301.273 126.501Z" fill="#E0E0E0"/>
<path d="M259.692 122.098C262.01 120.621 262.282 118.023 260.299 116.295C258.316 114.567 254.829 114.365 252.511 115.842C250.192 117.32 249.92 119.918 251.903 121.646C253.886 123.373 257.373 123.576 259.692 122.098Z" fill="#E0E0E0"/>
<path d="M242.803 121.178C242.715 121.988 242.951 122.8 243.481 123.51C244.011 124.22 244.812 124.797 245.783 125.168C246.753 125.539 247.849 125.688 248.933 125.595C250.017 125.502 251.039 125.171 251.871 124.646C252.702 124.12 253.306 123.422 253.606 122.64C253.905 121.859 253.887 121.029 253.554 120.255C253.221 119.481 252.587 118.798 251.733 118.293C250.879 117.787 249.843 117.482 248.756 117.415C247.297 117.327 245.851 117.673 244.735 118.379C243.619 119.084 242.924 120.091 242.803 121.178Z" fill="#E0E0E0"/>
<path d="M236.496 122.287C236.496 122.287 237.443 139.126 273.758 139.126C310.073 139.126 311.02 122.287 311.02 122.287H236.496Z" fill="#F0F0F0"/>
<path d="M331.743 139.126H324.836V183.338H331.743V139.126Z" fill="#E6E6E6"/>
<path d="M333.582 139.126H329.516V183.338H333.582V139.126Z" fill="#F0F0F0"/>
<path d="M302.356 139.126H295.449V183.338H302.356V139.126Z" fill="#E6E6E6"/>
<path d="M303.648 139.126H299.582V183.338H303.648V139.126Z" fill="#F0F0F0"/>
<path d="M236.796 144.491H334.844V139.132H236.796V144.491Z" fill="#F0F0F0"/>
<path d="M206.833 139.126H199.926V183.338H206.833V139.126Z" fill="#E6E6E6"/>
<path d="M208.125 139.126H204.059V183.338H208.125V139.126Z" fill="#F0F0F0"/>
<path d="M198.693 144.491H233.844V139.132H198.693V144.491Z" fill="#E6E6E6"/>
<path d="M236.211 139.126H229.305V183.338H236.211V139.126Z" fill="#E6E6E6"/>
<path d="M238.058 139.126H233.992V183.338H238.058V139.126Z" fill="#F0F0F0"/>
<path d="M187.997 208.633C268.475 208.633 333.716 205.795 333.716 202.294C333.716 198.793 268.475 195.955 187.997 195.955C107.518 195.955 42.2773 198.793 42.2773 202.294C42.2773 205.795 107.518 208.633 187.997 208.633Z" fill="#F5F5F5"/>
<path d="M267.274 196.734C267.274 197.853 266.742 198.936 265.772 199.79C264.802 200.645 263.456 201.215 261.975 201.399C243.741 203.691 225.12 203.691 206.886 201.399C205.411 201.21 204.073 200.637 203.11 199.784C202.147 198.93 201.621 197.849 201.625 196.734V151.374H267.304L267.274 196.734Z" fill="#049F67"/>
<path opacity="0.3" d="M201.586 152.191V158.559C205.539 159.651 218.519 160.451 234.429 160.451C250.339 160.451 263.341 159.651 267.272 158.559V152.191H201.586Z" fill="black"/>
<path d="M268.505 157.047C268.505 158.486 253.595 159.651 234.43 159.651C215.265 159.651 200.354 158.486 200.354 157.047L199.73 151.391H269.167L268.505 157.047Z" fill="#049F67"/>
<path d="M234.43 153.989C253.594 153.989 269.129 152.825 269.129 151.39C269.129 149.955 253.594 148.792 234.43 148.792C215.266 148.792 199.73 149.955 199.73 151.39C199.73 152.825 215.266 153.989 234.43 153.989Z" fill="#049F67"/>
<path opacity="0.3" d="M234.43 153.989C253.594 153.989 269.129 152.825 269.129 151.39C269.129 149.955 253.594 148.792 234.43 148.792C215.266 148.792 199.73 149.955 199.73 151.39C199.73 152.825 215.266 153.989 234.43 153.989Z" fill="black"/>
<path opacity="0.2" d="M210.395 193.541C209.72 193.54 209.073 193.34 208.596 192.984C208.119 192.628 207.85 192.146 207.848 191.643V165.637C207.85 165.134 208.119 164.652 208.596 164.296C209.073 163.94 209.72 163.74 210.395 163.738C211.07 163.741 211.716 163.942 212.193 164.298C212.67 164.653 212.939 165.134 212.943 165.637V191.643C212.939 192.146 212.67 192.627 212.193 192.982C211.716 193.338 211.07 193.539 210.395 193.541Z" fill="black"/>
<path opacity="0.2" d="M258.474 193.541C257.798 193.54 257.152 193.34 256.674 192.984C256.197 192.628 255.928 192.146 255.926 191.643V165.637C255.928 165.134 256.197 164.652 256.674 164.296C257.152 163.94 257.798 163.74 258.474 163.738C259.148 163.741 259.794 163.942 260.271 164.298C260.748 164.653 261.017 165.134 261.021 165.637V191.643C261.017 192.146 260.748 192.627 260.271 192.982C259.794 193.338 259.148 193.539 258.474 193.541Z" fill="black"/>
<path opacity="0.2" d="M242.442 193.541C241.768 193.539 241.122 193.338 240.645 192.982C240.168 192.627 239.898 192.146 239.895 191.643V165.637C239.898 165.134 240.168 164.653 240.645 164.298C241.122 163.942 241.768 163.741 242.442 163.738C243.117 163.74 243.764 163.94 244.242 164.296C244.719 164.652 244.988 165.134 244.99 165.637V191.643C244.988 192.146 244.719 192.628 244.242 192.984C243.764 193.34 243.117 193.54 242.442 193.541Z" fill="black"/>
<path opacity="0.2" d="M226.419 193.541C225.744 193.539 225.099 193.338 224.622 192.982C224.145 192.627 223.875 192.146 223.871 191.643V165.637C223.875 165.134 224.145 164.653 224.622 164.298C225.099 163.942 225.744 163.741 226.419 163.738C227.094 163.74 227.741 163.94 228.218 164.296C228.696 164.652 228.965 165.134 228.967 165.637V191.643C228.965 192.146 228.696 192.628 228.218 192.984C227.741 193.34 227.094 193.54 226.419 193.541Z" fill="black"/>
<path d="M145.072 47.1296C145.072 47.6436 144.868 48.1459 144.484 48.5732C144.101 49.0005 143.557 49.3336 142.919 49.5303C142.282 49.7269 141.581 49.7784 140.905 49.6781C140.228 49.5779 139.607 49.3304 139.119 48.967C138.631 48.6036 138.299 48.1406 138.165 47.6366C138.03 47.1325 138.099 46.6101 138.363 46.1353C138.627 45.6605 139.074 45.2547 139.647 44.9692C140.221 44.6836 140.895 44.5313 141.585 44.5312C142.51 44.5312 143.397 44.805 144.051 45.2923C144.705 45.7796 145.072 46.4405 145.072 47.1296Z" fill="#263238"/>
<path d="M138.78 47.5043C138.746 47.505 138.712 47.4985 138.683 47.4856C138.654 47.4728 138.63 47.454 138.615 47.4315C138.384 47.116 138.239 46.7698 138.188 46.4126C138.138 46.0554 138.182 45.6942 138.318 45.3497C138.454 45.0052 138.681 44.6841 138.984 44.4047C139.287 44.1254 139.66 43.8932 140.084 43.7215C140.507 43.5498 140.972 43.4419 141.451 43.404C141.931 43.366 142.415 43.3988 142.878 43.5005C143.34 43.6022 143.771 43.7707 144.146 43.9964C144.521 44.2222 144.833 44.5008 145.063 44.8163C145.085 44.8492 145.09 44.8872 145.076 44.9225C145.062 44.9578 145.03 44.9879 144.988 45.0067C144.966 45.0155 144.942 45.0211 144.918 45.0231C144.893 45.0251 144.868 45.0234 144.844 45.0182C144.821 45.013 144.799 45.0044 144.779 44.9928C144.76 44.9812 144.744 44.9669 144.732 44.9507C144.315 44.3789 143.609 43.9541 142.771 43.7698C141.934 43.5855 141.032 43.6567 140.264 43.9679C139.497 44.279 138.927 44.8046 138.679 45.4289C138.432 46.0533 138.528 46.7253 138.945 47.2971C138.957 47.3132 138.965 47.331 138.967 47.3493C138.97 47.3677 138.968 47.3862 138.961 47.4039C138.954 47.4216 138.942 47.4381 138.927 47.4524C138.911 47.4668 138.892 47.4787 138.87 47.4875C138.842 47.4982 138.811 47.504 138.78 47.5043Z" fill="#263238"/>
<path d="M135.391 59.0011C134.711 58.9991 134.046 58.8568 133.469 58.59C132.891 58.3232 132.425 57.9424 132.12 57.4899C131.816 57.0374 131.686 56.5309 131.744 56.0266C131.803 55.5223 132.048 55.0399 132.452 54.6331C132.74 54.3456 133.102 54.1031 133.516 53.9195C133.929 53.736 134.388 53.6151 134.865 53.5635C134.889 53.5604 134.914 53.5609 134.938 53.5652C134.962 53.5695 134.984 53.5774 135.004 53.5884C135.024 53.5994 135.04 53.6133 135.052 53.6293C135.065 53.6452 135.072 53.6629 135.075 53.6811C135.081 53.7175 135.069 53.7542 135.039 53.7836C135.01 53.8129 134.966 53.8324 134.917 53.8379C134.053 53.9323 133.275 54.2785 132.753 54.8004C132.232 55.3224 132.01 55.9773 132.136 56.6211C132.263 57.265 132.728 57.845 133.428 58.2336C134.129 58.6221 135.008 58.7875 135.872 58.6931C135.921 58.6872 135.972 58.6963 136.013 58.7183C136.054 58.7404 136.082 58.7736 136.09 58.8107C136.098 58.8479 136.085 58.8858 136.056 58.9163C136.026 58.9468 135.982 58.9672 135.932 58.9731C135.752 58.9908 135.572 59.0002 135.391 59.0011Z" fill="#263238"/>
<path d="M154.337 63.2355C153.632 63.2348 152.943 63.081 152.353 62.7931C152.311 62.7725 152.282 62.7406 152.271 62.7041C152.259 62.6676 152.267 62.6293 152.293 62.5971C152.322 62.5668 152.365 62.5459 152.414 62.5386C152.463 62.5313 152.514 62.5382 152.556 62.5579C153.289 62.9122 154.18 63.0351 155.034 62.8996C155.888 62.7641 156.635 62.3814 157.111 61.8355C157.586 61.2897 157.751 60.6256 157.569 59.9891C157.387 59.3527 156.874 58.7962 156.141 58.4419C156.099 58.4213 156.07 58.3894 156.058 58.3529C156.047 58.3164 156.055 58.2781 156.081 58.2459C156.11 58.2156 156.153 58.1947 156.202 58.1874C156.251 58.1801 156.302 58.187 156.344 58.2067C157.159 58.602 157.73 59.2217 157.933 59.9302C158.136 60.6387 157.954 61.3781 157.426 61.9867C157.166 62.2895 156.827 62.5505 156.43 62.7544C156.032 62.9583 155.584 63.1009 155.112 63.1739C154.857 63.2138 154.598 63.2344 154.337 63.2355Z" fill="#263238"/>
<path d="M139.629 55.2329C142.352 55.2329 144.56 53.5882 144.56 51.5593C144.56 49.5305 142.352 47.8857 139.629 47.8857C136.907 47.8857 134.699 49.5305 134.699 51.5593C134.699 53.5882 136.907 55.2329 139.629 55.2329Z" fill="#263238"/>
<path d="M144.257 59.9489C146.811 58.0463 146.811 54.9615 144.257 53.0589C141.704 51.1562 137.564 51.1562 135.01 53.0589C132.457 54.9615 132.457 58.0463 135.01 59.9489C137.564 61.8516 141.704 61.8516 144.257 59.9489Z" fill="#263238"/>
<path d="M140.32 68.085C144.313 68.085 147.55 65.673 147.55 62.6978C147.55 59.7225 144.313 57.3105 140.32 57.3105C136.327 57.3105 133.09 59.7225 133.09 62.6978C133.09 65.673 136.327 68.085 140.32 68.085Z" fill="#263238"/>
<path d="M154.59 64.3002C155.507 61.4045 153.1 58.503 149.214 57.8196C145.327 57.1361 141.433 58.9295 140.516 61.8252C139.599 64.7209 142.006 67.6224 145.892 68.3059C149.778 68.9893 153.672 67.1959 154.59 64.3002Z" fill="#263238"/>
<path d="M171.531 74.1774C171.531 74.6142 171.531 75.1686 171.584 75.6726C171.636 76.1766 171.636 76.7142 171.681 77.235C171.779 78.2766 171.877 79.3294 172.027 80.3766C172.298 82.4784 172.676 84.571 173.162 86.6542C173.29 87.1694 173.402 87.6958 173.545 88.211L173.876 89.4822C173.958 89.6838 173.876 89.6446 173.771 89.639C173.665 89.6334 173.771 89.7398 174.214 89.7398C175.349 89.655 176.454 89.4178 177.476 89.0398C178.077 88.8382 178.693 88.6198 179.31 88.3846C179.926 88.1494 180.55 87.8806 181.113 87.6454L183.308 89.5326C182.784 89.9794 182.227 90.4038 181.639 90.8038C181.061 91.2144 180.448 91.5978 179.806 91.9518C179.132 92.3294 178.421 92.6682 177.679 92.9654C176.834 93.309 175.928 93.5616 174.988 93.7158C174.408 93.8099 173.815 93.8476 173.222 93.8278C172.499 93.7965 171.79 93.6635 171.133 93.4358C170.434 93.1913 169.812 92.8403 169.306 92.4054C168.872 92.0273 168.518 91.6025 168.254 91.1454C168.05 90.7956 167.884 90.4342 167.758 90.0646L167.465 89.247C167.255 88.687 167.082 88.155 166.901 87.6062C166.198 85.4047 165.656 83.1763 165.278 80.931C165.09 79.811 164.94 78.691 164.85 77.543C164.805 76.983 164.767 76.423 164.744 75.8294C164.722 75.2358 164.744 74.7094 164.744 74.043L171.531 74.1774Z" fill="#FFB573"/>
<path d="M167.888 68.1409C174.299 71.7977 174.044 78.6913 174.044 78.6913L162.575 80.7353C162.575 80.7353 159.058 73.8025 160.486 71.2657C161.974 68.6225 164.281 66.0801 167.888 68.1409Z" fill="#049F67"/>
<path opacity="0.7" d="M167.888 68.1409C174.299 71.7977 174.044 78.6913 174.044 78.6913L162.575 80.7353C162.575 80.7353 159.058 73.8025 160.486 71.2657C161.974 68.6225 164.281 66.0801 167.888 68.1409Z" fill="white"/>
<path d="M180.688 88.2894L182.582 85.915L187.331 89.7006C187.331 89.7006 183.927 91.3246 180.395 90.1654L180.688 88.2894Z" fill="#FFB573"/>
<path d="M184.919 84.7783L191.014 87.4551L187.332 89.7007L182.582 85.9151L184.919 84.7783Z" fill="#FFB573"/>
<path d="M132 198.161L138.554 198.632L142.627 187.191L136.066 186.721L132 198.161Z" fill="#FFB573"/>
<path d="M98.4062 188.547L104.291 190.843L111.288 180.505L105.403 178.209L98.4062 188.547Z" fill="#FFB573"/>
<path d="M105.862 188.832L100.601 184.85C100.513 184.78 100.394 184.737 100.267 184.729C100.139 184.721 100.012 184.748 99.9093 184.805L95.0768 187.454C94.9596 187.525 94.8635 187.612 94.7947 187.712C94.7259 187.812 94.686 187.921 94.6775 188.033C94.669 188.145 94.6921 188.257 94.7454 188.362C94.7986 188.466 94.8808 188.562 94.9866 188.641C96.8505 190.008 97.8425 190.596 100.157 192.349C101.585 193.424 104.516 195.961 106.485 197.45C108.454 198.94 110.529 197.568 109.89 196.817C107.019 193.457 106.538 191.346 106.358 189.638C106.325 189.334 106.149 189.049 105.862 188.832Z" fill="#263238"/>
<path d="M139.578 197.148H131.634C131.492 197.149 131.354 197.185 131.241 197.249C131.129 197.314 131.048 197.404 131.01 197.506L129.311 202.16C129.269 202.271 129.262 202.387 129.291 202.5C129.32 202.613 129.384 202.719 129.479 202.81C129.573 202.901 129.695 202.974 129.834 203.024C129.974 203.073 130.127 203.098 130.281 203.095C133.069 203.095 134.392 203.095 137.872 203.095H148.521C151.415 203.095 152.023 200.917 150.821 200.715C145.455 199.83 142.358 198.61 140.705 197.445C140.392 197.245 139.99 197.139 139.578 197.148Z" fill="#263238"/>
<path opacity="0.2" d="M142.62 187.197L140.523 193.094H133.797L136.059 186.727L142.62 187.197Z" fill="black"/>
<path opacity="0.2" d="M105.397 178.209L111.289 180.511L107.681 185.836L101.789 183.535L105.397 178.209Z" fill="black"/>
<path d="M165.948 67.4352C165.948 67.4352 168.849 68.3816 159.124 97.0536L132.113 95.312C133.518 87.1528 134.112 82.1016 130.812 64.9488C134.663 64.6128 138.541 64.4837 142.417 64.5624C146.525 64.6087 150.624 64.8726 154.682 65.352C158.482 65.9042 162.242 66.5994 165.948 67.4352Z" fill="#049F67"/>
<path opacity="0.7" d="M165.948 67.4352C165.948 67.4352 168.849 68.3816 159.124 97.0536L132.113 95.312C133.518 87.1528 134.112 82.1016 130.812 64.9488C134.663 64.6128 138.541 64.4837 142.417 64.5624C146.525 64.6087 150.624 64.8726 154.682 65.352C158.482 65.9042 162.242 66.5994 165.948 67.4352Z" fill="white"/>
<path d="M142.419 64.4004C142.419 64.4004 140.916 64.4004 139.075 64.4004C137.985 65.6492 142.585 69.2948 148.432 72.8788C149.845 69.614 152.069 69.6252 152.069 69.6252L142.419 64.4004Z" fill="white"/>
<path d="M154.675 65.2793C154.675 65.2793 155.359 65.3521 156.997 65.6321C158.079 66.8809 158.688 70.0057 155.494 72.7273C154.239 69.3673 152.074 69.6697 152.074 69.6697L154.675 65.2793Z" fill="white"/>
<path d="M144.823 54.3477C145.259 57.3381 145.402 62.7477 142.418 64.5621C142.418 64.5621 145.605 66.9925 152.068 69.6693C156.758 67.2501 154.683 65.3517 154.683 65.3517C150.369 64.2877 150.768 61.8629 151.797 59.6229L144.823 54.3477Z" fill="#FFB573"/>
<path opacity="0.2" d="M147.67 56.5039L151.796 59.6231C151.543 60.1415 151.352 60.6756 151.225 61.2191C149.572 60.9335 147.167 59.6455 147.137 58.3239C147.166 57.6982 147.346 57.0816 147.67 56.5039Z" fill="black"/>
<path d="M160.318 44.5928C163.084 46.4184 163.895 50.8648 161.265 53.8832C160.475 50.8234 160.157 47.7063 160.318 44.5928Z" fill="#263238"/>
<path d="M143.982 48.0706C143.501 52.993 143.163 55.0706 146.019 57.9098C150.318 62.1826 158.54 61.5386 160.982 56.8234C163.184 52.573 163.598 45.237 157.533 42.6498C156.2 42.0701 154.69 41.755 153.147 41.7345C151.604 41.714 150.08 41.9888 148.72 42.5327C147.36 43.0766 146.211 43.8714 145.381 44.841C144.552 45.8106 144.07 46.9226 143.982 48.0706Z" fill="#FFB573"/>
<path d="M143.102 52.0351C147.987 51.8951 150.692 47.1351 149.467 45.1247C155.006 47.2751 163.394 48.9663 162.462 46.1999C161.207 42.4647 155.141 39.7263 147.679 41.7199C143.357 43.1199 139.659 46.1999 143.102 52.0351Z" fill="#263238"/>
<path d="M141.613 52.0296C141.822 52.9709 142.518 53.8134 143.552 54.376C144.935 55.1096 146.198 54.292 146.296 53.0992C146.386 52.0184 145.777 50.3384 144.154 50.0808C143.798 50.0282 143.431 50.0427 143.085 50.123C142.739 50.2033 142.425 50.3469 142.173 50.5406C141.92 50.7344 141.737 50.9721 141.639 51.2322C141.541 51.4922 141.533 51.7664 141.613 52.0296Z" fill="#FFB573"/>
<path d="M159.124 97.0532C159.124 97.0532 165.235 126.761 161.83 145.846C159.252 160.266 142.62 191.38 142.62 191.38L131.82 191.161C131.82 191.161 142.973 161.005 145.281 149.161C149.226 128.878 139.343 95.7988 139.343 95.7988L159.124 97.0532Z" fill="#263238"/>
<path opacity="0.2" d="M148.589 103.141L142.824 109.911C144.56 117.939 145.662 126.035 146.124 134.159C154.225 123.351 150.422 108.858 148.589 103.141Z" fill="black"/>
<path d="M144.304 191.828L130.73 191.553L131.557 188.3L145.581 188.361L144.304 191.828Z" fill="#049F67"/>
<path d="M153.217 96.734C153.217 96.734 148.708 129.628 138.404 147.526C130.069 161.974 110.198 185.085 110.198 185.085L102.262 181.624C102.262 181.624 115.038 155.926 121.344 146.294C136.728 122.679 122.418 103.734 132.114 95.334L153.217 96.734Z" fill="#263238"/>
<path d="M111.061 185.59L100.938 181.451L102.583 178.226L113.368 182.762L111.061 185.59Z" fill="#049F67"/>
<path d="M131.843 94.108L130.415 95.8328C130.31 95.9616 130.512 96.124 130.828 96.1408L159.154 97.9664C159.395 97.9664 159.613 97.9048 159.635 97.7928L160.094 96.0064C160.094 95.8832 159.921 95.7656 159.658 95.7488L132.301 93.9848C132.217 93.9753 132.131 93.9815 132.051 94.0031C131.971 94.0246 131.899 94.0606 131.843 94.108Z" fill="#049F67"/>
<path d="M135.256 96.622L134.504 96.5773C134.361 96.5773 134.256 96.5045 134.271 96.4373L134.887 94.1189C134.887 94.0461 135.045 94.0013 135.188 94.0125L135.939 94.0573C136.09 94.0573 136.195 94.1301 136.172 94.1973L135.564 96.5157C135.534 96.5829 135.391 96.6332 135.256 96.622Z" fill="#263238"/>
<path d="M157.074 98.0282L156.322 97.9834C156.172 97.9834 156.066 97.9106 156.089 97.8434L156.705 95.525C156.705 95.4578 156.856 95.4074 156.998 95.4186L157.75 95.4634C157.893 95.4634 157.998 95.5362 157.983 95.6034L157.367 97.9218C157.352 98.0002 157.186 98.0394 157.074 98.0282Z" fill="#263238"/>
<path d="M146.162 97.3277L145.41 97.2773C145.267 97.2773 145.162 97.2045 145.177 97.1373L145.793 94.8189C145.793 94.7517 145.944 94.7013 146.094 94.7125L146.846 94.7629C146.988 94.7629 147.094 94.8357 147.079 94.9029L146.462 97.2213C146.447 97.2885 146.312 97.3333 146.162 97.3277Z" fill="#263238"/>
<path d="M154.331 50.5172C154.256 50.9148 154.481 51.2676 154.827 51.3012C155.173 51.3348 155.518 51.0436 155.578 50.646C155.639 50.2484 155.421 49.8956 155.075 49.862C154.729 49.8284 154.399 50.1196 154.331 50.5172Z" fill="#263238"/>
<path d="M160.356 51.1227C160.288 51.5203 160.514 51.8731 160.859 51.9067C161.205 51.9403 161.551 51.6491 161.611 51.2515C161.671 50.8539 161.461 50.5011 161.115 50.4675C160.769 50.4339 160.431 50.7251 160.356 51.1227Z" fill="#263238"/>
<path d="M160.941 50.4728L162.279 50.3271C162.279 50.3271 161.498 51.0048 160.941 50.4728Z" fill="#263238"/>
<path d="M157.988 51.5596C158.301 52.5131 158.787 53.4305 159.431 54.2868C159.134 54.4045 158.805 54.4725 158.469 54.4861C158.133 54.4996 157.797 54.4584 157.484 54.3652L157.988 51.5596Z" fill="#ED893E"/>
<path d="M154.358 55.5518C153.301 55.2951 152.415 54.7486 151.878 54.023C151.865 53.9998 151.864 53.9737 151.875 53.9498C151.886 53.926 151.909 53.9061 151.938 53.8942C151.97 53.8824 152.007 53.8806 152.041 53.889C152.075 53.8973 152.103 53.9153 152.119 53.939C152.453 54.3752 152.92 54.7467 153.483 55.023C154.046 55.2994 154.688 55.4728 155.358 55.5294C155.392 55.5294 155.424 55.5394 155.448 55.5572C155.472 55.5751 155.486 55.5993 155.486 55.6246C155.486 55.6498 155.472 55.674 155.448 55.6919C155.424 55.7097 155.392 55.7198 155.358 55.7198C155.017 55.6918 154.682 55.6354 154.358 55.5518Z" fill="#263238"/>
<path d="M151.586 48.2156C151.542 48.2021 151.503 48.181 151.473 48.154C151.448 48.1362 151.428 48.1149 151.415 48.0913C151.401 48.0678 151.395 48.0424 151.395 48.0168C151.395 47.9912 151.401 47.9658 151.415 47.9422C151.428 47.9187 151.448 47.8974 151.473 47.8796C151.841 47.6342 152.284 47.4591 152.763 47.3694C153.242 47.2796 153.743 47.2779 154.224 47.3644C154.256 47.3714 154.287 47.3833 154.314 47.3993C154.34 47.4153 154.362 47.4351 154.378 47.4576C154.394 47.48 154.404 47.5047 154.407 47.53C154.411 47.5554 154.407 47.5809 154.396 47.6052C154.377 47.6548 154.332 47.6967 154.272 47.7219C154.211 47.7471 154.14 47.7534 154.073 47.7396C153.678 47.674 153.267 47.6795 152.875 47.7554C152.483 47.8313 152.121 47.9756 151.819 48.1764C151.786 48.1951 151.748 48.2082 151.708 48.215C151.668 48.2218 151.626 48.222 151.586 48.2156Z" fill="#263238"/>
<path d="M162.89 49.4091C162.851 49.3977 162.815 49.3805 162.785 49.3587C162.522 49.1283 162.189 48.9474 161.814 48.8306C161.44 48.7139 161.033 48.6646 160.628 48.6867C160.594 48.6924 160.558 48.6925 160.524 48.6872C160.49 48.6819 160.457 48.6712 160.429 48.6559C160.4 48.6405 160.377 48.6209 160.359 48.5982C160.342 48.5755 160.331 48.5503 160.327 48.5243C160.317 48.473 160.333 48.4207 160.374 48.3787C160.415 48.3367 160.477 48.3085 160.545 48.3003C161.036 48.2674 161.53 48.3224 161.986 48.4607C162.443 48.5991 162.848 48.8167 163.168 49.0955C163.205 49.1278 163.226 49.1681 163.23 49.2103C163.233 49.2525 163.218 49.2944 163.186 49.3297C163.155 49.3649 163.109 49.3917 163.056 49.406C163.003 49.4203 162.944 49.4214 162.89 49.4091Z" fill="#263238"/>
<path d="M168.835 91.6607C169.321 90.5311 170.102 89.484 171.131 88.5792C172.161 87.6743 173.42 86.9294 174.836 86.3871C176.252 85.8447 177.797 85.5155 179.384 85.4181C180.971 85.3208 182.568 85.4573 184.084 85.8199C185.6 86.1825 187.005 86.7639 188.22 87.5312C189.434 88.2984 190.434 89.2363 191.161 90.2914C191.889 91.3465 192.331 92.4981 192.462 93.6805C192.592 94.8628 192.409 96.0527 191.923 97.1823L187.248 108.08L164.16 102.553L168.835 91.6607Z" fill="#049F67"/>
<path opacity="0.3" d="M168.835 91.6607C169.321 90.5311 170.102 89.484 171.131 88.5792C172.161 87.6743 173.42 86.9294 174.836 86.3871C176.252 85.8447 177.797 85.5155 179.384 85.4181C180.971 85.3208 182.568 85.4573 184.084 85.8199C185.6 86.1825 187.005 86.7639 188.22 87.5312C189.434 88.2984 190.434 89.2363 191.161 90.2914C191.889 91.3465 192.331 92.4981 192.462 93.6805C192.592 94.8628 192.409 96.0527 191.923 97.1823L187.248 108.08L164.16 102.553L168.835 91.6607Z" fill="black"/>
<path d="M146.056 86.2059L141.832 96.0059C141.771 96.1467 141.747 96.2953 141.763 96.443C141.778 96.5907 141.833 96.7346 141.924 96.8663C142.015 96.9981 142.14 97.1151 142.292 97.2106C142.444 97.3061 142.62 97.3782 142.809 97.4227L164.154 102.53L168.843 91.6547C169.827 89.3756 171.985 87.4808 174.843 86.3867C177.701 85.2925 181.025 85.0885 184.085 85.8195L161.305 80.3651C158.244 79.6357 154.919 79.8411 152.06 80.9361C149.201 82.031 147.042 83.9263 146.056 86.2059Z" fill="#049F67"/>
<path d="M157.509 93.6373L163.394 79.9901C163.414 79.9411 163.42 79.8895 163.411 79.8386C163.402 79.7878 163.379 79.739 163.343 79.6955C163.306 79.652 163.258 79.6147 163.201 79.5864C163.143 79.558 163.079 79.5391 163.011 79.5309L156.998 78.8701L156.247 80.6397L160.628 81.6869L155.668 93.1893L157.509 93.6373Z" fill="#263238"/>
<path d="M154.381 92.8876C154.245 93.2038 154.238 93.543 154.361 93.8622C154.483 94.1815 154.73 94.4665 155.07 94.6812C155.41 94.8959 155.828 95.0308 156.27 95.0687C156.713 95.1067 157.161 95.046 157.558 94.8944C157.954 94.7427 158.281 94.507 158.498 94.2168C158.715 93.9267 158.811 93.5952 158.775 93.2642C158.739 92.9332 158.573 92.6176 158.296 92.3572C158.02 92.0968 157.646 91.9033 157.222 91.8012C156.939 91.7332 156.642 91.7074 156.346 91.7252C156.051 91.743 155.763 91.8042 155.499 91.9051C155.235 92.006 155 92.1447 154.808 92.3133C154.616 92.4819 154.471 92.6771 154.381 92.8876Z" fill="#263238"/>
<path d="M165.265 104.16L194.876 111.244C194.984 111.27 195.097 111.28 195.21 111.273C195.323 111.266 195.433 111.243 195.533 111.204C195.634 111.166 195.723 111.113 195.796 111.049C195.869 110.984 195.924 110.91 195.959 110.829C195.995 110.749 196.009 110.664 196 110.58C195.992 110.496 195.961 110.414 195.909 110.339C195.857 110.263 195.785 110.197 195.698 110.143C195.611 110.088 195.511 110.048 195.402 110.023L164.153 102.547C164.013 102.871 164.052 103.222 164.261 103.525C164.469 103.827 164.83 104.056 165.265 104.16Z" fill="#049F67"/>
<path opacity="0.2" d="M165.265 104.16L177.365 107.055C177.473 107.081 177.587 107.091 177.7 107.084C177.814 107.078 177.924 107.055 178.025 107.016C178.126 106.978 178.216 106.925 178.29 106.86C178.364 106.796 178.42 106.721 178.455 106.64C178.523 106.479 178.504 106.303 178.399 106.152C178.295 106.001 178.115 105.887 177.899 105.834L164.153 102.547C164.013 102.871 164.052 103.222 164.261 103.525C164.469 103.827 164.83 104.056 165.265 104.16Z" fill="black"/>
<path d="M133.991 72.8555L133.578 73.1971L133.112 73.5947C132.796 73.8635 132.48 74.1547 132.18 74.4291C131.564 74.9891 130.977 75.5883 130.429 76.1931C128.158 78.5882 126.37 81.2182 125.123 83.9995C124.822 84.6939 124.544 85.3883 124.326 86.0995C124.251 86.3067 124.243 86.3907 124.206 86.4859C124.2 86.568 124.2 86.6502 124.206 86.7323C124.194 86.8198 124.194 86.908 124.206 86.9955C124.206 87.0963 124.461 87.3315 125.078 87.5555C125.819 87.8038 126.599 87.9807 127.4 88.0819C129.333 88.3109 131.29 88.4065 133.247 88.3675C135.291 88.3675 137.366 88.2331 139.44 88.0707C141.514 87.9083 143.618 87.7067 145.655 87.4771L146.474 89.9019C142.28 90.9192 137.963 91.6337 133.585 92.0355C131.28 92.259 128.949 92.2966 126.633 92.1475C125.309 92.0549 124.009 91.8249 122.77 91.4643C122.027 91.2423 121.329 90.9445 120.696 90.5795C119.95 90.1438 119.336 89.5963 118.892 88.9723C118.129 87.8018 117.925 86.4722 118.314 85.2035C118.494 84.3467 118.757 83.5235 119.065 82.6611C119.655 81.0056 120.44 79.3922 121.41 77.8395C122.383 76.2832 123.516 74.7854 124.8 73.3595C125.446 72.6483 126.137 71.9595 126.859 71.2819C127.227 70.9459 127.61 70.6155 127.986 70.2851L128.595 69.7979C128.813 69.6243 128.986 69.4843 129.286 69.2715L133.991 72.8555Z" fill="#FFB573"/>
<path d="M144.019 87.9926L149.28 85.915L149.513 90.1262C149.513 90.1262 145.755 91.2854 143.605 90.0086L144.019 87.9926Z" fill="#FFB573"/>
<path d="M153.614 85.5957L152.825 89.4765L149.518 90.1261L149.285 85.9149L153.614 85.5957Z" fill="#FFB573"/>
<path d="M130.815 64.9603C127.5 65.3971 122.863 72.4755 122.863 72.4755L131.213 78.0755C131.213 78.0755 137.849 72.6771 137.496 69.4627C137.195 66.7467 135.031 64.4003 130.815 64.9603Z" fill="#049F67"/>
<path opacity="0.7" d="M130.815 64.9603C127.5 65.3971 122.863 72.4755 122.863 72.4755L131.213 78.0755C131.213 78.0755 137.849 72.6771 137.496 69.4627C137.195 66.7467 135.031 64.4003 130.815 64.9603Z" fill="white"/>
<path d="M108.449 190.993C108.361 191.002 108.273 191.002 108.186 190.993C107.351 190.96 106.465 190.008 106.006 189.448C105.992 189.432 105.984 189.414 105.984 189.395C105.984 189.376 105.992 189.357 106.006 189.341C106.02 189.325 106.041 189.312 106.065 189.305C106.089 189.298 106.116 189.297 106.141 189.302C106.412 189.341 108.749 189.733 109.042 190.321C109.073 190.385 109.081 190.454 109.065 190.521C109.049 190.587 109.01 190.65 108.952 190.702C108.832 190.838 108.655 190.94 108.449 190.993ZM106.397 189.571C107.066 190.338 107.727 190.797 108.201 190.82C108.309 190.821 108.415 190.802 108.51 190.764C108.605 190.726 108.685 190.67 108.742 190.601C108.774 190.577 108.796 190.546 108.806 190.512C108.815 190.478 108.811 190.443 108.794 190.411C108.614 190.053 107.209 189.717 106.397 189.571Z" fill="#049F67"/>
<path d="M108.206 189.448C107.513 189.59 106.786 189.613 106.079 189.515C106.057 189.51 106.037 189.5 106.021 189.487C106.005 189.475 105.994 189.459 105.989 189.442C105.978 189.427 105.973 189.411 105.973 189.394C105.973 189.378 105.978 189.361 105.989 189.347C106.049 189.308 107.417 188.311 108.371 188.361C108.489 188.363 108.605 188.384 108.709 188.425C108.814 188.466 108.904 188.525 108.972 188.596C109.054 188.662 109.105 188.746 109.116 188.835C109.127 188.924 109.097 189.014 109.032 189.089C108.817 189.273 108.526 189.398 108.206 189.448ZM106.395 189.358C107.146 189.436 108.551 189.296 108.845 188.977C108.89 188.927 108.927 188.848 108.792 188.72C108.747 188.67 108.686 188.63 108.615 188.602C108.545 188.574 108.466 188.558 108.386 188.557C107.732 188.524 106.785 189.095 106.395 189.358Z" fill="#049F67"/>
<path d="M142.378 197.898C141.652 197.885 140.929 197.816 140.221 197.691C140.197 197.684 140.175 197.672 140.16 197.656C140.145 197.64 140.137 197.621 140.137 197.601C140.137 197.582 140.145 197.562 140.16 197.546C140.175 197.53 140.197 197.518 140.221 197.512C140.544 197.394 143.423 196.392 144.144 196.772C144.209 196.805 144.261 196.851 144.294 196.904C144.327 196.958 144.341 197.016 144.332 197.075C144.329 197.184 144.292 197.291 144.224 197.389C144.156 197.486 144.06 197.57 143.942 197.635C143.47 197.842 142.923 197.934 142.378 197.898ZM140.672 197.562C141.522 197.68 143.1 197.836 143.754 197.472C143.837 197.423 143.906 197.361 143.955 197.291C144.005 197.22 144.033 197.143 144.039 197.064C144.046 197.039 144.042 197.013 144.029 196.99C144.015 196.967 143.993 196.948 143.964 196.935C143.558 196.728 141.86 197.17 140.65 197.562H140.672Z" fill="#049F67"/>
<path d="M140.247 197.68C140.22 197.686 140.192 197.686 140.165 197.68C140.146 197.667 140.133 197.652 140.125 197.634C140.117 197.616 140.115 197.598 140.119 197.579C140.119 197.49 140.803 195.379 142.374 195.513C142.765 195.552 142.87 195.692 142.893 195.81C142.99 196.37 141.179 197.428 140.315 197.697L140.247 197.68ZM142.216 195.681C141.224 195.681 140.646 196.913 140.45 197.406C141.39 197.036 142.705 196.157 142.622 195.815C142.622 195.787 142.622 195.709 142.329 195.687L142.216 195.681Z" fill="#049F67"/>
<path d="M154.93 49.8683L156.26 49.7227C156.26 49.7227 155.471 50.4003 154.93 49.8683Z" fill="#263238"/>
<path d="M201.173 96.7183L172.072 101.198C171.575 101.268 171.06 101.19 170.639 100.98C170.217 100.771 169.923 100.447 169.818 100.078L168.457 95.3743L167.969 93.6383L168.826 91.6559C168.945 91.3713 169.088 91.0927 169.254 90.8215C169.273 90.7784 169.298 90.7371 169.329 90.6983C169.809 89.8825 170.456 89.1269 171.246 88.4583L172.749 88.2231L197.7 84.3647C198.198 84.295 198.712 84.3732 199.134 84.5825C199.555 84.7918 199.85 85.1156 199.955 85.4847L202.608 95.0047C202.717 95.3734 202.627 95.7592 202.359 96.0795C202.091 96.3997 201.665 96.629 201.173 96.7183Z" fill="#049F67"/>
<path opacity="0.3" d="M199.729 84.9802L185.69 95.6202L182.684 94.713L170.99 91.1794L169.344 90.681C169.824 89.8652 170.47 89.1096 171.26 88.441L172.763 88.2058L197.715 84.3474C198.097 84.2906 198.493 84.3205 198.853 84.4333C199.212 84.5461 199.517 84.7366 199.729 84.9802Z" fill="black"/>
<path d="M199.73 84.98L182.685 94.7296L181.573 95.368L170.863 91.4088L169.27 90.8488C169.288 90.8058 169.313 90.7644 169.345 90.7256C169.825 89.9098 170.471 89.1542 171.261 88.4856L172.764 88.2504L197.716 84.392C198.092 84.3306 198.484 84.3537 198.843 84.4584C199.201 84.563 199.51 84.7446 199.73 84.98Z" fill="#049F67"/>
<path opacity="0.2" d="M199.73 84.98L182.685 94.7296L181.573 95.368L170.863 91.4088L169.27 90.8488C169.288 90.8058 169.313 90.7644 169.345 90.7256C169.825 89.9098 170.471 89.1542 171.261 88.4856L172.764 88.2504L197.716 84.392C198.092 84.3306 198.484 84.3537 198.843 84.4584C199.201 84.563 199.51 84.7446 199.73 84.98Z" fill="white"/>
<path d="M236.699 116.357L227.831 123.48C227.481 123.758 226.998 123.921 226.487 123.935C225.976 123.948 225.479 123.811 225.103 123.553L203.353 108.461C202.978 108.201 202.758 107.841 202.74 107.46C202.721 107.078 202.907 106.707 203.255 106.428L212.154 99.3049C212.326 99.1653 212.534 99.0525 212.765 98.9732C212.996 98.8938 213.247 98.8495 213.501 98.8427C213.756 98.8359 214.009 98.8669 214.248 98.9337C214.486 99.0006 214.704 99.102 214.889 99.2321L236.632 114.324C236.914 114.519 237.111 114.773 237.198 115.052C237.285 115.332 237.258 115.624 237.12 115.892C237.026 116.068 236.883 116.226 236.699 116.357Z" fill="#049F67"/>
<path opacity="0.3" d="M237.088 115.92L217.307 113.518L212.715 98.9577C213.065 98.8375 213.456 98.7972 213.837 98.842C214.218 98.8869 214.573 99.0148 214.857 99.2097L236.599 114.302C236.895 114.501 237.101 114.763 237.188 115.053C237.275 115.343 237.24 115.646 237.088 115.92Z" fill="black"/>
<path d="M237.088 115.921L217.825 111.642L212.715 99.0085C213.065 98.8882 213.456 98.848 213.837 98.8928C214.218 98.9377 214.573 99.0656 214.857 99.2605L236.599 114.353C236.881 114.548 237.078 114.801 237.165 115.081C237.252 115.36 237.225 115.653 237.088 115.921Z" fill="#049F67"/>
<path opacity="0.2" d="M237.088 115.921L217.825 111.642L212.715 99.0085C213.065 98.8882 213.456 98.848 213.837 98.8928C214.218 98.9377 214.573 99.0656 214.857 99.2605L236.599 114.353C236.881 114.548 237.078 114.801 237.165 115.081C237.252 115.36 237.225 115.653 237.088 115.921Z" fill="white"/>
<path d="M244.431 128.089L254.201 136.59C254.388 136.752 254.528 136.942 254.613 137.146C254.698 137.35 254.727 137.566 254.696 137.778C254.666 137.991 254.578 138.197 254.437 138.384C254.297 138.57 254.106 138.733 253.878 138.863L232.654 151.183C232.297 151.343 231.873 151.399 231.465 151.339C231.057 151.279 230.693 151.107 230.444 150.858L222.801 144.362C222.657 144.238 222.538 144.098 222.448 143.948C222.306 143.742 222.247 143.51 222.277 143.28C222.308 143.049 222.427 142.83 222.621 142.649L241.41 128.027C241.703 127.791 242.091 127.63 242.515 127.57C242.94 127.509 243.38 127.552 243.769 127.691C244.022 127.791 244.246 127.926 244.431 128.089Z" fill="#049F67"/>
<path opacity="0.3" d="M243.771 127.708L239.104 143.176L222.479 143.965C222.337 143.759 222.278 143.527 222.309 143.297C222.339 143.066 222.459 142.847 222.652 142.666L241.441 128.044C241.732 127.812 242.114 127.655 242.533 127.595C242.951 127.534 243.384 127.574 243.771 127.708Z" fill="black"/>
<path d="M243.77 127.708L235.946 144.122L222.463 143.965C222.322 143.759 222.262 143.527 222.293 143.296C222.324 143.066 222.443 142.847 222.636 142.666L241.425 128.044C241.718 127.81 242.102 127.651 242.524 127.591C242.946 127.53 243.382 127.571 243.77 127.708Z" fill="#049F67"/>
<path opacity="0.2" d="M243.77 127.708L235.946 144.122L222.463 143.965C222.322 143.759 222.262 143.527 222.293 143.296C222.324 143.066 222.443 142.847 222.636 142.666L241.425 128.044C241.718 127.81 242.102 127.651 242.524 127.591C242.946 127.53 243.382 127.571 243.77 127.708Z" fill="white"/>
</svg>
