<svg width="28" height="40" viewBox="0 0 28 40" fill="none" xmlns="http://www.w3.org/2000/svg">
<path d="M14.8867 0.411207C14.7771 0.282245 14.6412 0.178718 14.4883 0.107736C14.3353 0.0367537 14.1689 0 14.0005 0C13.8321 0 13.6657 0.0367537 13.5127 0.107736C13.3597 0.178718 13.2238 0.282245 13.1143 0.411207C10.0363 4.04093 0 16.5896 0 25.885C0 34.5471 5.40944 40 14 40C22.5906 40 28 34.5471 28 25.885C28 16.5896 17.9637 4.04093 14.8867 0.411207V0.411207ZM15.5556 34.9029C15.3687 34.9033 15.1845 34.8585 15.0184 34.7721C14.8523 34.6858 14.7092 34.5605 14.6012 34.4068C14.4931 34.2531 14.4233 34.0755 14.3975 33.8889C14.3717 33.7023 14.3908 33.5122 14.4531 33.3346C14.5326 33.1028 14.6827 32.9023 14.8818 32.7615C15.081 32.6207 15.3191 32.5468 15.5624 32.5504C17.1066 32.547 18.5867 31.927 19.6786 30.8261C20.7706 29.7252 21.3856 28.2329 21.3889 26.676C21.3853 26.4308 21.4586 26.1907 21.5982 25.9899C21.7379 25.789 21.9368 25.6378 22.1667 25.5576C22.3428 25.4948 22.5314 25.4755 22.7165 25.5015C22.9015 25.5275 23.0777 25.5979 23.2302 25.7069C23.3826 25.8158 23.5069 25.9601 23.5925 26.1275C23.6782 26.295 23.7226 26.4807 23.7222 26.6691C23.7199 28.8521 22.8587 30.9451 21.3277 32.4887C19.7967 34.0323 17.7208 34.9006 15.5556 34.9029Z" fill="#038556"/>
</svg>
