<svg width="43" height="40" viewBox="0 0 43 40" fill="none" xmlns="http://www.w3.org/2000/svg">
<path d="M22.0084 6.19806C21.8727 6.07095 21.6923 6 21.5046 6C21.3168 6 21.1364 6.07095 21.0007 6.19806L4.22777 21.895C4.15654 21.9618 4.09987 22.042 4.06119 22.1308C4.02251 22.2196 4.00262 22.3152 4.00273 22.4118L4 37.1439C4 37.9014 4.30716 38.6278 4.85392 39.1635C5.40067 39.6991 6.14223 40 6.91545 40H15.6709C16.0575 40 16.4283 39.8495 16.7017 39.5817C16.9751 39.3139 17.1286 38.9507 17.1286 38.5719V26.4335C17.1286 26.2442 17.2054 26.0625 17.3421 25.9286C17.4788 25.7947 17.6642 25.7195 17.8575 25.7195H25.1461C25.3394 25.7195 25.5248 25.7947 25.6615 25.9286C25.7982 26.0625 25.875 26.2442 25.875 26.4335V38.5719C25.875 38.9507 26.0286 39.3139 26.302 39.5817C26.5753 39.8495 26.9461 40 27.3327 40H36.0845C36.8578 40 37.5993 39.6991 38.1461 39.1635C38.6928 38.6278 39 37.9014 39 37.1439V22.4118C39.0001 22.3152 38.9802 22.2196 38.9415 22.1308C38.9029 22.042 38.8462 21.9618 38.775 21.895L22.0084 6.19806Z" fill="#038556"/>
<path d="M42.5439 18.5613L35.8431 12.3004V2.79972C35.8431 2.42846 35.6921 2.0724 35.4233 1.80987C35.1545 1.54735 34.7899 1.39986 34.4098 1.39986H30.1098C29.7297 1.39986 29.3651 1.54735 29.0963 1.80987C28.8275 2.0724 28.6765 2.42846 28.6765 2.79972V5.59945L23.4878 0.754175C23.0023 0.274723 22.2803 0 21.5 0C20.7224 0 20.0022 0.274723 19.5166 0.75505L0.462283 18.5595C-0.0949241 19.0845 -0.164799 19.948 0.342241 20.5167C0.469567 20.6603 0.625468 20.777 0.800458 20.8598C0.975447 20.9427 1.16586 20.9899 1.36012 20.9985C1.55438 21.0072 1.74841 20.9772 1.93041 20.9103C2.11241 20.8434 2.27857 20.7411 2.41878 20.6095L21.0073 3.26168C21.1406 3.13707 21.3181 3.06753 21.5027 3.06753C21.6872 3.06753 21.8647 3.13707 21.9981 3.26168L40.5883 20.6095C40.8622 20.8659 41.229 21.0059 41.6083 20.9987C41.9877 20.9915 42.3486 20.8377 42.612 20.571C43.1621 20.0145 43.1164 19.0959 42.5439 18.5613Z" fill="#038556"/>
</svg>
