<svg width="376" height="285" viewBox="0 0 376 285" fill="none" xmlns="http://www.w3.org/2000/svg">
<path d="M338.235 266.043H313.344V266.231H338.235V266.043Z" fill="#EBEBEB"/>
<path d="M249.039 268.087H242.508V268.275H249.039V268.087Z" fill="#EBEBEB"/>
<path d="M312.59 259.068H298.168V259.256H312.59V259.068Z" fill="#EBEBEB"/>
<path d="M71.9949 260.331H39.5352V260.519H71.9949V260.331Z" fill="#EBEBEB"/>
<path d="M83.4488 260.331H78.6914V260.519H83.4488V260.331Z" fill="#EBEBEB"/>
<path d="M169.324 263.503H98.918V263.691H169.324V263.503Z" fill="#EBEBEB"/>
<path d="M178.23 220.431H33.1195C31.9814 220.431 30.8898 219.979 30.085 219.174C29.2803 218.369 28.8281 217.278 28.8281 216.139V12.1444C28.838 11.0128 29.2945 9.93091 30.0983 9.13423C30.902 8.33755 31.9878 7.89058 33.1195 7.89063H178.23C179.368 7.89063 180.46 8.34275 181.265 9.14754C182.069 9.95234 182.521 11.0439 182.521 12.182V216.139C182.521 217.278 182.069 218.369 181.265 219.174C180.46 219.979 179.368 220.431 178.23 220.431ZM33.1195 8.04094C32.0318 8.04292 30.9892 8.47589 30.2201 9.24502C29.451 10.0141 29.018 11.0567 29.016 12.1444V216.139C29.018 217.227 29.451 218.27 30.2201 219.039C30.9892 219.808 32.0318 220.241 33.1195 220.243H178.23C179.318 220.241 180.36 219.808 181.13 219.039C181.899 218.27 182.332 217.227 182.334 216.139V12.1444C182.332 11.0567 181.899 10.0141 181.13 9.24502C180.36 8.47589 179.318 8.04292 178.23 8.04094H33.1195Z" fill="#EBEBEB"/>
<path d="M340.796 220.431H195.67C194.533 220.429 193.442 219.976 192.638 219.172C191.834 218.367 191.381 217.277 191.379 216.139V12.1444C191.391 11.0134 191.848 9.93266 192.651 9.1364C193.454 8.34014 194.539 7.89254 195.67 7.89062H340.796C341.925 7.89454 343.007 8.34325 343.807 9.13951C344.608 9.93577 345.062 11.0154 345.072 12.1444V216.139C345.072 217.275 344.622 218.364 343.821 219.169C343.019 219.973 341.931 220.427 340.796 220.431ZM195.67 8.04094C194.583 8.04292 193.54 8.47589 192.771 9.24502C192.002 10.0141 191.569 11.0567 191.567 12.1444V216.139C191.569 217.227 192.002 218.27 192.771 219.039C193.54 219.808 194.583 220.241 195.67 220.243H340.796C341.884 220.241 342.926 219.808 343.695 219.039C344.464 218.27 344.897 217.227 344.899 216.139V12.1444C344.897 11.0567 344.464 10.0141 343.695 9.24502C342.926 8.47589 341.884 8.04292 340.796 8.04094H195.67Z" fill="#EBEBEB"/>
<path d="M375.888 253.95H0.109375V254.138H375.888V253.95Z" fill="#EBEBEB"/>
<path d="M313.472 149.965H247.613V249.043H313.472V149.965Z" fill="#F5F5F5"/>
<path d="M327.677 149.965H313.473V249.043H327.677V149.965Z" fill="#EBEBEB"/>
<path d="M308.639 157.315H252.828V181.38H308.639V157.315Z" fill="#FAFAFA"/>
<path d="M276.637 157.315L276.915 160.525C276.963 161.034 277.199 161.506 277.577 161.851C277.955 162.195 278.448 162.387 278.959 162.388H282.506C283.018 162.387 283.51 162.195 283.888 161.851C284.266 161.506 284.502 161.034 284.551 160.525L284.829 157.315H276.637Z" fill="#EBEBEB"/>
<path d="M308.639 184.003H252.828V208.068H308.639V184.003Z" fill="#FAFAFA"/>
<path d="M276.637 184.003L276.915 187.212C276.962 187.722 277.197 188.197 277.575 188.543C277.953 188.889 278.447 189.082 278.959 189.083H282.506C283.019 189.082 283.512 188.889 283.89 188.543C284.268 188.197 284.504 187.722 284.551 187.212L284.829 184.003H276.637Z" fill="#EBEBEB"/>
<path d="M308.639 210.69H252.828V234.755H308.639V210.69Z" fill="#FAFAFA"/>
<path d="M276.637 210.69L276.915 213.9C276.961 214.406 277.193 214.878 277.567 215.223C277.94 215.569 278.428 215.764 278.936 215.771H282.484C282.996 215.769 283.49 215.577 283.868 215.231C284.246 214.885 284.481 214.41 284.528 213.9L284.806 210.69H276.637Z" fill="#EBEBEB"/>
<path d="M308.639 253.988H253.61L252.828 249.035H308.639V253.988Z" fill="#E6E6E6"/>
<path d="M321.932 253.988H308.637V249.035H322.713L321.932 253.988Z" fill="#E0E0E0"/>
<path d="M280.153 150.071H303.143L300.596 120.91H277.605L280.153 150.071Z" fill="#FAFAFA"/>
<path d="M280.153 150.071H279.055L276.5 120.91H277.605L280.153 150.071Z" fill="#EBEBEB"/>
<path d="M282.236 147.094H300.544L298.507 123.886H280.207L282.236 147.094Z" fill="#F0F0F0"/>
<path d="M283.581 145.185H298.868L297.169 125.795H281.883L283.581 145.185Z" fill="#E6E6E6"/>
<path d="M298.231 150.07L296.848 134.25H316.907L318.297 150.07H298.231Z" fill="#F0F0F0"/>
<path d="M298.231 150.07L296.848 134.25H295.766L297.156 150.07H298.231Z" fill="#E0E0E0"/>
<path d="M300.14 148.455L299.035 135.866H315.006L316.111 148.455H300.14Z" fill="#EBEBEB"/>
<path d="M301.362 147.418L300.438 136.903H313.778L314.702 147.418H301.362Z" fill="#F5F5F5"/>
<path d="M48.0888 226.03H116.578V202.386H48.0888V226.03Z" fill="#EBEBEB"/>
<path d="M48.0888 249.674H116.578V226.03H48.0888V249.674Z" fill="#EBEBEB"/>
<path d="M118.975 226.03H187.465V202.386H118.975V226.03Z" fill="#EBEBEB"/>
<path d="M118.975 249.674H187.465V226.03H118.975V249.674Z" fill="#EBEBEB"/>
<path d="M161.429 226.03L152.914 202.394H166.029L174.544 226.03H161.429Z" fill="#F0F0F0"/>
<path d="M146.566 202.394H149.445L157.968 226.03H155.089L146.566 202.394Z" fill="#F0F0F0"/>
<path d="M169.952 249.674L161.43 226.03H174.544L183.067 249.674H169.952Z" fill="#F0F0F0"/>
<path d="M155.09 226.03H157.968L166.491 249.674H163.612L155.09 226.03Z" fill="#F0F0F0"/>
<path d="M63.4722 226.03L54.957 202.394H68.0717L76.5943 226.03H63.4722Z" fill="#F0F0F0"/>
<path d="M48.6055 202.394H51.4839L60.0066 226.03H57.1281L48.6055 202.394Z" fill="#F0F0F0"/>
<path d="M71.9953 249.674L63.4727 226.03H76.5948L85.11 249.674H71.9953Z" fill="#F0F0F0"/>
<path d="M57.1289 226.03H60.0074L68.53 249.674H65.6516L57.1289 226.03Z" fill="#F0F0F0"/>
<path d="M187.457 206.024V203.634H118.968V206.024H187.457Z" fill="#E0E0E0"/>
<path d="M187.457 229.48V227.09H118.968V229.48H187.457Z" fill="#E0E0E0"/>
<path d="M151.465 217.237C151.323 217.249 151.18 217.232 151.045 217.186C150.91 217.14 150.786 217.066 150.681 216.97C150.576 216.873 150.492 216.756 150.435 216.626C150.377 216.495 150.348 216.354 150.348 216.211C150.348 216.069 150.377 215.928 150.435 215.797C150.492 215.666 150.576 215.549 150.681 215.453C150.786 215.356 150.91 215.283 151.045 215.237C151.18 215.191 151.323 215.173 151.465 215.185H154.967C155.11 215.173 155.253 215.191 155.388 215.237C155.523 215.283 155.647 215.356 155.752 215.453C155.857 215.549 155.941 215.666 155.998 215.797C156.055 215.928 156.085 216.069 156.085 216.211C156.085 216.354 156.055 216.495 155.998 216.626C155.941 216.756 155.857 216.873 155.752 216.97C155.647 217.066 155.523 217.14 155.388 217.186C155.253 217.232 155.11 217.249 154.967 217.237H151.465Z" fill="#E6E6E6"/>
<path d="M151.465 216.876C151.323 216.888 151.18 216.871 151.045 216.824C150.91 216.778 150.786 216.705 150.681 216.608C150.576 216.512 150.492 216.395 150.435 216.264C150.377 216.134 150.348 215.993 150.348 215.85C150.348 215.707 150.377 215.566 150.435 215.436C150.492 215.305 150.576 215.188 150.681 215.091C150.786 214.995 150.91 214.921 151.045 214.875C151.18 214.829 151.323 214.812 151.465 214.824H154.967C155.11 214.812 155.253 214.829 155.388 214.875C155.523 214.921 155.647 214.995 155.752 215.091C155.857 215.188 155.941 215.305 155.998 215.436C156.055 215.566 156.085 215.707 156.085 215.85C156.085 215.993 156.055 216.134 155.998 216.264C155.941 216.395 155.857 216.512 155.752 216.608C155.647 216.705 155.523 216.778 155.388 216.824C155.253 216.871 155.11 216.888 154.967 216.876H151.465Z" fill="#E0E0E0"/>
<path d="M151.465 239.062C151.323 239.075 151.18 239.057 151.045 239.011C150.91 238.965 150.786 238.891 150.681 238.795C150.576 238.699 150.492 238.581 150.435 238.451C150.377 238.32 150.348 238.179 150.348 238.036C150.348 237.894 150.377 237.753 150.435 237.622C150.492 237.492 150.576 237.374 150.681 237.278C150.786 237.182 150.91 237.108 151.045 237.062C151.18 237.016 151.323 236.998 151.465 237.011H154.967C155.11 236.998 155.253 237.016 155.388 237.062C155.523 237.108 155.647 237.182 155.752 237.278C155.857 237.374 155.941 237.492 155.998 237.622C156.055 237.753 156.085 237.894 156.085 238.036C156.085 238.179 156.055 238.32 155.998 238.451C155.941 238.581 155.857 238.699 155.752 238.795C155.647 238.891 155.523 238.965 155.388 239.011C155.253 239.057 155.11 239.075 154.967 239.062H151.465Z" fill="#E6E6E6"/>
<path d="M151.467 238.701C151.194 238.701 150.932 238.592 150.739 238.399C150.546 238.206 150.438 237.944 150.438 237.671C150.438 237.398 150.546 237.136 150.739 236.943C150.932 236.75 151.194 236.642 151.467 236.642H154.969C155.242 236.642 155.504 236.75 155.697 236.943C155.891 237.136 155.999 237.398 155.999 237.671C155.999 237.944 155.891 238.206 155.697 238.399C155.504 238.592 155.242 238.701 154.969 238.701H151.467Z" fill="#E0E0E0"/>
<path d="M117.773 201.334V250.704H188.66V201.334H117.773ZM120.171 227.285H186.263V248.329H120.171V227.285ZM120.171 203.859H186.263V224.903H120.171V203.859Z" fill="#F5F5F5"/>
<path d="M116.578 206.024V203.634H48.0888V206.024H116.578Z" fill="#E0E0E0"/>
<path d="M116.578 229.48V227.09H48.0888V229.48H116.578Z" fill="#E0E0E0"/>
<path d="M80.5785 217.236C80.3215 217.214 80.0822 217.097 79.9079 216.907C79.7335 216.717 79.6367 216.468 79.6367 216.21C79.6367 215.953 79.7335 215.704 79.9079 215.514C80.0822 215.324 80.3215 215.207 80.5785 215.185H84.0882C84.3452 215.207 84.5845 215.324 84.7588 215.514C84.9332 215.704 85.03 215.953 85.03 216.21C85.03 216.468 84.9332 216.717 84.7588 216.907C84.5845 217.097 84.3452 217.214 84.0882 217.236H80.5785Z" fill="#E6E6E6"/>
<path d="M80.5785 216.876C80.3215 216.854 80.0822 216.736 79.9079 216.546C79.7335 216.356 79.6367 216.108 79.6367 215.85C79.6367 215.592 79.7335 215.344 79.9079 215.154C80.0822 214.964 80.3215 214.846 80.5785 214.824H84.0882C84.3452 214.846 84.5845 214.964 84.7588 215.154C84.9332 215.344 85.03 215.592 85.03 215.85C85.03 216.108 84.9332 216.356 84.7588 216.546C84.5845 216.736 84.3452 216.854 84.0882 216.876H80.5785Z" fill="#E0E0E0"/>
<path d="M80.5785 239.062C80.3215 239.04 80.0822 238.922 79.9079 238.732C79.7335 238.542 79.6367 238.294 79.6367 238.036C79.6367 237.778 79.7335 237.529 79.9079 237.339C80.0822 237.149 80.3215 237.032 80.5785 237.01H84.0882C84.3452 237.032 84.5845 237.149 84.7588 237.339C84.9332 237.529 85.03 237.778 85.03 238.036C85.03 238.294 84.9332 238.542 84.7588 238.732C84.5845 238.922 84.3452 239.04 84.0882 239.062H80.5785Z" fill="#E6E6E6"/>
<path d="M80.5804 238.701C80.3073 238.701 80.0455 238.592 79.8524 238.399C79.6593 238.206 79.5508 237.944 79.5508 237.671C79.5508 237.398 79.6593 237.136 79.8524 236.943C80.0455 236.75 80.3073 236.642 80.5804 236.642H84.0902C84.3633 236.642 84.6252 236.75 84.8182 236.943C85.0113 237.136 85.1198 237.398 85.1198 237.671C85.1198 237.944 85.0113 238.206 84.8182 238.399C84.6252 238.592 84.3633 238.701 84.0902 238.701H80.5804Z" fill="#E0E0E0"/>
<path d="M46.8945 201.334V250.704H117.774V201.334H46.8945ZM49.2845 227.285H115.384V248.329H49.2845V227.285ZM49.2845 203.859H115.384V224.903H49.2845V203.859Z" fill="#F5F5F5"/>
<path d="M56.3498 253.987H50.0668L49.2852 250.703H57.1314L56.3498 253.987Z" fill="#E0E0E0"/>
<path d="M185.182 253.987H178.906L178.117 250.703H185.963L185.182 253.987Z" fill="#E0E0E0"/>
<path d="M69.0859 179.171C69.0859 177.262 71.3406 175.638 74.4521 175.082L71.3707 171.407H89.6636L86.5822 175.082C89.6936 175.638 91.9483 177.262 91.9483 179.171C91.9483 181.283 89.2201 196.712 85.6127 200.109L86.1012 200.688C86.149 200.758 86.1775 200.839 86.184 200.923C86.1905 201.007 86.1746 201.092 86.1381 201.168C86.1015 201.244 86.0455 201.309 85.9757 201.357C85.9059 201.405 85.8247 201.433 85.7404 201.439H75.3013C75.2164 201.434 75.1343 201.407 75.0635 201.36C74.9927 201.312 74.9357 201.247 74.8982 201.171C74.8608 201.095 74.8443 201.01 74.8504 200.925C74.8565 200.84 74.885 200.758 74.933 200.688L75.4216 200.109C71.8216 196.712 69.0859 181.283 69.0859 179.171Z" fill="#F0F0F0"/>
<path d="M103.66 192.608H78.5508C78.5508 195.134 80.8656 197.351 84.3528 198.621L83.6012 201.469H98.5647L97.8508 198.621C101.345 197.351 103.66 195.134 103.66 192.608Z" fill="#E6E6E6"/>
<path d="M184.376 284.997C264.854 284.997 330.095 281.188 330.095 276.489C330.095 271.79 264.854 267.981 184.376 267.981C103.897 267.981 38.6562 271.79 38.6562 276.489C38.6562 281.188 103.897 284.997 184.376 284.997Z" fill="#F5F5F5"/>
<path d="M250.446 23.1172H78.3842C75.3998 23.1172 72.9805 25.5365 72.9805 28.5209V147.943C72.9805 150.928 75.3998 153.347 78.3842 153.347H250.446C253.43 153.347 255.849 150.928 255.849 147.943V28.5209C255.849 25.5365 253.43 23.1172 250.446 23.1172Z" fill="#049F67"/>
<path opacity="0.5" d="M250.446 23.1172H78.3842C75.3998 23.1172 72.9805 25.5365 72.9805 28.5209V147.943C72.9805 150.928 75.3998 153.347 78.3842 153.347H250.446C253.43 153.347 255.849 150.928 255.849 147.943V28.5209C255.849 25.5365 253.43 23.1172 250.446 23.1172Z" fill="white"/>
<path opacity="0.5" d="M249.783 41.6885H79.052C78.0309 41.6885 77.2031 42.5162 77.2031 43.5373V147.282C77.2031 148.303 78.0309 149.131 79.052 149.131H249.783C250.804 149.131 251.632 148.303 251.632 147.282V43.5373C251.632 42.5162 250.804 41.6885 249.783 41.6885Z" fill="white"/>
<path opacity="0.3" d="M225.78 28.1826H222.338C221.114 28.1826 220.121 29.1752 220.121 30.3997V33.8418C220.121 35.0663 221.114 36.0589 222.338 36.0589H225.78C227.005 36.0589 227.997 35.0663 227.997 33.8418V30.3997C227.997 29.1752 227.005 28.1826 225.78 28.1826Z" fill="white"/>
<path opacity="0.5" d="M237.593 28.1826H234.151C232.926 28.1826 231.934 29.1752 231.934 30.3997V33.8418C231.934 35.0663 232.926 36.0589 234.151 36.0589H237.593C238.817 36.0589 239.81 35.0663 239.81 33.8418V30.3997C239.81 29.1752 238.817 28.1826 237.593 28.1826Z" fill="white"/>
<path opacity="0.8" d="M249.417 28.1826H245.975C244.75 28.1826 243.758 29.1752 243.758 30.3997V33.8418C243.758 35.0663 244.75 36.0589 245.975 36.0589H249.417C250.642 36.0589 251.634 35.0663 251.634 33.8418V30.3997C251.634 29.1752 250.642 28.1826 249.417 28.1826Z" fill="white"/>
<path d="M85.4176 26.6348H79.9613C78.438 26.6348 77.2031 27.8697 77.2031 29.393V34.8493C77.2031 36.3726 78.438 37.6075 79.9613 37.6075H85.4176C86.941 37.6075 88.1759 36.3726 88.1759 34.8493V29.393C88.1759 27.8697 86.941 26.6348 85.4176 26.6348Z" fill="#049F67"/>
<path opacity="0.8" d="M238.768 48.4375H117.084C115.415 48.4375 114.062 49.7902 114.062 51.4588V58.3581C114.062 60.0266 115.415 61.3793 117.084 61.3793H238.768C240.437 61.3793 241.79 60.0266 241.79 58.3581V51.4588C241.79 49.7902 240.437 48.4375 238.768 48.4375Z" fill="white"/>
<path opacity="0.8" d="M238.768 65.6025H117.084C115.415 65.6025 114.062 66.9552 114.062 68.6238V75.5231C114.062 77.1917 115.415 78.5443 117.084 78.5443H238.768C240.437 78.5443 241.79 77.1917 241.79 75.5231V68.6238C241.79 66.9552 240.437 65.6025 238.768 65.6025Z" fill="white"/>
<path opacity="0.8" d="M238.768 85.5645H117.084C115.415 85.5645 114.062 86.9171 114.062 88.5857V138.88C114.062 140.548 115.415 141.901 117.084 141.901H238.768C240.437 141.901 241.79 140.548 241.79 138.88V88.5857C241.79 86.9171 240.437 85.5645 238.768 85.5645Z" fill="white"/>
<path d="M238.4 85.5645H117.452C115.58 85.5645 114.062 87.082 114.062 88.954V93.4783C114.062 95.3503 115.58 96.8679 117.452 96.8679H238.4C240.272 96.8679 241.79 95.3503 241.79 93.4783V88.954C241.79 87.082 240.272 85.5645 238.4 85.5645Z" fill="#049F67"/>
<path opacity="0.5" d="M238.4 85.5645H117.452C115.58 85.5645 114.062 87.082 114.062 88.954V93.4783C114.062 95.3503 115.58 96.8679 117.452 96.8679H238.4C240.272 96.8679 241.79 95.3503 241.79 93.4783V88.954C241.79 87.082 240.272 85.5645 238.4 85.5645Z" fill="white"/>
<path opacity="0.5" d="M162.468 87.3301H157.523C156.755 87.3301 156.133 87.9526 156.133 88.7205V93.6657C156.133 94.4336 156.755 95.0561 157.523 95.0561H162.468C163.236 95.0561 163.859 94.4336 163.859 93.6657V88.7205C163.859 87.9526 163.236 87.3301 162.468 87.3301Z" fill="white"/>
<path opacity="0.5" d="M173.508 87.3301H168.562C167.794 87.3301 167.172 87.9526 167.172 88.7205V93.6657C167.172 94.4336 167.794 95.0561 168.562 95.0561H173.508C174.275 95.0561 174.898 94.4336 174.898 93.6657V88.7205C174.898 87.9526 174.275 87.3301 173.508 87.3301Z" fill="white"/>
<path opacity="0.5" d="M184.691 87.3301H179.746C178.978 87.3301 178.355 87.9526 178.355 88.7205V93.6657C178.355 94.4336 178.978 95.0561 179.746 95.0561H184.691C185.459 95.0561 186.081 94.4336 186.081 93.6657V88.7205C186.081 87.9526 185.459 87.3301 184.691 87.3301Z" fill="white"/>
<path d="M87.0802 53.2617H85.9453V52.5928H89.0342V53.2617H87.8994V56.1401H87.0802V53.2617Z" fill="#263238"/>
<path d="M90.1464 55.9905C89.9317 55.8726 89.7429 55.7127 89.5912 55.5203C89.4396 55.3279 89.3282 55.107 89.2637 54.8707C89.1992 54.6344 89.1829 54.3875 89.2157 54.1448C89.2486 53.9021 89.3299 53.6684 89.4549 53.4578C89.6225 53.1798 89.8612 52.9515 90.1464 52.7964C90.4552 52.6451 90.7945 52.5664 91.1384 52.5664C91.4823 52.5664 91.8217 52.6451 92.1305 52.7964C92.4177 52.9513 92.6589 53.1795 92.8294 53.4578C92.9922 53.7441 93.0777 54.0678 93.0777 54.3972C93.0777 54.7266 92.9922 55.0503 92.8294 55.3366C92.6608 55.6145 92.419 55.8407 92.1305 55.9905C91.8237 56.1487 91.4836 56.2312 91.1384 56.2312C90.7933 56.2312 90.4531 56.1487 90.1464 55.9905ZM91.7096 55.3817C91.8773 55.2892 92.0154 55.1511 92.1079 54.9834C92.2062 54.8039 92.2554 54.6018 92.2507 54.3972C92.2561 54.1926 92.2069 53.9902 92.1079 53.811C92.0134 53.6428 91.8759 53.5028 91.7096 53.4051C91.5351 53.3081 91.3381 53.2589 91.1384 53.2624C90.9411 53.2588 90.7465 53.3081 90.5747 53.4051C90.4068 53.5007 90.2688 53.6412 90.1764 53.811C90.0775 53.9902 90.0282 54.1926 90.0336 54.3972C90.0289 54.6018 90.0782 54.8039 90.1764 54.9834C90.2668 55.1527 90.4055 55.2913 90.5747 55.3817C90.7459 55.4811 90.9405 55.533 91.1384 55.5321C91.3415 55.5242 91.5388 55.4619 91.7096 55.3517V55.3817Z" fill="#263238"/>
<path d="M86.6977 73.2761C86.4693 73.219 86.2547 73.1168 86.0664 72.9755L86.3445 72.3592C86.5103 72.476 86.6927 72.5672 86.8856 72.6298C87.0896 72.6952 87.3027 72.7282 87.5169 72.7275C87.6953 72.7402 87.8739 72.7065 88.0355 72.6298C88.085 72.6021 88.1264 72.5618 88.1555 72.5129C88.1845 72.4641 88.2001 72.4085 88.2008 72.3517C88.2023 72.3114 88.1942 72.2714 88.1772 72.2348C88.1603 72.1982 88.1349 72.1662 88.1031 72.1413C88.0258 72.0827 87.9395 72.0371 87.8476 72.006L87.4342 71.8933C87.2078 71.8436 86.9845 71.7809 86.7654 71.7054C86.5962 71.6374 86.4446 71.532 86.3219 71.3972C86.195 71.2348 86.131 71.032 86.1416 70.8261C86.1386 70.6281 86.1963 70.4341 86.3069 70.2699C86.4309 70.0896 86.6064 69.9508 86.8104 69.8716C87.0703 69.7658 87.3492 69.7146 87.6296 69.7213C87.8551 69.7219 88.0797 69.7497 88.2985 69.8039C88.4972 69.8525 88.6872 69.9311 88.8622 70.0369L88.6142 70.6607C88.316 70.4836 87.9765 70.3877 87.6296 70.3826C87.452 70.3698 87.2744 70.4089 87.1186 70.4954C87.0678 70.5256 87.0259 70.5685 86.9969 70.6199C86.9679 70.6713 86.9528 70.7294 86.9532 70.7885C86.9538 70.8472 86.9721 70.9044 87.0056 70.9527C87.0391 71.0009 87.0863 71.038 87.1411 71.059C87.3305 71.1354 87.5268 71.1932 87.7273 71.2319C87.9516 71.2836 88.1724 71.3488 88.3887 71.4273C88.5588 71.4899 88.711 71.5931 88.8321 71.7279C88.9604 71.8868 89.0247 72.0878 89.0125 72.2916C89.0145 72.4894 88.9569 72.6832 88.8472 72.8477C88.7182 73.0265 88.5409 73.1647 88.3361 73.2461C88.073 73.3491 87.7918 73.3977 87.5094 73.3889C87.2349 73.3894 86.9617 73.3514 86.6977 73.2761Z" fill="#263238"/>
<path d="M89.9655 72.9379C89.6767 72.6205 89.5254 72.2016 89.5446 71.773V69.7888H90.3638V71.7429C90.3638 72.3817 90.6268 72.6974 91.1153 72.6974C91.2253 72.7044 91.3355 72.6873 91.4382 72.647C91.5408 72.6067 91.6332 72.5444 91.7091 72.4644C91.8696 72.2487 91.9422 71.98 91.912 71.7128V69.7588H92.7162V71.773C92.7408 71.9902 92.7165 72.2101 92.6451 72.4167C92.5737 72.6233 92.4569 72.8113 92.3035 72.967C92.15 73.1226 91.9636 73.2419 91.758 73.3162C91.5525 73.3905 91.3329 73.4179 91.1153 73.3963C90.6865 73.4014 90.2732 73.2366 89.9655 72.9379Z" fill="#263238"/>
<path d="M96.6478 71.7731C96.7648 71.9345 96.8255 72.1299 96.8206 72.3292C96.8325 72.4752 96.8053 72.6218 96.7419 72.7538C96.6786 72.8859 96.5812 72.9987 96.4599 73.0808C96.1387 73.2658 95.7701 73.352 95.4002 73.3288H93.5664V69.7815H95.3025C95.6508 69.7603 95.9972 69.8468 96.2946 70.0295C96.4071 70.1013 96.4984 70.2019 96.5592 70.3208C96.6199 70.4397 96.6479 70.5726 96.6403 70.7059C96.6445 70.867 96.6028 71.026 96.52 71.1643C96.4337 71.2994 96.3148 71.4105 96.1743 71.4875C96.3567 71.5343 96.5213 71.6336 96.6478 71.7731ZM94.3931 70.3752V71.2094H95.2048C95.3646 71.2195 95.5238 71.1829 95.6633 71.1042C95.7139 71.069 95.7549 71.0217 95.7824 70.9665C95.81 70.9113 95.8233 70.8502 95.8211 70.7885C95.8248 70.7267 95.8121 70.665 95.7844 70.6096C95.7567 70.5542 95.7149 70.507 95.6633 70.4729C95.5229 70.3972 95.3638 70.3633 95.2048 70.3752H94.3931ZM95.8361 72.5773C95.8909 72.5422 95.9353 72.4929 95.9644 72.4347C95.9935 72.3765 96.0063 72.3115 96.0014 72.2466C96.0014 71.9535 95.7835 71.8031 95.3476 71.8031H94.3931V72.6825H95.3476C95.5144 72.6904 95.6803 72.6541 95.8286 72.5773H95.8361Z" fill="#263238"/>
<path d="M97.4374 73.2232C97.2425 73.1391 97.0719 73.0073 96.9414 72.8399L97.3999 72.2988C97.4689 72.4115 97.5648 72.5054 97.6788 72.5723C97.7928 72.6391 97.9216 72.6768 98.0537 72.6821C98.3919 72.6821 98.5573 72.4866 98.5573 72.0958V70.4124H97.3097V69.751H99.3689V72.0507C99.3833 72.2281 99.362 72.4065 99.3065 72.5756C99.2511 72.7446 99.1624 72.9009 99.0458 73.0353C98.9178 73.1501 98.768 73.2379 98.6052 73.2934C98.4425 73.3489 98.2703 73.3711 98.0988 73.3585C97.8712 73.3616 97.6456 73.3154 97.4374 73.2232Z" fill="#263238"/>
<path d="M102.923 72.637V73.2759H100.18V69.7285H102.863V70.3899H100.999V71.1414H102.645V71.7803H100.999V72.5995L102.923 72.637Z" fill="#263238"/>
<path d="M104.284 73.1254C103.999 72.975 103.763 72.7486 103.6 72.4716C103.426 72.1867 103.337 71.8582 103.344 71.5246C103.339 71.1912 103.427 70.863 103.6 70.5777C103.761 70.301 103.998 70.0767 104.284 69.9313C104.586 69.7701 104.925 69.6874 105.268 69.6908C105.555 69.6852 105.839 69.7416 106.102 69.8562C106.345 69.958 106.559 70.1181 106.726 70.3221L106.2 70.8031C106.092 70.6728 105.956 70.5682 105.803 70.4967C105.65 70.4252 105.482 70.3887 105.313 70.3898C105.109 70.3871 104.907 70.4362 104.727 70.5326C104.557 70.6276 104.416 70.7681 104.321 70.9384C104.228 71.1196 104.179 71.3206 104.179 71.5246C104.179 71.7286 104.228 71.9296 104.321 72.1108C104.416 72.2811 104.557 72.4216 104.727 72.5167C104.97 72.6547 105.254 72.7025 105.529 72.6516C105.804 72.6008 106.052 72.4545 106.23 72.2386L106.756 72.7271C106.59 72.9312 106.375 73.0912 106.132 73.1931C105.869 73.3076 105.585 73.364 105.298 73.3584C104.946 73.3696 104.596 73.2893 104.284 73.1254Z" fill="#263238"/>
<path d="M107.982 70.4199H106.832V69.751H109.921V70.4199H108.786V73.2758H107.967L107.982 70.4199Z" fill="#263238"/>
<path d="M89.4251 106.66C89.5422 106.822 89.6029 107.017 89.598 107.216C89.6106 107.362 89.5838 107.509 89.5204 107.641C89.4569 107.774 89.3591 107.886 89.2372 107.968C88.9186 108.16 88.5486 108.249 88.1776 108.223H86.3438V104.676H88.0799C88.4282 104.655 88.7745 104.741 89.0719 104.924C89.1844 104.996 89.2757 105.096 89.3365 105.215C89.3973 105.334 89.4253 105.467 89.4176 105.6C89.4219 105.762 89.3801 105.921 89.2974 106.059C89.2111 106.194 89.0922 106.305 88.9517 106.382C89.1349 106.422 89.3007 106.52 89.4251 106.66ZM87.1705 105.255V106.089H87.9821C88.1445 106.101 88.3069 106.065 88.4481 105.984C88.4984 105.95 88.5388 105.904 88.5652 105.85C88.5916 105.796 88.6031 105.736 88.5984 105.676C88.6037 105.614 88.5925 105.553 88.5661 105.497C88.5397 105.442 88.499 105.394 88.4481 105.36C88.3056 105.282 88.1442 105.246 87.9821 105.255H87.1705ZM88.6135 107.457C88.6677 107.423 88.7117 107.375 88.7408 107.318C88.7699 107.261 88.7831 107.197 88.7788 107.134C88.7788 106.84 88.5608 106.69 88.1249 106.69H87.1705V107.569H88.1249C88.2929 107.58 88.4603 107.541 88.6059 107.457H88.6135Z" fill="#263238"/>
<path d="M90.9433 108.005C90.6548 107.856 90.413 107.629 90.2444 107.352C90.0816 107.065 89.9961 106.742 89.9961 106.412C89.9961 106.083 90.0816 105.759 90.2444 105.473C90.413 105.195 90.6548 104.969 90.9433 104.819C91.2501 104.661 91.5902 104.578 91.9354 104.578C92.2805 104.578 92.6207 104.661 92.9274 104.819C93.2144 104.971 93.4557 105.196 93.6264 105.473C93.7891 105.759 93.8747 106.083 93.8747 106.412C93.8747 106.742 93.7891 107.065 93.6264 107.352C93.4557 107.628 93.2144 107.854 92.9274 108.005C92.6207 108.164 92.2805 108.246 91.9354 108.246C91.5902 108.246 91.2501 108.164 90.9433 108.005ZM92.5066 107.404C92.6729 107.307 92.8104 107.167 92.9049 106.998C92.9985 106.817 93.0473 106.616 93.0473 106.412C93.0473 106.208 92.9985 106.007 92.9049 105.826C92.8104 105.658 92.6729 105.518 92.5066 105.42C92.332 105.323 92.135 105.274 91.9354 105.277C91.738 105.273 91.5431 105.322 91.3717 105.42C91.2037 105.516 91.0658 105.656 90.9734 105.826C90.8798 106.007 90.831 106.208 90.831 106.412C90.831 106.616 90.8798 106.817 90.9734 106.998C91.0658 107.168 91.2037 107.309 91.3717 107.404C91.5445 107.499 91.7384 107.548 91.9354 107.547C92.1346 107.547 92.3308 107.498 92.5066 107.404Z" fill="#263238"/>
<path d="M94.4883 104.639H96.1041C96.4569 104.634 96.8063 104.708 97.1262 104.857C97.4085 104.996 97.6456 105.212 97.8102 105.481C97.9796 105.762 98.0656 106.085 98.0582 106.413C98.0648 106.74 97.9788 107.063 97.8102 107.345C97.6455 107.611 97.4082 107.825 97.1262 107.961C96.8079 108.115 96.4578 108.192 96.1041 108.186H94.4883V104.639ZM96.059 107.51C96.3694 107.526 96.6737 107.421 96.9083 107.217C97.0144 107.112 97.0974 106.987 97.1518 106.848C97.2062 106.71 97.2308 106.561 97.2239 106.413C97.2317 106.264 97.2076 106.115 97.1531 105.976C97.0987 105.838 97.0152 105.712 96.9083 105.608C96.6737 105.405 96.3694 105.3 96.059 105.315H95.3075V107.51H96.059Z" fill="#263238"/>
<path d="M100.226 106.931V108.186H99.4066V106.916L98.0312 104.661H98.9031L99.85 106.239L100.797 104.661H101.571L100.226 106.931Z" fill="#263238"/>
<path d="M121.492 91.7644C121.613 91.9236 121.674 92.1206 121.665 92.3205C121.671 92.4604 121.641 92.5995 121.577 92.7245C121.514 92.8495 121.42 92.9562 121.304 93.0345C120.985 93.2193 120.619 93.3056 120.252 93.2825H118.418V89.7427H120.147C120.497 89.7204 120.846 89.807 121.146 89.9907C121.257 90.0619 121.348 90.1613 121.409 90.2787C121.469 90.3962 121.498 90.5275 121.492 90.6596C121.493 90.8237 121.449 90.985 121.364 91.1255C121.282 91.2619 121.162 91.3715 121.018 91.4412C121.206 91.497 121.372 91.61 121.492 91.7644ZM119.237 90.359V91.1932H120.056C120.216 91.2024 120.375 91.1659 120.515 91.088C120.565 91.0528 120.606 91.0054 120.634 90.9503C120.662 90.8951 120.675 90.8339 120.673 90.7723C120.676 90.7116 120.663 90.6512 120.635 90.5971C120.607 90.543 120.566 90.4971 120.515 90.4642C120.377 90.381 120.217 90.3441 120.056 90.359H119.237ZM120.688 92.561C120.741 92.5243 120.784 92.4747 120.813 92.4169C120.842 92.3591 120.856 92.2949 120.853 92.2303C120.853 91.9372 120.628 91.7869 120.199 91.7869H119.23V92.6662H120.192C120.361 92.6748 120.529 92.6385 120.68 92.561H120.688Z" fill="#263238"/>
<path d="M123.01 93.1096C122.721 92.9555 122.48 92.7244 122.314 92.4419C122.148 92.1593 122.064 91.8363 122.071 91.5088C122.067 91.179 122.153 90.8543 122.319 90.5693C122.485 90.292 122.724 90.0657 123.01 89.9155C123.318 89.7542 123.662 89.6716 124.01 89.675C124.355 89.6706 124.696 89.7533 125.002 89.9155C125.288 90.0657 125.527 90.292 125.693 90.5693C125.861 90.8537 125.95 91.1783 125.949 91.5088C125.952 91.8395 125.863 92.1645 125.693 92.4482C125.528 92.7278 125.288 92.9566 125.002 93.1096C124.696 93.2691 124.355 93.3492 124.01 93.3426C123.662 93.3486 123.319 93.2685 123.01 93.1096ZM124.573 92.5008C124.739 92.4061 124.877 92.2685 124.972 92.1025C125.065 91.9199 125.114 91.7177 125.114 91.5125C125.114 91.3073 125.065 91.1051 124.972 90.9225C124.881 90.7533 124.743 90.6146 124.573 90.5242C124.402 90.4249 124.208 90.373 124.01 90.3739C123.809 90.3727 123.612 90.4246 123.439 90.5242C123.271 90.6167 123.133 90.7548 123.04 90.9225C122.947 91.1051 122.898 91.3073 122.898 91.5125C122.898 91.7177 122.947 91.9199 123.04 92.1025C123.138 92.2718 123.28 92.4116 123.45 92.5069C123.621 92.6021 123.814 92.6494 124.01 92.6436C124.207 92.6472 124.402 92.5979 124.573 92.5008Z" fill="#263238"/>
<path d="M126.566 89.7428H128.175C128.528 89.7344 128.878 89.8091 129.197 89.9608C129.481 90.0968 129.721 90.3105 129.888 90.5771C130.051 90.8603 130.134 91.1823 130.129 91.509C130.136 91.8359 130.053 92.1584 129.888 92.4409C129.721 92.7097 129.481 92.9259 129.197 93.0647C128.877 93.2141 128.528 93.2886 128.175 93.2827H126.566V89.7428ZM128.137 92.6138C128.448 92.6266 128.753 92.5189 128.986 92.3131C129.093 92.2094 129.177 92.0839 129.231 91.9452C129.286 91.8065 129.31 91.6578 129.302 91.509C129.31 91.3613 129.286 91.2137 129.231 91.0763C129.177 90.9388 129.093 90.8147 128.986 90.7123C128.872 90.6087 128.738 90.5288 128.592 90.4772C128.446 90.4256 128.292 90.4033 128.137 90.4117H127.386V92.6138H128.137Z" fill="#263238"/>
<path d="M132.3 92.0649V93.32H131.473V92.0574L130.105 89.8027H130.977L131.924 91.3735L132.871 89.8027H133.675L132.3 92.0649Z" fill="#263238"/>
<path d="M147.694 89.7432V93.283H146.874V90.397H146.168V89.7432H147.694Z" fill="#263238"/>
<path d="M150.962 92.6138V93.2827H148.287V92.7491L149.67 91.4639C149.787 91.3595 149.889 91.2379 149.97 91.1032C150.016 91.012 150.042 90.9121 150.045 90.8101C150.048 90.747 150.036 90.6841 150.01 90.6266C149.984 90.5691 149.945 90.5186 149.895 90.4794C149.772 90.3948 149.623 90.355 149.474 90.3667C149.33 90.3591 149.185 90.3873 149.054 90.449C148.923 90.5106 148.809 90.6037 148.723 90.7199L148.129 90.3366C148.272 90.1269 148.469 89.9605 148.7 89.8556C148.96 89.731 149.246 89.6692 149.534 89.6752C149.772 89.6699 150.008 89.716 150.226 89.8105C150.413 89.8828 150.575 90.0082 150.692 90.1712C150.799 90.3367 150.854 90.5304 150.85 90.7274C150.853 90.9147 150.812 91.1002 150.729 91.2685C150.613 91.4899 150.455 91.6864 150.263 91.8472L149.444 92.5988L150.962 92.6138Z" fill="#263238"/>
<path d="M161.527 91.667C161.436 91.5509 161.32 91.4561 161.189 91.3889C161.275 91.3219 161.349 91.2405 161.407 91.1484C161.499 90.9914 161.546 90.8119 161.542 90.6298C161.545 90.4819 161.511 90.3356 161.442 90.2044C161.374 90.0731 161.274 89.961 161.151 89.8783C160.835 89.6861 160.468 89.5943 160.099 89.6152H158.258V93.373H160.189C160.581 93.3965 160.971 93.3022 161.309 93.1024C161.441 93.0152 161.547 92.8951 161.619 92.7541C161.69 92.6131 161.723 92.456 161.715 92.2983C161.725 92.0727 161.659 91.8504 161.527 91.667ZM159.272 91.8624H160.122C160.67 91.8624 160.67 92.1104 160.67 92.2006C160.674 92.247 160.665 92.2935 160.645 92.3356C160.626 92.3777 160.595 92.4141 160.558 92.4411C160.423 92.5097 160.272 92.5409 160.122 92.5313H159.287L159.272 91.8624ZM160.385 90.968C160.261 91.0356 160.12 91.0669 159.979 91.0582H159.272V90.4344H159.979C160.119 90.4268 160.259 90.4552 160.385 90.5171C160.418 90.5446 160.444 90.579 160.463 90.618C160.481 90.657 160.491 90.6995 160.491 90.7426C160.491 90.7856 160.481 90.8281 160.463 90.8671C160.444 90.9061 160.418 90.9405 160.385 90.968Z" fill="#263238"/>
<path d="M170.998 89.7129H171.825L171.073 93.2527H170.254L170.998 89.7129Z" fill="#263238"/>
<path d="M181.038 92.1776C180.89 92.0161 180.776 91.8263 180.704 91.6196C180.632 91.4129 180.602 91.1936 180.617 90.9751V88.991H181.436V90.945C181.436 91.5764 181.699 91.8995 182.188 91.8995C182.297 91.9055 182.405 91.8877 182.507 91.8475C182.608 91.8073 182.699 91.7455 182.774 91.6665C182.935 91.4508 183.007 91.1822 182.977 90.915V88.9609H183.789V90.945C183.802 91.1634 183.772 91.3822 183.699 91.5887C183.627 91.7951 183.514 91.9851 183.368 92.1475C183.208 92.2933 183.02 92.4056 182.817 92.4779C182.613 92.5501 182.396 92.5809 182.18 92.5684C181.763 92.5914 181.354 92.4513 181.038 92.1776Z" fill="#263238"/>
<path d="M225.973 91.0651L227.093 89.9378C227.335 89.6954 227.471 89.367 227.471 89.0246C227.471 88.6822 227.335 88.3538 227.093 88.1115L226.732 87.7507C226.49 87.5089 226.161 87.373 225.819 87.373C225.477 87.373 225.148 87.5089 224.906 87.7507L223.778 88.8706C223.558 89.0965 223.427 89.395 223.411 89.7104C223.394 90.0257 223.493 90.3362 223.688 90.5841L223.004 91.2755C222.758 91.0768 222.447 90.9761 222.13 90.9928C221.814 91.0094 221.515 91.1422 221.291 91.3657L220.164 92.4856C219.921 92.7292 219.785 93.0588 219.785 93.4025C219.785 93.7461 219.921 94.0757 220.164 94.3194L220.524 94.6801C220.768 94.9224 221.098 95.0584 221.441 95.0584C221.785 95.0584 222.114 94.9224 222.358 94.6801L223.478 93.5528C223.701 93.3297 223.833 93.032 223.85 92.717C223.867 92.4021 223.766 92.0921 223.568 91.8467L224.259 91.1553C224.507 91.3509 224.818 91.4496 225.133 91.433C225.449 91.4164 225.747 91.2856 225.973 91.0651ZM224.35 89.4417L225.477 88.3219C225.568 88.2324 225.691 88.1823 225.819 88.1823C225.947 88.1823 226.07 88.2324 226.161 88.3219L226.522 88.6827C226.611 88.774 226.661 88.8968 226.661 89.0246C226.661 89.1525 226.611 89.2753 226.522 89.3666L225.402 90.4939C225.328 90.564 225.234 90.6095 225.133 90.6243C225.032 90.639 224.929 90.6224 224.838 90.5766L225.011 90.4037L224.44 89.8326L224.267 90.0054C224.221 89.9143 224.205 89.8114 224.219 89.7105C224.234 89.6097 224.28 89.5158 224.35 89.4417ZM222.907 92.9816L221.787 94.1089C221.694 94.1989 221.57 94.2492 221.441 94.2492C221.312 94.2492 221.188 94.1989 221.095 94.1089L220.735 93.7482C220.645 93.6556 220.594 93.5316 220.594 93.4025C220.594 93.2733 220.645 93.1493 220.735 93.0567L221.862 91.9369C221.934 91.8665 222.027 91.8207 222.127 91.8059C222.227 91.791 222.329 91.8079 222.418 91.8542L222.2 92.0722L222.771 92.6434L222.989 92.4254C223.036 92.5151 223.053 92.617 223.038 92.7168C223.023 92.8167 222.977 92.9093 222.907 92.9816Z" fill="#263238"/>
<path d="M213.935 87.8115H208.238V88.6533H213.935V87.8115Z" fill="#263238"/>
<path d="M215.618 89.8027H206.547V90.6445H215.618V89.8027Z" fill="#263238"/>
<path d="M213.935 91.7871H208.238V92.6288H213.935V91.7871Z" fill="#263238"/>
<path d="M214.778 93.7715H207.391V94.6132H214.778V93.7715Z" fill="#263238"/>
<path d="M192.9 88.2316C192.902 88.3939 192.855 88.553 192.766 88.6887C192.677 88.8244 192.549 88.9306 192.4 88.9938C192.25 89.0569 192.085 89.0742 191.926 89.0435C191.766 89.0127 191.62 88.9353 191.504 88.821C191.389 88.7068 191.31 88.5608 191.278 88.4017C191.246 88.2426 191.262 88.0775 191.323 87.9274C191.385 87.7773 191.49 87.6489 191.625 87.5585C191.76 87.4682 191.919 87.4199 192.081 87.4199C192.297 87.4199 192.504 87.5052 192.658 87.6572C192.811 87.8092 192.898 88.0156 192.9 88.2316Z" fill="#263238"/>
<path d="M192.9 91.2157C192.9 91.3777 192.852 91.5361 192.762 91.6708C192.672 91.8056 192.544 91.9106 192.394 91.9726C192.245 92.0346 192.08 92.0508 191.921 92.0192C191.762 91.9876 191.616 91.9095 191.502 91.795C191.387 91.6804 191.309 91.5344 191.277 91.3755C191.246 91.2166 191.262 91.0519 191.324 90.9022C191.386 90.7525 191.491 90.6246 191.626 90.5346C191.761 90.4446 191.919 90.3965 192.081 90.3965C192.189 90.3955 192.296 90.416 192.396 90.4568C192.495 90.4976 192.586 90.558 192.662 90.6342C192.739 90.7105 192.799 90.8012 192.84 90.901C192.881 91.0009 192.901 91.1079 192.9 91.2157Z" fill="#263238"/>
<path d="M192.9 94.1916C192.902 94.3539 192.855 94.513 192.766 94.6487C192.677 94.7844 192.549 94.8906 192.4 94.9537C192.25 95.0169 192.085 95.0342 191.926 95.0034C191.766 94.9727 191.62 94.8953 191.504 94.781C191.389 94.6667 191.31 94.5208 191.278 94.3617C191.246 94.2026 191.262 94.0375 191.323 93.8873C191.385 93.7372 191.49 93.6088 191.625 93.5185C191.76 93.4281 191.919 93.3799 192.081 93.3799C192.297 93.3799 192.504 93.4651 192.658 93.6172C192.811 93.7692 192.898 93.9756 192.9 94.1916Z" fill="#263238"/>
<path d="M200.31 87.8115H194.613V88.6533H200.31V87.8115Z" fill="#263238"/>
<path d="M200.31 90.7949H194.613V91.6367H200.31V90.7949Z" fill="#263238"/>
<path d="M200.31 93.7715H194.613V94.6132H200.31V93.7715Z" fill="#263238"/>
<path d="M143.77 91.2461L142.192 92.8168L140.613 91.2461H143.77Z" fill="#263238"/>
<path d="M183.826 93.0645H180.617V93.6958H183.826V93.0645Z" fill="#263238"/>
<path d="M117.999 105.375H150.12C150.358 105.354 150.579 105.245 150.74 105.069C150.901 104.893 150.99 104.663 150.99 104.424C150.99 104.186 150.901 103.956 150.74 103.78C150.579 103.604 150.358 103.495 150.12 103.474H117.999C117.761 103.495 117.54 103.604 117.379 103.78C117.218 103.956 117.129 104.186 117.129 104.424C117.129 104.663 117.218 104.893 117.379 105.069C117.54 105.245 117.761 105.354 117.999 105.375Z" fill="#263238"/>
<path d="M155.132 105.375H180.482C180.719 105.354 180.94 105.245 181.101 105.069C181.262 104.893 181.351 104.663 181.351 104.424C181.351 104.186 181.262 103.956 181.101 103.78C180.94 103.604 180.719 103.495 180.482 103.474H155.132C154.894 103.495 154.673 103.604 154.512 103.78C154.351 103.956 154.262 104.186 154.262 104.424C154.262 104.663 154.351 104.893 154.512 105.069C154.673 105.245 154.894 105.354 155.132 105.375Z" fill="#263238"/>
<path d="M185.632 105.375H207.63C207.867 105.354 208.088 105.245 208.249 105.069C208.41 104.893 208.5 104.663 208.5 104.424C208.5 104.186 208.41 103.956 208.249 103.78C208.088 103.604 207.867 103.495 207.63 103.474H185.632C185.394 103.495 185.173 103.604 185.012 103.78C184.851 103.956 184.762 104.186 184.762 104.424C184.762 104.663 184.851 104.893 185.012 105.069C185.173 105.245 185.394 105.354 185.632 105.375Z" fill="#263238"/>
<path d="M212.53 105.375H234.521C234.758 105.354 234.979 105.245 235.14 105.069C235.301 104.893 235.39 104.663 235.39 104.424C235.39 104.186 235.301 103.956 235.14 103.78C234.979 103.604 234.758 103.495 234.521 103.474H212.53C212.292 103.495 212.071 103.604 211.91 103.78C211.749 103.956 211.66 104.186 211.66 104.424C211.66 104.663 211.749 104.893 211.91 105.069C212.071 105.245 212.292 105.354 212.53 105.375Z" fill="#263238"/>
<path d="M117.998 114.679H141.258C141.51 114.679 141.75 114.579 141.928 114.402C142.106 114.224 142.205 113.983 142.205 113.732C142.205 113.481 142.106 113.24 141.928 113.063C141.75 112.885 141.51 112.785 141.258 112.785H117.998C117.747 112.785 117.506 112.885 117.328 113.063C117.151 113.24 117.051 113.481 117.051 113.732C117.051 113.983 117.151 114.224 117.328 114.402C117.506 114.579 117.747 114.679 117.998 114.679Z" fill="#263238"/>
<path d="M146.271 114.679H172.328C172.579 114.679 172.82 114.579 172.997 114.402C173.175 114.224 173.275 113.983 173.275 113.732C173.275 113.481 173.175 113.24 172.997 113.063C172.82 112.885 172.579 112.785 172.328 112.785H146.271C146.02 112.785 145.779 112.885 145.602 113.063C145.424 113.24 145.324 113.481 145.324 113.732C145.324 113.983 145.424 114.224 145.602 114.402C145.779 114.579 146.02 114.679 146.271 114.679Z" fill="#263238"/>
<path d="M177.478 114.679H198.86C199.111 114.679 199.352 114.579 199.53 114.402C199.707 114.224 199.807 113.983 199.807 113.732C199.807 113.481 199.707 113.24 199.53 113.063C199.352 112.885 199.111 112.785 198.86 112.785H177.478C177.227 112.785 176.986 112.885 176.809 113.063C176.631 113.24 176.531 113.481 176.531 113.732C176.531 113.983 176.631 114.224 176.809 114.402C176.986 114.579 177.227 114.679 177.478 114.679Z" fill="#263238"/>
<path d="M203.783 114.679H234.522C234.773 114.679 235.014 114.579 235.191 114.402C235.369 114.224 235.469 113.983 235.469 113.732C235.469 113.481 235.369 113.24 235.191 113.063C235.014 112.885 234.773 112.785 234.522 112.785H203.783C203.532 112.785 203.291 112.885 203.113 113.063C202.936 113.24 202.836 113.481 202.836 113.732C202.836 113.983 202.936 114.224 203.113 114.402C203.291 114.579 203.532 114.679 203.783 114.679Z" fill="#263238"/>
<path d="M117.999 123.991H147.61C147.848 123.97 148.069 123.861 148.23 123.685C148.391 123.509 148.48 123.279 148.48 123.041C148.48 122.802 148.391 122.572 148.23 122.396C148.069 122.22 147.848 122.111 147.61 122.09H117.999C117.761 122.111 117.54 122.22 117.379 122.396C117.218 122.572 117.129 122.802 117.129 123.041C117.129 123.279 117.218 123.509 117.379 123.685C117.54 123.861 117.761 123.97 117.999 123.991Z" fill="#263238"/>
<path d="M152.623 123.991H180.483C180.721 123.97 180.942 123.861 181.103 123.685C181.264 123.509 181.353 123.279 181.353 123.041C181.353 122.802 181.264 122.572 181.103 122.396C180.942 122.22 180.721 122.111 180.483 122.09H152.6C152.363 122.111 152.142 122.22 151.981 122.396C151.82 122.572 151.73 122.802 151.73 123.041C151.73 123.279 151.82 123.509 151.981 123.685C152.142 123.861 152.363 123.97 152.6 123.991H152.623Z" fill="#263238"/>
<path d="M185.632 123.991H217.197C217.435 123.97 217.656 123.861 217.817 123.685C217.978 123.509 218.067 123.279 218.067 123.041C218.067 122.802 217.978 122.572 217.817 122.396C217.656 122.22 217.435 122.111 217.197 122.09H185.632C185.394 122.111 185.173 122.22 185.012 122.396C184.851 122.572 184.762 122.802 184.762 123.041C184.762 123.279 184.851 123.509 185.012 123.685C185.173 123.861 185.394 123.97 185.632 123.991Z" fill="#263238"/>
<path d="M222.112 123.991H234.52C234.758 123.97 234.979 123.861 235.14 123.685C235.301 123.509 235.39 123.279 235.39 123.041C235.39 122.802 235.301 122.572 235.14 122.396C234.979 122.22 234.758 122.111 234.52 122.09H222.112C221.875 122.111 221.653 122.22 221.492 122.396C221.331 122.572 221.242 122.802 221.242 123.041C221.242 123.279 221.331 123.509 221.492 123.685C221.653 123.861 221.875 123.97 222.112 123.991Z" fill="#263238"/>
<path d="M117.999 133.295H142.8C143.038 133.274 143.259 133.165 143.42 132.989C143.581 132.813 143.67 132.583 143.67 132.344C143.67 132.106 143.581 131.876 143.42 131.7C143.259 131.524 143.038 131.415 142.8 131.394H117.999C117.761 131.415 117.54 131.524 117.379 131.7C117.218 131.876 117.129 132.106 117.129 132.344C117.129 132.583 117.218 132.813 117.379 132.989C117.54 133.165 117.761 133.274 117.999 133.295Z" fill="#263238"/>
<path d="M147.827 133.295H172.328C172.565 133.274 172.786 133.165 172.947 132.989C173.108 132.813 173.198 132.583 173.198 132.344C173.198 132.106 173.108 131.876 172.947 131.7C172.786 131.524 172.565 131.415 172.328 131.394H147.827C147.589 131.415 147.368 131.524 147.207 131.7C147.046 131.876 146.957 132.106 146.957 132.344C146.957 132.583 147.046 132.813 147.207 132.989C147.368 133.165 147.589 133.274 147.827 133.295Z" fill="#263238"/>
<path d="M177.475 133.295H194.197C194.435 133.274 194.656 133.165 194.817 132.989C194.978 132.813 195.067 132.583 195.067 132.344C195.067 132.106 194.978 131.876 194.817 131.7C194.656 131.524 194.435 131.415 194.197 131.394H177.475C177.238 131.415 177.017 131.524 176.856 131.7C176.695 131.876 176.605 132.106 176.605 132.344C176.605 132.583 176.695 132.813 176.856 132.989C177.017 133.165 177.238 133.274 177.475 133.295Z" fill="#263238"/>
<path d="M199.077 133.295H234.52C234.758 133.274 234.979 133.165 235.14 132.989C235.301 132.813 235.39 132.583 235.39 132.344C235.39 132.106 235.301 131.876 235.14 131.7C234.979 131.524 234.758 131.415 234.52 131.394H199.077C198.839 131.415 198.618 131.524 198.457 131.7C198.296 131.876 198.207 132.106 198.207 132.344C198.207 132.583 198.296 132.813 198.457 132.989C198.618 133.165 198.839 133.274 199.077 133.295Z" fill="#263238"/>
<g opacity="0.3">
<path d="M117.999 105.375H150.12C150.358 105.354 150.579 105.245 150.74 105.069C150.901 104.893 150.99 104.663 150.99 104.424C150.99 104.186 150.901 103.956 150.74 103.78C150.579 103.604 150.358 103.495 150.12 103.474H117.999C117.761 103.495 117.54 103.604 117.379 103.78C117.218 103.956 117.129 104.186 117.129 104.424C117.129 104.663 117.218 104.893 117.379 105.069C117.54 105.245 117.761 105.354 117.999 105.375Z" fill="white"/>
<path d="M155.132 105.375H180.482C180.719 105.354 180.94 105.245 181.101 105.069C181.262 104.893 181.351 104.663 181.351 104.424C181.351 104.186 181.262 103.956 181.101 103.78C180.94 103.604 180.719 103.495 180.482 103.474H155.132C154.894 103.495 154.673 103.604 154.512 103.78C154.351 103.956 154.262 104.186 154.262 104.424C154.262 104.663 154.351 104.893 154.512 105.069C154.673 105.245 154.894 105.354 155.132 105.375Z" fill="white"/>
<path d="M185.632 105.375H207.63C207.867 105.354 208.088 105.245 208.249 105.069C208.41 104.893 208.5 104.663 208.5 104.424C208.5 104.186 208.41 103.956 208.249 103.78C208.088 103.604 207.867 103.495 207.63 103.474H185.632C185.394 103.495 185.173 103.604 185.012 103.78C184.851 103.956 184.762 104.186 184.762 104.424C184.762 104.663 184.851 104.893 185.012 105.069C185.173 105.245 185.394 105.354 185.632 105.375Z" fill="white"/>
<path d="M212.53 105.375H234.521C234.758 105.354 234.979 105.245 235.14 105.069C235.301 104.893 235.39 104.663 235.39 104.424C235.39 104.186 235.301 103.956 235.14 103.78C234.979 103.604 234.758 103.495 234.521 103.474H212.53C212.292 103.495 212.071 103.604 211.91 103.78C211.749 103.956 211.66 104.186 211.66 104.424C211.66 104.663 211.749 104.893 211.91 105.069C212.071 105.245 212.292 105.354 212.53 105.375Z" fill="white"/>
<path d="M117.998 114.679H141.258C141.51 114.679 141.75 114.579 141.928 114.402C142.106 114.224 142.205 113.983 142.205 113.732C142.205 113.481 142.106 113.24 141.928 113.063C141.75 112.885 141.51 112.785 141.258 112.785H117.998C117.747 112.785 117.506 112.885 117.328 113.063C117.151 113.24 117.051 113.481 117.051 113.732C117.051 113.983 117.151 114.224 117.328 114.402C117.506 114.579 117.747 114.679 117.998 114.679Z" fill="white"/>
<path d="M146.271 114.679H172.328C172.579 114.679 172.82 114.579 172.997 114.402C173.175 114.224 173.275 113.983 173.275 113.732C173.275 113.481 173.175 113.24 172.997 113.063C172.82 112.885 172.579 112.785 172.328 112.785H146.271C146.02 112.785 145.779 112.885 145.602 113.063C145.424 113.24 145.324 113.481 145.324 113.732C145.324 113.983 145.424 114.224 145.602 114.402C145.779 114.579 146.02 114.679 146.271 114.679Z" fill="white"/>
<path d="M177.474 114.679H198.856C199.107 114.679 199.348 114.579 199.526 114.402C199.703 114.224 199.803 113.983 199.803 113.732C199.803 113.481 199.703 113.24 199.526 113.063C199.348 112.885 199.107 112.785 198.856 112.785H177.474C177.223 112.785 176.982 112.885 176.805 113.063C176.627 113.24 176.527 113.481 176.527 113.732C176.527 113.983 176.627 114.224 176.805 114.402C176.982 114.579 177.223 114.679 177.474 114.679Z" fill="white"/>
<path d="M203.779 114.679H234.518C234.769 114.679 235.01 114.579 235.187 114.402C235.365 114.224 235.465 113.983 235.465 113.732C235.465 113.481 235.365 113.24 235.187 113.063C235.01 112.885 234.769 112.785 234.518 112.785H203.779C203.528 112.785 203.287 112.885 203.109 113.063C202.932 113.24 202.832 113.481 202.832 113.732C202.832 113.983 202.932 114.224 203.109 114.402C203.287 114.579 203.528 114.679 203.779 114.679Z" fill="white"/>
<path d="M117.999 123.991H147.61C147.848 123.97 148.069 123.861 148.23 123.685C148.391 123.509 148.48 123.279 148.48 123.041C148.48 122.802 148.391 122.572 148.23 122.396C148.069 122.22 147.848 122.111 147.61 122.09H117.999C117.761 122.111 117.54 122.22 117.379 122.396C117.218 122.572 117.129 122.802 117.129 123.041C117.129 123.279 117.218 123.509 117.379 123.685C117.54 123.861 117.761 123.97 117.999 123.991Z" fill="white"/>
<path d="M152.623 123.991H180.483C180.721 123.97 180.942 123.861 181.103 123.685C181.264 123.509 181.353 123.279 181.353 123.041C181.353 122.802 181.264 122.572 181.103 122.396C180.942 122.22 180.721 122.111 180.483 122.09H152.6C152.363 122.111 152.142 122.22 151.981 122.396C151.82 122.572 151.73 122.802 151.73 123.041C151.73 123.279 151.82 123.509 151.981 123.685C152.142 123.861 152.363 123.97 152.6 123.991H152.623Z" fill="white"/>
<path d="M185.632 123.991H217.197C217.435 123.97 217.656 123.861 217.817 123.685C217.978 123.509 218.067 123.279 218.067 123.041C218.067 122.802 217.978 122.572 217.817 122.396C217.656 122.22 217.435 122.111 217.197 122.09H185.632C185.394 122.111 185.173 122.22 185.012 122.396C184.851 122.572 184.762 122.802 184.762 123.041C184.762 123.279 184.851 123.509 185.012 123.685C185.173 123.861 185.394 123.97 185.632 123.991Z" fill="white"/>
<path d="M222.112 123.991H234.52C234.758 123.97 234.979 123.861 235.14 123.685C235.301 123.509 235.39 123.279 235.39 123.041C235.39 122.802 235.301 122.572 235.14 122.396C234.979 122.22 234.758 122.111 234.52 122.09H222.112C221.875 122.111 221.653 122.22 221.492 122.396C221.331 122.572 221.242 122.802 221.242 123.041C221.242 123.279 221.331 123.509 221.492 123.685C221.653 123.861 221.875 123.97 222.112 123.991Z" fill="white"/>
<path d="M117.999 133.295H142.8C143.038 133.274 143.259 133.165 143.42 132.989C143.581 132.813 143.67 132.583 143.67 132.344C143.67 132.106 143.581 131.876 143.42 131.7C143.259 131.524 143.038 131.415 142.8 131.394H117.999C117.761 131.415 117.54 131.524 117.379 131.7C117.218 131.876 117.129 132.106 117.129 132.344C117.129 132.583 117.218 132.813 117.379 132.989C117.54 133.165 117.761 133.274 117.999 133.295Z" fill="white"/>
<path d="M147.827 133.295H172.328C172.565 133.274 172.786 133.165 172.947 132.989C173.108 132.813 173.198 132.583 173.198 132.344C173.198 132.106 173.108 131.876 172.947 131.7C172.786 131.524 172.565 131.415 172.328 131.394H147.827C147.589 131.415 147.368 131.524 147.207 131.7C147.046 131.876 146.957 132.106 146.957 132.344C146.957 132.583 147.046 132.813 147.207 132.989C147.368 133.165 147.589 133.274 147.827 133.295Z" fill="white"/>
<path d="M177.475 133.295H194.197C194.435 133.274 194.656 133.165 194.817 132.989C194.978 132.813 195.067 132.583 195.067 132.344C195.067 132.106 194.978 131.876 194.817 131.7C194.656 131.524 194.435 131.415 194.197 131.394H177.475C177.238 131.415 177.017 131.524 176.856 131.7C176.695 131.876 176.605 132.106 176.605 132.344C176.605 132.583 176.695 132.813 176.856 132.989C177.017 133.165 177.238 133.274 177.475 133.295Z" fill="white"/>
<path d="M199.077 133.295H234.52C234.758 133.274 234.979 133.165 235.14 132.989C235.301 132.813 235.39 132.583 235.39 132.344C235.39 132.106 235.301 131.876 235.14 131.7C234.979 131.524 234.758 131.415 234.52 131.394H199.077C198.839 131.415 198.618 131.524 198.457 131.7C198.296 131.876 198.207 132.106 198.207 132.344C198.207 132.583 198.296 132.813 198.457 132.989C198.618 133.165 198.839 133.274 199.077 133.295Z" fill="white"/>
</g>
<path d="M149.895 112.026H112.002C109.843 112.026 108.094 113.776 108.094 115.934V151.303C108.094 153.461 109.843 155.211 112.002 155.211H149.895C152.054 155.211 153.803 153.461 153.803 151.303V115.934C153.803 113.776 152.054 112.026 149.895 112.026Z" fill="#049F67"/>
<path d="M148.204 112.026H110.31C108.152 112.026 106.402 113.776 106.402 115.934V151.303C106.402 153.461 108.152 155.211 110.31 155.211H148.204C150.362 155.211 152.112 153.461 152.112 151.303V115.934C152.112 113.776 150.362 112.026 148.204 112.026Z" fill="#049F67"/>
<path opacity="0.6" d="M148.204 112.026H110.31C108.152 112.026 106.402 113.776 106.402 115.934V151.303C106.402 153.461 108.152 155.211 110.31 155.211H148.204C150.362 155.211 152.112 153.461 152.112 151.303V115.934C152.112 113.776 150.362 112.026 148.204 112.026Z" fill="white"/>
<path d="M113.475 123.991H145.041C145.278 123.97 145.499 123.861 145.66 123.685C145.821 123.509 145.911 123.279 145.911 123.041C145.911 122.802 145.821 122.572 145.66 122.396C145.499 122.22 145.278 122.111 145.041 122.09H113.475C113.238 122.111 113.017 122.22 112.856 122.396C112.695 122.572 112.605 122.802 112.605 123.041C112.605 123.279 112.695 123.509 112.856 123.685C113.017 123.861 113.238 123.97 113.475 123.991Z" fill="#263238"/>
<path d="M113.474 142.848H145.04C145.291 142.848 145.532 142.748 145.709 142.571C145.887 142.393 145.987 142.152 145.987 141.901C145.987 141.65 145.887 141.409 145.709 141.231C145.532 141.054 145.291 140.954 145.04 140.954H113.474C113.223 140.954 112.982 141.054 112.805 141.231C112.627 141.409 112.527 141.65 112.527 141.901C112.527 142.152 112.627 142.393 112.805 142.571C112.982 142.748 113.223 142.848 113.474 142.848Z" fill="#263238"/>
<path d="M113.475 133.295H145.041C145.278 133.274 145.499 133.165 145.66 132.989C145.821 132.813 145.911 132.583 145.911 132.344C145.911 132.106 145.821 131.876 145.66 131.7C145.499 131.524 145.278 131.415 145.041 131.394H113.475C113.238 131.415 113.017 131.524 112.856 131.7C112.695 131.876 112.605 132.106 112.605 132.344C112.605 132.583 112.695 132.813 112.856 132.989C113.017 133.165 113.238 133.274 113.475 133.295Z" fill="#263238"/>
<g opacity="0.1">
<path d="M113.475 123.991H145.041C145.278 123.97 145.499 123.861 145.66 123.685C145.821 123.509 145.911 123.279 145.911 123.041C145.911 122.802 145.821 122.572 145.66 122.396C145.499 122.22 145.278 122.111 145.041 122.09H113.475C113.238 122.111 113.017 122.22 112.856 122.396C112.695 122.572 112.605 122.802 112.605 123.041C112.605 123.279 112.695 123.509 112.856 123.685C113.017 123.861 113.238 123.97 113.475 123.991Z" fill="white"/>
<path d="M113.474 142.848H145.04C145.291 142.848 145.532 142.748 145.709 142.571C145.887 142.393 145.987 142.152 145.987 141.901C145.987 141.65 145.887 141.409 145.709 141.231C145.532 141.054 145.291 140.954 145.04 140.954H113.474C113.223 140.954 112.982 141.054 112.805 141.231C112.627 141.409 112.527 141.65 112.527 141.901C112.527 142.152 112.627 142.393 112.805 142.571C112.982 142.748 113.223 142.848 113.474 142.848Z" fill="white"/>
<path d="M113.475 133.296H145.041C145.278 133.275 145.499 133.166 145.66 132.99C145.821 132.814 145.911 132.584 145.911 132.345C145.911 132.107 145.821 131.877 145.66 131.701C145.499 131.525 145.278 131.416 145.041 131.395H113.475C113.238 131.416 113.017 131.525 112.856 131.701C112.695 131.877 112.605 132.107 112.605 132.345C112.605 132.584 112.695 132.814 112.856 132.99C113.017 133.166 113.238 133.275 113.475 133.296Z" fill="white"/>
</g>
<path d="M143.988 146.839H139.223C138.634 146.839 138.156 147.317 138.156 147.906V150.416C138.156 151.006 138.634 151.483 139.223 151.483H143.988C144.578 151.483 145.056 151.006 145.056 150.416V147.906C145.056 147.317 144.578 146.839 143.988 146.839Z" fill="#049F67"/>
<path opacity="0.8" d="M135.098 146.839H130.333C129.743 146.839 129.266 147.317 129.266 147.906V150.416C129.266 151.006 129.743 151.483 130.333 151.483H135.098C135.687 151.483 136.165 151.006 136.165 150.416V147.906C136.165 147.317 135.687 146.839 135.098 146.839Z" fill="white"/>
<path d="M116.24 253.266C116.24 253.266 113.887 217.665 118.825 209.21C118.825 209.21 124.319 216.523 122.23 253.266H116.24Z" fill="#049F67"/>
<path d="M122.23 253.266C122.23 253.266 123.365 221.242 139.088 216.071C133.017 227.581 129.592 240.301 129.062 253.303L122.23 253.266Z" fill="#049F67"/>
<path d="M116.768 253.266C116.768 253.266 115.655 221.242 99.9102 216.034C105.981 227.545 109.409 240.264 109.943 253.266H116.768Z" fill="#049F67"/>
<g opacity="0.3">
<path d="M116.24 253.266C116.24 253.266 113.887 217.665 118.825 209.21C118.825 209.21 124.319 216.523 122.23 253.266H116.24Z" fill="white"/>
<path d="M122.23 253.266C122.23 253.266 123.365 221.242 139.088 216.071C133.017 227.581 129.592 240.301 129.062 253.303L122.23 253.266Z" fill="white"/>
<path d="M116.768 253.266C116.768 253.266 115.655 221.242 99.9102 216.034C105.981 227.545 109.409 240.264 109.943 253.266H116.768Z" fill="white"/>
</g>
<path d="M106.726 254.401C106.726 254.401 103.066 228.75 91.0938 221.625C91.0938 221.625 111.859 219.912 111.386 254.401H106.726Z" fill="#049F67"/>
<path d="M113.046 253.544C113.046 253.544 117.405 225.894 103.637 212.787C103.637 212.787 123.095 217.063 117.961 254.401L113.046 253.544Z" fill="#049F67"/>
<path d="M131.902 254.401C131.902 254.401 135.562 228.75 147.534 221.625C147.534 221.625 126.769 219.912 127.242 254.401H131.902Z" fill="#049F67"/>
<path d="M125.619 253.544C125.619 253.544 121.26 225.894 135.021 212.787C135.021 212.787 115.571 217.063 120.696 254.401L125.619 253.544Z" fill="#049F67"/>
<g opacity="0.5">
<path d="M106.726 254.401C106.726 254.401 103.066 228.75 91.0938 221.625C91.0938 221.625 111.859 219.912 111.386 254.401H106.726Z" fill="white"/>
<path d="M113.046 253.544C113.046 253.544 117.405 225.894 103.637 212.787C103.637 212.787 123.095 217.063 117.961 254.401L113.046 253.544Z" fill="white"/>
<path d="M131.902 254.401C131.902 254.401 135.562 228.75 147.534 221.625C147.534 221.625 126.769 219.912 127.242 254.401H131.902Z" fill="white"/>
<path d="M125.619 253.544C125.619 253.544 121.26 225.894 135.021 212.787C135.021 212.787 115.571 217.063 120.696 254.401L125.619 253.544Z" fill="white"/>
</g>
<path d="M132.338 274.182H106.446L101.434 246.615H137.358L132.338 274.182Z" fill="#263238"/>
<path d="M178.882 159.893H169.405C169.254 159.892 169.106 159.925 168.97 159.989C168.833 160.052 168.713 160.145 168.617 160.261C168.521 160.376 168.451 160.512 168.413 160.657C168.375 160.803 168.37 160.955 168.398 161.103V161.185C167.927 161.069 167.433 161.085 166.97 161.23C165.256 161.749 165.211 163.267 165.722 164.988C166.233 166.709 167.113 167.949 168.819 167.438C169.085 167.351 169.338 167.227 169.57 167.07C169.905 167.873 170.457 168.568 171.163 169.077V170.332H177.041V169.077C178.035 168.355 178.713 167.279 178.935 166.07L179.851 161.095C179.876 160.951 179.87 160.803 179.833 160.662C179.796 160.521 179.73 160.389 179.638 160.275C179.546 160.161 179.432 160.068 179.301 160.002C179.171 159.936 179.028 159.899 178.882 159.893ZM168.593 166.341C167.473 166.679 166.895 165.86 166.556 164.733C166.218 163.605 166.256 162.606 167.376 162.275C167.79 162.138 168.241 162.171 168.631 162.365L169.292 165.958C169.092 166.138 168.853 166.269 168.593 166.341Z" fill="#263238"/>
<path opacity="0.7" d="M178.882 159.893H169.405C169.254 159.892 169.106 159.925 168.97 159.989C168.833 160.052 168.713 160.145 168.617 160.261C168.521 160.376 168.451 160.512 168.413 160.657C168.375 160.803 168.37 160.955 168.398 161.103V161.185C167.927 161.069 167.433 161.085 166.97 161.23C165.256 161.749 165.211 163.267 165.722 164.988C166.233 166.709 167.113 167.949 168.819 167.438C169.085 167.351 169.338 167.227 169.57 167.07C169.905 167.873 170.457 168.568 171.163 169.077V170.332H177.041V169.077C178.035 168.355 178.713 167.279 178.935 166.07L179.851 161.095C179.876 160.951 179.87 160.803 179.833 160.662C179.796 160.521 179.73 160.389 179.638 160.275C179.546 160.161 179.432 160.068 179.301 160.002C179.171 159.936 179.028 159.899 178.882 159.893ZM168.593 166.341C167.473 166.679 166.895 165.86 166.556 164.733C166.218 163.605 166.256 162.606 167.376 162.275C167.79 162.138 168.241 162.171 168.631 162.365L169.292 165.958C169.092 166.138 168.853 166.269 168.593 166.341Z" fill="white"/>
<path opacity="0.5" d="M168.595 166.341C167.475 166.679 166.896 165.86 166.558 164.732C166.22 163.605 166.257 162.605 167.377 162.275C167.791 162.138 168.242 162.171 168.632 162.365L169.294 165.957C169.093 166.137 168.854 166.268 168.595 166.341Z" fill="white"/>
<path d="M177.334 171.797H170.953C170.564 171.796 170.182 171.698 169.841 171.511L167.706 170.324C167.619 170.28 167.549 170.208 167.508 170.12C167.467 170.031 167.458 169.931 167.482 169.837C167.505 169.742 167.56 169.658 167.638 169.599C167.716 169.54 167.812 169.509 167.909 169.512H180.423C180.521 169.508 180.618 169.537 180.697 169.595C180.776 169.654 180.833 169.737 180.857 169.833C180.882 169.928 180.873 170.029 180.832 170.118C180.791 170.207 180.721 170.28 180.633 170.324L178.476 171.511C178.126 171.702 177.733 171.801 177.334 171.797Z" fill="#263238"/>
<path opacity="0.6" d="M177.334 171.797H170.953C170.564 171.796 170.182 171.698 169.841 171.511L167.706 170.324C167.619 170.28 167.549 170.208 167.508 170.12C167.467 170.031 167.458 169.931 167.482 169.837C167.505 169.742 167.56 169.658 167.638 169.599C167.716 169.54 167.812 169.509 167.909 169.512H180.423C180.521 169.508 180.618 169.537 180.697 169.595C180.776 169.654 180.833 169.737 180.857 169.833C180.882 169.928 180.873 170.029 180.832 170.118C180.791 170.207 180.721 170.28 180.633 170.324L178.476 171.511C178.126 171.702 177.733 171.801 177.334 171.797Z" fill="white"/>
<path d="M224.69 273.746H221.082L225.291 217.755H230.093L224.69 273.746Z" fill="#049F67"/>
<path opacity="0.7" d="M224.69 273.746H221.082L225.291 217.755H230.093L224.69 273.746Z" fill="white"/>
<g opacity="0.4">
<path d="M254.264 273.746H250.656L254.865 217.755H259.667L254.264 273.746Z" fill="#049F67"/>
</g>
<path d="M289.946 273.746H293.546L289.345 217.755H284.535L289.946 273.746Z" fill="#049F67"/>
<g opacity="0.4">
<path d="M289.946 273.746H293.546L289.345 217.755H284.535L289.946 273.746Z" fill="white"/>
</g>
<path d="M287.131 217.755H227.969V222.986H287.131V217.755Z" fill="#049F67"/>
<path opacity="0.5" d="M287.131 217.755H227.969V222.986H287.131V217.755Z" fill="white"/>
<path d="M260.372 273.746H263.972L259.771 217.755H254.961L260.372 273.746Z" fill="#049F67"/>
<path opacity="0.7" d="M260.372 273.746H263.972L259.771 217.755H254.961L260.372 273.746Z" fill="white"/>
<path d="M290.723 152.414H280.915C278.398 152.418 275.933 153.134 273.806 154.478C271.678 155.822 269.974 157.741 268.89 160.012L241.285 217.754H287.957C289.496 217.755 290.98 217.187 292.127 216.161C293.274 215.135 294.002 213.722 294.172 212.193L299.666 162.357C299.805 161.102 299.677 159.832 299.29 158.63C298.903 157.427 298.267 156.321 297.422 155.382C296.578 154.443 295.544 153.693 294.39 153.182C293.235 152.67 291.985 152.409 290.723 152.414Z" fill="#263238"/>
<path opacity="0.4" d="M290.723 152.414H280.915C278.398 152.418 275.933 153.134 273.806 154.478C271.678 155.822 269.974 157.741 268.89 160.012L241.285 217.754H287.957C289.496 217.755 290.98 217.187 292.127 216.161C293.274 215.135 294.002 213.722 294.172 212.193L299.666 162.357C299.805 161.102 299.677 159.832 299.29 158.63C298.903 157.427 298.267 156.321 297.422 155.382C296.578 154.443 295.544 153.693 294.39 153.182C293.235 152.67 291.985 152.409 290.723 152.414Z" fill="white"/>
<path d="M284.74 152.414H274.97C272.453 152.42 269.99 153.136 267.862 154.48C265.735 155.825 264.03 157.742 262.945 160.013L235.348 217.755H281.095C282.884 217.754 284.611 217.094 285.943 215.9C287.276 214.706 288.121 213.062 288.317 211.284L293.714 162.357C293.853 161.1 293.724 159.827 293.335 158.623C292.947 157.418 292.308 156.31 291.46 155.371C290.612 154.431 289.575 153.682 288.417 153.172C287.258 152.663 286.005 152.405 284.74 152.414Z" fill="#263238"/>
<path opacity="0.3" d="M284.74 152.414H274.97C272.453 152.42 269.99 153.136 267.862 154.48C265.735 155.825 264.03 157.742 262.945 160.013L235.348 217.755H281.095C282.884 217.754 284.611 217.094 285.943 215.9C287.276 214.706 288.121 213.062 288.317 211.284L293.714 162.357C293.853 161.1 293.724 159.827 293.335 158.623C292.947 157.418 292.308 156.31 291.46 155.371C290.612 154.431 289.575 153.682 288.417 153.172C287.258 152.663 286.005 152.405 284.74 152.414Z" fill="white"/>
<path d="M264.905 217.755H226.575C225.735 217.755 224.903 217.589 224.126 217.267C223.35 216.946 222.644 216.474 222.05 215.879C221.456 215.284 220.985 214.578 220.664 213.802C220.343 213.025 220.179 212.192 220.18 211.352C220.18 209.656 220.854 208.029 222.053 206.829C223.252 205.63 224.879 204.956 226.575 204.956H264.905V217.755Z" fill="#263238"/>
<path opacity="0.3" d="M264.905 217.755H226.575C225.735 217.755 224.903 217.589 224.126 217.267C223.35 216.946 222.644 216.474 222.05 215.879C221.456 215.284 220.985 214.578 220.664 213.802C220.343 213.025 220.179 212.192 220.18 211.352C220.18 209.656 220.854 208.029 222.053 206.829C223.252 205.63 224.879 204.956 226.575 204.956H264.905V217.755Z" fill="white"/>
<path d="M288.348 217.755H263.547C261.923 217.755 260.365 217.11 259.216 215.961C258.067 214.812 257.422 213.254 257.422 211.63V211.081C257.422 209.457 258.067 207.899 259.216 206.75C260.365 205.601 261.923 204.956 263.547 204.956H288.348C289.189 204.955 290.021 205.12 290.798 205.441C291.575 205.762 292.281 206.233 292.876 206.827C293.47 207.421 293.942 208.126 294.264 208.903C294.586 209.679 294.752 210.511 294.752 211.352C294.753 212.193 294.588 213.026 294.266 213.803C293.945 214.581 293.473 215.287 292.878 215.882C292.284 216.477 291.577 216.948 290.8 217.27C290.023 217.591 289.19 217.756 288.348 217.755Z" fill="#263238"/>
<path opacity="0.4" d="M288.348 217.755H263.547C261.923 217.755 260.365 217.11 259.216 215.961C258.067 214.812 257.422 213.254 257.422 211.63V211.081C257.422 209.457 258.067 207.899 259.216 206.75C260.365 205.601 261.923 204.956 263.547 204.956H288.348C289.189 204.955 290.021 205.12 290.798 205.441C291.575 205.762 292.281 206.233 292.876 206.827C293.47 207.421 293.942 208.126 294.264 208.903C294.586 209.679 294.752 210.511 294.752 211.352C294.753 212.193 294.588 213.026 294.266 213.803C293.945 214.581 293.473 215.287 292.878 215.882C292.284 216.477 291.577 216.948 290.8 217.27C290.023 217.591 289.19 217.756 288.348 217.755Z" fill="white"/>
<path d="M252.056 118.647C252.056 118.647 248.757 128.996 252.056 125.523C252.056 125.523 249.651 137.037 254.1 129.409C254.1 129.409 251.989 139.675 255.453 139.765C258.918 139.856 268.929 139.39 268.929 139.39L271.567 134.798L272.604 132.084C272.604 132.084 277.714 132.836 276.362 127.868C275.081 123.788 273.553 119.79 271.785 115.896L268.395 111.755L254.138 114.408L252.056 118.647Z" fill="#263238"/>
<path opacity="0.6" d="M252.056 118.647C252.056 118.647 248.757 128.996 252.056 125.523C252.056 125.523 249.651 137.037 254.1 129.409C254.1 129.409 251.989 139.675 255.453 139.765C258.918 139.856 268.929 139.39 268.929 139.39L271.567 134.798L272.604 132.084C272.604 132.084 277.714 132.836 276.362 127.868C275.081 123.788 273.553 119.79 271.785 115.896L268.395 111.755L254.138 114.408L252.056 118.647Z" fill="black"/>
<path d="M244.433 146.777C244.433 146.777 244.877 155.503 240.022 159.652C235.61 163.409 228.658 166.363 228.658 166.363L222.751 164.619C222.473 164.535 222.178 164.533 221.899 164.613C221.62 164.693 221.371 164.852 221.18 165.07L218.324 168.324C218.187 168.478 218.083 168.658 218.018 168.853C217.953 169.049 217.929 169.255 217.947 169.46C217.966 169.665 218.026 169.865 218.124 170.045C218.223 170.226 218.357 170.385 218.52 170.512C218.677 170.637 218.858 170.729 219.051 170.784C219.245 170.838 219.447 170.853 219.647 170.827L222.773 170.451C224.013 170.697 225.269 170.85 226.531 170.91C227.506 170.717 228.466 170.453 229.402 170.121C229.402 170.121 240.142 169.196 244.944 164.634C249.747 160.072 251.385 150.61 251.385 150.61L244.433 146.777Z" fill="#EBB376"/>
<path d="M250.38 130.995C246.539 130.416 243.849 139.931 243.18 148.919L252.198 152.151C252.198 152.151 257.542 132.085 250.38 130.995Z" fill="#049F67"/>
<path opacity="0.1" d="M252.177 152.189C252.177 152.189 254.86 142.133 253.883 135.873L248.261 133.783C248.261 133.783 244.165 142.599 246.277 163.199C249.155 159.494 250.613 154.18 251.147 151.813L252.177 152.189Z" fill="black"/>
<path d="M212.746 249.425L213.407 269.8H217.969L220.104 249.057L212.746 249.425Z" fill="#EBB376"/>
<path d="M213.342 267.71H218.542C218.651 267.71 218.757 267.747 218.842 267.815C218.927 267.884 218.986 267.979 219.008 268.086L220.083 272.979C220.108 273.081 220.111 273.188 220.094 273.292C220.077 273.396 220.04 273.496 219.984 273.585C219.928 273.675 219.855 273.752 219.768 273.813C219.682 273.874 219.585 273.918 219.482 273.941C219.424 273.948 219.366 273.948 219.309 273.941C217.144 273.896 215.221 273.775 212.545 273.768C209.366 273.768 210.17 274.144 206.427 274.189C204.173 274.189 203.767 271.648 204.721 271.528C209.103 270.987 210.365 269.657 212.056 268.094C212.427 267.819 212.882 267.684 213.342 267.71Z" fill="#263238"/>
<path opacity="0.1" d="M218.438 265.328L218.949 260.338H213.102L213.267 265.328H218.438Z" fill="#263238"/>
<path d="M266.161 172.835C266.161 172.835 280.373 205.151 266.724 205.151H227.313C227.313 205.151 225.607 213.742 219.467 260.947H212.875C212.875 260.947 209.734 205.663 213.379 197.41C216.235 190.955 236.564 186.332 245.23 184.634C246.365 184.413 247.403 183.842 248.197 183.001C248.991 182.16 249.502 181.091 249.657 179.944L251.581 172.008L266.161 172.835Z" fill="#263238"/>
<path d="M211.621 259.789L212.147 263.374H219.978L220.7 259.789H211.621Z" fill="#263238"/>
<path opacity="0.3" d="M211.621 259.789L212.147 263.374H219.978L220.7 259.789H211.621Z" fill="white"/>
<path opacity="0.4" d="M238.662 199.537L263.584 187.249V180.485L259.826 173.015C259.826 173.015 259.397 180.628 254.137 183.334C248.876 186.039 228.756 187.264 224.007 193.637C220.204 198.74 223.368 215.433 224.758 221.813C226.682 208.368 227.329 205.121 227.329 205.121H233.093L233.581 203.19L238.662 199.537Z" fill="black"/>
<path d="M231.012 249.433L232.83 269.537L237.197 269.529L239.249 249.064L231.012 249.433Z" fill="#EBB376"/>
<path d="M232.392 267.71H237.593C237.703 267.711 237.809 267.748 237.895 267.816C237.981 267.884 238.041 267.979 238.067 268.086L239.141 272.979C239.165 273.082 239.167 273.189 239.149 273.293C239.131 273.397 239.093 273.497 239.037 273.586C238.98 273.675 238.906 273.753 238.82 273.814C238.733 273.874 238.636 273.918 238.533 273.941C238.475 273.949 238.417 273.949 238.36 273.941C236.195 273.896 234.271 273.775 231.596 273.768C228.417 273.768 229.221 274.144 225.478 274.189C223.223 274.189 222.818 271.648 223.772 271.528C228.154 270.987 229.416 269.657 231.107 268.094C231.478 267.819 231.932 267.684 232.392 267.71Z" fill="#263238"/>
<path opacity="0.1" d="M237.618 265.328L238.121 260.338H231.996L232.447 265.328H237.618Z" fill="#263238"/>
<path d="M276.39 173.39C276.39 173.39 277.502 176.622 278.945 181.019C282.042 190.406 283.725 205.121 274.436 205.121H241.21C241.21 205.121 244.84 208.623 238.429 260.917H231.838C231.838 260.917 223.075 203.941 226.712 195.697C229.523 189.346 246.538 186.445 254.212 185.445C255.272 185.307 256.253 184.809 256.992 184.035C257.73 183.261 258.181 182.258 258.27 181.192L259.022 171.978L276.39 173.39Z" fill="#263238"/>
<path d="M230.648 259.789L231.408 263.374H239.006L239.735 259.789H230.648Z" fill="#263238"/>
<path opacity="0.3" d="M230.648 259.789L231.408 263.374H239.006L239.735 259.789H230.648Z" fill="white"/>
<path d="M250.476 175.487C250.496 170.667 250.245 165.849 249.724 161.057C248.755 151.806 246.868 140.337 248.056 133.761C248.21 132.905 248.663 132.133 249.336 131.582C250.008 131.031 250.854 130.737 251.724 130.755H276.818C277.2 130.76 277.576 130.846 277.921 131.007C278.267 131.168 278.574 131.401 278.823 131.691C279.072 131.98 279.256 132.319 279.364 132.685C279.472 133.051 279.501 133.436 279.448 133.813C278.208 140.856 275.059 159.479 277.509 176.043C277.54 176.028 258.292 177.562 250.476 175.487Z" fill="#049F67"/>
<path opacity="0.1" d="M277.147 164.259C277.072 161.952 277.072 159.667 277.147 157.45L273.104 157.082L265.738 164.387L259.32 166.176L256.051 169.227C256.051 169.227 271.022 168.821 275.246 165.83C275.91 165.345 276.545 164.821 277.147 164.259Z" fill="black"/>
<path d="M265.62 117.76C265.229 121.39 266.221 129.116 268.927 131.288C268.927 131.288 267.927 136.015 259.81 136.759C254.865 134.58 256.707 130.559 256.707 130.559C260.6 129.244 260.99 126.876 260.096 124.163L265.62 117.76Z" fill="#EBB376"/>
<path d="M257.794 129.928C257.794 129.928 255.615 135.527 261.161 135.549C267.534 135.549 268.098 129.928 268.098 129.928L269.812 130.739C269.812 130.739 269.526 141.945 260.132 137.24C260.132 137.24 256.509 139.766 256.021 135.549C255.532 131.333 256.366 130.739 256.366 130.739L257.794 129.928Z" fill="#049F67"/>
<path opacity="0.3" d="M257.794 129.928C257.794 129.928 255.615 135.527 261.161 135.549C267.534 135.549 268.098 129.928 268.098 129.928L269.812 130.739C269.812 130.739 269.526 141.945 260.132 137.24C260.132 137.24 256.509 139.766 256.021 135.549C255.532 131.333 256.366 130.739 256.366 130.739L257.794 129.928Z" fill="white"/>
<path opacity="0.1" d="M259.922 128.387C261.365 128.387 264.228 127.756 265.311 123.127C266.814 116.806 260.095 124.179 260.095 124.179C260.613 125.734 260.696 127.185 259.922 128.387Z" fill="black"/>
<path d="M267.964 110.936C268.513 116.911 268.874 119.429 266.348 122.924C262.591 128.185 255.075 127.553 252.783 121.864C250.693 116.738 250.152 107.84 255.579 104.578C256.497 104.022 257.516 103.652 258.578 103.489C259.64 103.327 260.723 103.376 261.766 103.633C262.809 103.889 263.791 104.35 264.656 104.986C265.521 105.623 266.252 106.424 266.807 107.344C267.471 108.433 267.868 109.664 267.964 110.936Z" fill="#EBB376"/>
<path d="M255.391 116.588C255.159 117.761 254.767 118.896 254.227 119.962C254.503 120.09 254.805 120.157 255.11 120.157C255.415 120.157 255.716 120.09 255.993 119.962L255.391 116.588Z" fill="#D58745"/>
<path d="M259.104 112.822C259.142 112.806 259.176 112.78 259.202 112.747C259.221 112.723 259.236 112.695 259.244 112.666C259.253 112.636 259.256 112.605 259.252 112.574C259.249 112.543 259.239 112.513 259.224 112.486C259.209 112.459 259.188 112.435 259.164 112.416C258.818 112.136 258.408 111.943 257.971 111.854C257.535 111.765 257.083 111.782 256.654 111.905C256.603 111.932 256.563 111.975 256.541 112.028C256.52 112.082 256.518 112.141 256.536 112.195C256.554 112.25 256.591 112.296 256.64 112.325C256.689 112.355 256.748 112.366 256.804 112.356C257.16 112.259 257.534 112.249 257.895 112.326C258.256 112.403 258.593 112.566 258.878 112.8C258.912 112.82 258.949 112.833 258.989 112.837C259.028 112.841 259.067 112.836 259.104 112.822Z" fill="#2E353A"/>
<path d="M250.815 114.085C250.772 114.078 250.731 114.062 250.694 114.04C250.644 114.005 250.609 113.951 250.598 113.89C250.586 113.83 250.6 113.767 250.634 113.716C250.88 113.338 251.213 113.025 251.605 112.804C251.998 112.583 252.439 112.46 252.889 112.446C252.951 112.448 253.011 112.474 253.054 112.519C253.098 112.564 253.122 112.624 253.122 112.687C253.122 112.749 253.097 112.808 253.054 112.852C253.01 112.895 252.951 112.92 252.889 112.92C252.521 112.942 252.163 113.05 251.845 113.235C251.526 113.42 251.256 113.678 251.055 113.987C251.027 114.023 250.99 114.05 250.948 114.068C250.906 114.085 250.86 114.091 250.815 114.085Z" fill="#2E353A"/>
<path d="M258.647 115.189C258.738 115.663 258.55 116.099 258.234 116.159C257.918 116.219 257.603 115.873 257.52 115.407C257.437 114.941 257.618 114.498 257.926 114.445C258.234 114.393 258.55 114.701 258.647 115.189Z" fill="#2E353A"/>
<path d="M253.21 116.159C253.293 116.64 253.113 117.068 252.797 117.129C252.481 117.189 252.166 116.843 252.045 116.377C251.925 115.911 252.143 115.468 252.451 115.407C252.759 115.347 253.128 115.678 253.21 116.159Z" fill="#2E353A"/>
<path d="M252.632 115.362L251.422 115.242C251.422 115.242 252.173 116.061 252.632 115.362Z" fill="#2E353A"/>
<path d="M258.05 114.424L256.84 114.296C256.84 114.296 257.591 115.093 258.05 114.424Z" fill="#2E353A"/>
<path d="M263.605 108.29C263.605 108.29 250.829 114.085 254.752 108.29C254.752 108.29 247.394 113.251 249.454 109.365C251.513 105.48 253.211 105.096 253.211 105.096C253.211 105.096 251.272 105.758 251.438 104.262C251.603 102.767 255.767 100.504 259.261 101.729C259.261 101.729 258.172 100.046 259.337 99.3845C260.501 98.7232 262.839 102.195 262.839 102.195C262.839 102.195 268.34 100.978 268.919 102.293C269.498 103.608 267.701 103.413 267.701 103.413C267.701 103.413 273.804 105.382 273.338 106.885C272.872 108.388 271.797 107.441 271.797 107.441C271.797 107.441 276.818 113.356 275.781 115.415C274.743 117.475 272.872 115.054 272.872 115.054C272.872 115.054 277.945 122.758 275.781 124.472C273.616 126.185 271.745 121.465 271.745 121.465C271.745 121.465 274.668 128.778 272.594 129.334C270.52 129.89 269.806 124.441 269.806 124.441C269.806 124.441 270.557 128.876 268.919 128.868C267.28 128.861 266.582 114.987 266.582 114.987C266.582 114.987 265.018 120.466 263.605 108.29Z" fill="#263238"/>
<path d="M270.082 115.4C269.931 116.548 269.331 117.588 268.414 118.294C267.174 119.211 266.009 118.241 265.896 116.791C265.791 115.491 266.302 113.439 267.767 113.093C268.281 112.991 268.815 113.095 269.252 113.383C269.69 113.672 269.996 114.121 270.105 114.634C270.149 114.888 270.141 115.149 270.082 115.4Z" fill="#EBB376"/>
<path d="M257.648 122.412C257.475 122.464 257.299 122.504 257.121 122.533C257.108 122.535 257.094 122.534 257.08 122.531C257.066 122.527 257.054 122.521 257.042 122.513C257.031 122.505 257.022 122.494 257.015 122.482C257.008 122.47 257.003 122.456 257.001 122.443C256.999 122.429 257 122.415 257.003 122.401C257.007 122.387 257.013 122.375 257.021 122.363C257.029 122.352 257.04 122.343 257.052 122.336C257.064 122.329 257.078 122.324 257.091 122.322C257.545 122.259 257.977 122.09 258.353 121.829C258.729 121.568 259.038 121.222 259.256 120.819C259.262 120.806 259.27 120.794 259.28 120.785C259.29 120.775 259.303 120.767 259.316 120.762C259.329 120.757 259.344 120.755 259.358 120.756C259.372 120.757 259.386 120.76 259.399 120.767C259.412 120.772 259.423 120.78 259.433 120.791C259.443 120.801 259.451 120.813 259.456 120.827C259.46 120.84 259.463 120.854 259.462 120.868C259.461 120.883 259.458 120.897 259.451 120.909C259.267 121.268 259.012 121.586 258.702 121.844C258.392 122.103 258.034 122.296 257.648 122.412Z" fill="#263238"/>
<path opacity="0.1" d="M274.197 137.488C274.197 137.488 272.175 147.679 270.672 150.46L275.181 151.024L277.113 138.39L274.197 137.488Z" fill="black"/>
<path d="M273.88 144.38C273.88 144.38 275.007 154.721 269.806 157.908C264.605 161.095 253.385 165.566 253.385 165.566L246.621 164.123C246.445 164.086 246.263 164.102 246.097 164.169C245.931 164.236 245.789 164.351 245.689 164.499L242.735 168.903C242.629 169.06 242.576 169.246 242.583 169.435C242.589 169.624 242.656 169.807 242.773 169.955C242.866 170.074 242.989 170.167 243.128 170.226C243.267 170.285 243.419 170.309 243.569 170.294L247.71 169.865C248.641 170.098 249.588 170.258 250.544 170.346C251.756 170.16 252.952 169.881 254.121 169.512C254.121 169.512 269.904 168.009 274.984 163.184C280.065 158.359 281.192 148.431 281.192 148.431L273.88 144.38Z" fill="#EBB376"/>
<path d="M277.727 130.958C272.88 130.379 273.601 141.284 272.602 148.92L281.62 151.024C281.62 151.024 284.95 131.822 277.727 130.958Z" fill="#049F67"/>
<path d="M219.749 171.73C219.488 171.708 219.245 171.589 219.068 171.396C218.891 171.203 218.793 170.951 218.793 170.689C218.793 170.427 218.891 170.175 219.068 169.982C219.245 169.79 219.488 169.67 219.749 169.648H248.03C248.174 169.636 248.319 169.654 248.456 169.701C248.593 169.747 248.719 169.822 248.825 169.92C248.932 170.018 249.017 170.137 249.075 170.269C249.133 170.401 249.163 170.545 249.163 170.689C249.163 170.834 249.133 170.977 249.075 171.109C249.017 171.242 248.932 171.361 248.825 171.459C248.719 171.556 248.593 171.631 248.456 171.678C248.319 171.725 248.174 171.742 248.03 171.73H219.749Z" fill="#263238"/>
<path d="M222.148 169.941L218.39 143.148C218.313 142.659 218.067 142.212 217.695 141.886C217.323 141.559 216.849 141.373 216.354 141.359H212.746V171.73H220.615C220.841 171.738 221.067 171.696 221.274 171.605C221.482 171.514 221.666 171.378 221.814 171.206C221.961 171.034 222.068 170.831 222.126 170.612C222.184 170.393 222.191 170.163 222.148 169.941Z" fill="#263238"/>
<g opacity="0.1">
<path d="M219.749 171.73C219.488 171.708 219.245 171.589 219.068 171.396C218.891 171.203 218.793 170.951 218.793 170.689C218.793 170.427 218.891 170.175 219.068 169.982C219.245 169.79 219.488 169.67 219.749 169.648H248.03C248.174 169.636 248.319 169.654 248.456 169.701C248.593 169.747 248.719 169.822 248.825 169.92C248.932 170.018 249.017 170.137 249.075 170.269C249.133 170.401 249.163 170.545 249.163 170.689C249.163 170.834 249.133 170.977 249.075 171.109C249.017 171.242 248.932 171.361 248.825 171.459C248.719 171.556 248.593 171.631 248.456 171.678C248.319 171.725 248.174 171.742 248.03 171.73H219.749Z" fill="white"/>
<path d="M222.148 169.941L218.39 143.148C218.313 142.659 218.067 142.212 217.695 141.886C217.323 141.559 216.849 141.373 216.354 141.359H212.746V171.73H220.615C220.841 171.738 221.067 171.696 221.274 171.605C221.482 171.514 221.666 171.378 221.814 171.206C221.961 171.034 222.068 170.831 222.126 170.612C222.184 170.393 222.191 170.163 222.148 169.941Z" fill="white"/>
</g>
<path d="M219.058 171.729H187.08C186.585 171.718 186.111 171.533 185.739 171.208C185.366 170.882 185.12 170.437 185.043 169.948L181.285 143.155C181.243 142.935 181.25 142.709 181.306 142.492C181.362 142.275 181.466 142.074 181.61 141.902C181.754 141.731 181.935 141.594 182.139 141.501C182.342 141.408 182.564 141.362 182.788 141.366H214.767C215.262 141.381 215.736 141.568 216.107 141.894C216.479 142.221 216.725 142.667 216.804 143.155L220.562 169.948C220.603 170.167 220.595 170.393 220.538 170.609C220.481 170.825 220.377 171.025 220.233 171.196C220.089 171.366 219.909 171.503 219.706 171.595C219.503 171.687 219.282 171.733 219.058 171.729Z" fill="#263238"/>
<path opacity="0.7" d="M219.058 171.729H187.08C186.585 171.718 186.111 171.533 185.739 171.208C185.366 170.882 185.12 170.437 185.043 169.948L181.285 143.155C181.243 142.935 181.25 142.709 181.306 142.492C181.362 142.275 181.466 142.074 181.61 141.902C181.754 141.731 181.935 141.594 182.139 141.501C182.342 141.408 182.564 141.362 182.788 141.366H214.767C215.262 141.381 215.736 141.568 216.107 141.894C216.479 142.221 216.725 142.667 216.804 143.155L220.562 169.948C220.603 170.167 220.595 170.393 220.538 170.609C220.481 170.825 220.377 171.025 220.233 171.196C220.089 171.366 219.909 171.503 219.706 171.595C219.503 171.687 219.282 171.733 219.058 171.729Z" fill="white"/>
<path opacity="0.7" d="M202.495 155.812C202.532 156.015 202.524 156.223 202.47 156.422C202.416 156.62 202.319 156.804 202.185 156.961C202.051 157.117 201.884 157.241 201.696 157.325C201.507 157.408 201.303 157.449 201.097 157.443C200.646 157.43 200.213 157.26 199.873 156.962C199.533 156.665 199.307 156.258 199.233 155.812C199.196 155.609 199.205 155.4 199.259 155.201C199.313 155.002 199.411 154.817 199.546 154.661C199.681 154.504 199.849 154.38 200.038 154.297C200.227 154.214 200.433 154.175 200.639 154.181C201.09 154.193 201.523 154.363 201.862 154.661C202.201 154.959 202.425 155.366 202.495 155.812Z" fill="white"/>
<path d="M139.914 274.595H136.269L134.676 178.2H141.507L139.914 274.595Z" fill="#049F67"/>
<path opacity="0.7" d="M139.914 274.595H136.269L134.676 178.2H141.507L139.914 274.595Z" fill="white"/>
<path d="M180.113 274.595H176.468L174.875 178.2H181.707L180.113 274.595Z" fill="#049F67"/>
<path opacity="0.4" d="M180.113 274.595H176.468L174.875 178.2H181.707L180.113 274.595Z" fill="white"/>
<path d="M206.816 176.585H138.086V184.123H206.816V176.585Z" fill="#049F67"/>
<path opacity="0.3" d="M206.816 176.585H138.086V184.123H206.816V176.585Z" fill="white"/>
<path d="M247.13 176.585H206.824V184.123H247.13V176.585Z" fill="#049F67"/>
<path opacity="0.5" d="M247.13 176.585H206.824V184.123H247.13V176.585Z" fill="white"/>
<path d="M248.844 274.595H245.206L243.605 178.2H250.445L248.844 274.595Z" fill="#049F67"/>
<path opacity="0.4" d="M248.844 274.595H245.206L243.605 178.2H250.445L248.844 274.595Z" fill="white"/>
<path d="M252.616 171.737H198.902C197.802 171.737 196.91 172.629 196.91 173.729V176.209C196.91 177.309 197.802 178.201 198.902 178.201H252.616C253.716 178.201 254.607 177.309 254.607 176.209V173.729C254.607 172.629 253.716 171.737 252.616 171.737Z" fill="#263238"/>
<path opacity="0.4" d="M252.616 171.737H198.902C197.802 171.737 196.91 172.629 196.91 173.729V176.209C196.91 177.309 197.802 178.201 198.902 178.201H252.616C253.716 178.201 254.607 177.309 254.607 176.209V173.729C254.607 172.629 253.716 171.737 252.616 171.737Z" fill="white"/>
<path d="M203.9 171.737H130.999C129.9 171.737 129.008 172.629 129.008 173.729V176.209C129.008 177.309 129.9 178.201 130.999 178.201H203.9C205 178.201 205.892 177.309 205.892 176.209V173.729C205.892 172.629 205 171.737 203.9 171.737Z" fill="#263238"/>
<path opacity="0.3" d="M203.9 171.737H130.999C129.9 171.737 129.008 172.629 129.008 173.729V176.209C129.008 177.309 129.9 178.201 130.999 178.201H203.9C205 178.201 205.892 177.309 205.892 176.209V173.729C205.892 172.629 205 171.737 203.9 171.737Z" fill="white"/>
<path d="M208.645 274.595H205L203.406 178.2H210.238L208.645 274.595Z" fill="#049F67"/>
<path opacity="0.7" d="M208.645 274.595H205L203.406 178.2H210.238L208.645 274.595Z" fill="white"/>
</svg>
