<svg width="269" height="150" viewBox="0 0 269 150" fill="none" xmlns="http://www.w3.org/2000/svg">
<path d="M268.706 130.96H0.292969V131.06H268.706V130.96Z" fill="#EBEBEB"/>
<path d="M46.2328 137.396H28.4531V137.496H46.2328V137.396Z" fill="#EBEBEB"/>
<path d="M96.8291 138.484H92.1641V138.584H96.8291V138.484Z" fill="#EBEBEB"/>
<path d="M60.4157 133.684H46.7695V133.784H60.4157V133.684Z" fill="#EBEBEB"/>
<path d="M241.809 134.356H226.832V134.456H241.809V134.356Z" fill="#EBEBEB"/>
<path d="M222.057 134.356H210.445V134.456H222.057V134.356Z" fill="#EBEBEB"/>
<path d="M176.725 136.044H149.105V136.144H176.725V136.044Z" fill="#EBEBEB"/>
<path d="M127.52 113.12H23.8646C23.0526 113.119 22.2743 112.878 21.7006 112.45C21.1269 112.021 20.8047 111.441 20.8047 110.836V2.264C20.8118 1.66241 21.1371 1.08719 21.71 0.663287C22.2829 0.239383 23.0572 0.00103055 23.8646 0H127.52C128.333 0 129.113 0.240635 129.688 0.668968C130.263 1.0973 130.586 1.67825 130.586 2.284V110.836C130.586 111.442 130.263 112.023 129.688 112.451C129.113 112.879 128.333 113.12 127.52 113.12ZM23.8646 0.0800003C23.0882 0.0810599 22.344 0.311626 21.7955 0.721091C21.247 1.13056 20.9389 1.68546 20.9389 2.264V110.836C20.9389 111.415 21.247 111.969 21.7955 112.379C22.344 112.788 23.0882 113.019 23.8646 113.02H127.52C128.297 113.019 129.042 112.788 129.591 112.379C130.141 111.97 130.45 111.415 130.451 110.836V2.264C130.45 1.68509 130.141 1.1302 129.591 0.720847C129.042 0.311496 128.297 0.0810577 127.52 0.0800003H23.8646Z" fill="#EBEBEB"/>
<path d="M243.641 113.12H139.979C139.167 113.119 138.388 112.878 137.813 112.45C137.239 112.022 136.915 111.441 136.914 110.836V2.264C136.923 1.66205 137.249 1.08683 137.823 0.663037C138.397 0.239243 139.171 0.00101932 139.979 0H243.641C244.447 0.0020818 245.22 0.2409 245.792 0.664691C246.363 1.08848 246.688 1.6631 246.695 2.264V110.836C246.695 111.44 246.374 112.02 245.801 112.448C245.229 112.876 244.452 113.118 243.641 113.12ZM139.979 0.0800003C139.202 0.0810577 138.458 0.311496 137.908 0.720847C137.359 1.1302 137.05 1.68509 137.048 2.264V110.836C137.05 111.415 137.359 111.97 137.908 112.379C138.458 112.788 139.202 113.019 139.979 113.02H243.641C244.417 113.019 245.162 112.788 245.712 112.379C246.261 111.97 246.57 111.415 246.572 110.836V2.264C246.57 1.68509 246.261 1.1302 245.712 0.720847C245.162 0.311496 244.417 0.0810577 243.641 0.0800003H139.979Z" fill="#EBEBEB"/>
<path d="M62.3019 76.7998H45V130.96H74.8475V86.1478L62.3019 76.7998Z" fill="#E0E0E0"/>
<path d="M57.5468 86.1436H32.4609V130.956H57.5468V86.1436Z" fill="#EBEBEB"/>
<path d="M57.5468 86.1436H32.4609V86.8796H57.5468V86.1436Z" fill="#E0E0E0"/>
<path d="M45.0012 76.7998L32.4609 86.1478H57.5415L45.0012 76.7998Z" fill="#EBEBEB"/>
<path d="M41.21 92H36.6523V95.396H41.21V92Z" fill="#E0E0E0"/>
<path d="M51.2217 92H46.6641V95.396H51.2217V92Z" fill="#E0E0E0"/>
<path d="M41.21 101.732H36.6523V105.128H41.21V101.732Z" fill="#E0E0E0"/>
<path d="M51.2217 101.732H46.6641V105.128H51.2217V101.732Z" fill="#E0E0E0"/>
<path d="M41.21 111.464H36.6523V114.86H41.21V111.464Z" fill="#E0E0E0"/>
<path d="M51.2217 111.464H46.6641V114.86H51.2217V111.464Z" fill="#E0E0E0"/>
<path d="M41.21 121.196H36.6523V124.592H41.21V121.196Z" fill="#E0E0E0"/>
<path d="M51.2217 121.196H46.6641V124.592H51.2217V121.196Z" fill="#E0E0E0"/>
<path d="M70.0686 77.5244H65.9727V83.6284H70.0686V77.5244Z" fill="#E0E0E0"/>
<path d="M159.564 69.668H138.172V130.96H175.068V81.224L159.564 69.668Z" fill="#E0E0E0"/>
<path d="M153.677 81.2236H122.664V130.96H153.677V81.2236Z" fill="#EBEBEB"/>
<path d="M153.677 81.2236H122.664V82.1356H153.677V81.2236Z" fill="#E0E0E0"/>
<path d="M138.173 69.668L122.664 81.224H153.677L138.173 69.668Z" fill="#EBEBEB"/>
<path d="M172.808 88.672L159.285 88.668V130.96H188.317V100.224L172.808 88.672Z" fill="#E0E0E0"/>
<path d="M159.285 88.668V100.224V130.96H174.794V100.224L159.285 88.668Z" fill="#EBEBEB"/>
<path d="M140.024 91.2959H136.32V97.1719H140.024V91.2959Z" fill="#E0E0E0"/>
<path d="M148.2 91.2959H144.496V97.1719H148.2V91.2959Z" fill="#E0E0E0"/>
<path d="M140.024 102.472H136.32V108.348H140.024V102.472Z" fill="#E0E0E0"/>
<path d="M148.2 102.472H144.496V108.348H148.2V102.472Z" fill="#E0E0E0"/>
<path d="M140.024 113.644H136.32V119.52H140.024V113.644Z" fill="#E0E0E0"/>
<path d="M131.841 91.2959H128.137V97.1719H131.841V91.2959Z" fill="#E0E0E0"/>
<path d="M131.841 102.472H128.137V108.348H131.841V102.472Z" fill="#E0E0E0"/>
<path d="M131.841 113.644H128.137V119.52H131.841V113.644Z" fill="#E0E0E0"/>
<path d="M148.2 113.644H144.496V119.52H148.2V113.644Z" fill="#E0E0E0"/>
<path d="M167.407 102.472H163.703V108.348H167.407V102.472Z" fill="#E0E0E0"/>
<path d="M167.407 113.644H163.703V119.52H167.407V113.644Z" fill="#E0E0E0"/>
<path d="M100.692 89.2119H81.2266V130.96H114.805V99.7279L100.692 89.2119Z" fill="#E0E0E0"/>
<path d="M95.3342 99.7275H67.1133V130.96H95.3342V99.7275Z" fill="#EBEBEB"/>
<path d="M95.3342 99.7275H67.1133V100.556H95.3342V99.7275Z" fill="#E0E0E0"/>
<path d="M81.2264 89.2119L67.1133 99.7279H95.3342L81.2264 89.2119Z" fill="#EBEBEB"/>
<path d="M76.9587 106.316H71.832V110.136H76.9587V106.316Z" fill="#E0E0E0"/>
<path d="M88.2243 106.316H83.0977V110.136H88.2243V106.316Z" fill="#E0E0E0"/>
<path d="M76.9587 117.264H71.832V121.084H76.9587V117.264Z" fill="#E0E0E0"/>
<path d="M88.2243 117.264H83.0977V121.084H88.2243V117.264Z" fill="#E0E0E0"/>
<path d="M84.3214 84.5918H78.1211V93.8318H84.3214V84.5918Z" fill="#EBEBEB"/>
<path d="M221.68 97.7803H201.297V130.96H236.454V106.136L221.68 97.7803Z" fill="#E0E0E0"/>
<path d="M216.074 106.136H186.527V130.956H216.074V106.136Z" fill="#EBEBEB"/>
<path d="M216.074 106.136H186.527V106.796H216.074V106.136Z" fill="#E0E0E0"/>
<path d="M201.295 97.7803L186.527 106.136H216.069L201.295 97.7803Z" fill="#EBEBEB"/>
<path d="M193.779 110.176H191.09V114.484H193.779V110.176Z" fill="#E0E0E0"/>
<path d="M199.693 110.176H197.004V114.484H199.693V110.176Z" fill="#E0E0E0"/>
<path d="M193.779 120.208H191.09V124.516H193.779V120.208Z" fill="#E0E0E0"/>
<path d="M199.693 120.208H197.004V124.516H199.693V120.208Z" fill="#E0E0E0"/>
<path d="M205.596 110.176H202.906V114.484H205.596V110.176Z" fill="#E0E0E0"/>
<path d="M211.506 110.176H208.816V114.484H211.506V110.176Z" fill="#E0E0E0"/>
<path d="M205.596 120.208H202.906V124.516H205.596V120.208Z" fill="#E0E0E0"/>
<path d="M211.506 120.208H208.816V124.516H211.506V120.208Z" fill="#E0E0E0"/>
<path d="M225.018 94.1084H218.527V101.452H225.018V94.1084Z" fill="#E0E0E0"/>
<path d="M108.353 24.5489C110.513 14.6359 101.479 5.29541 88.1748 3.68631C74.8709 2.0772 62.3353 8.80883 60.1758 18.7218C58.0163 28.6348 67.0506 37.9753 80.3545 39.5844C93.6584 41.1935 106.194 34.4619 108.353 24.5489Z" fill="#FAFAFA"/>
<path d="M183.169 38.0521C186.819 33.8801 192.832 30.9121 198.377 30.9121C201.851 30.9121 204.497 32.0801 205.995 33.9841C207.84 32.9238 210.082 32.3171 212.41 32.2481C216.168 32.2481 218.546 34.2481 218.61 37.0921C220.432 36.4623 222.398 36.0959 224.403 36.0121C228.203 35.8841 230.941 37.0401 232.085 38.9161C232.836 38.6016 233.673 38.417 234.533 38.3761C236.717 38.3041 237.888 39.4681 237.147 40.9761C237.099 41.0721 237.045 41.1641 236.997 41.2561H175.836C175.976 39.7761 180.453 38.1281 183.169 38.0521Z" fill="#FAFAFA"/>
<path d="M177.526 14.928C179.222 12.996 182.014 11.616 184.585 11.616C185.292 11.5934 185.993 11.7138 186.615 11.9646C187.237 12.2153 187.756 12.5869 188.118 13.04C188.976 12.5507 190.017 12.2712 191.097 12.24C192.847 12.24 193.942 13.172 193.974 14.488C194.819 14.1966 195.73 14.027 196.659 13.988C198.419 13.928 199.692 14.464 200.223 15.332C200.571 15.1877 200.958 15.103 201.356 15.084C201.562 15.0558 201.774 15.0709 201.969 15.1275C202.164 15.1842 202.334 15.2801 202.46 15.4047C202.586 15.5293 202.663 15.6775 202.682 15.8328C202.701 15.9881 202.662 16.1443 202.569 16.284C202.569 16.328 202.526 16.372 202.499 16.416H174.117C174.192 15.728 176.27 14.964 177.526 14.928Z" fill="#FAFAFA"/>
<path d="M92.5142 22.0283C96.6102 17.3483 103.358 14.0283 109.575 14.0283C113.472 14.0283 116.441 15.3403 118.115 17.4763C120.375 16.2763 122.909 15.5283 125.32 15.5283C129.555 15.5283 132.202 17.7803 132.272 20.9643C134.318 20.2627 136.523 19.8556 138.773 19.7643C143.03 19.6203 146.106 20.9163 147.389 23.0243C148.231 22.6717 149.168 22.464 150.132 22.4163C152.585 22.3363 153.89 23.6443 153.068 25.3363C153.015 25.4403 152.955 25.5443 152.896 25.6483H84.2578C84.4457 23.9603 89.465 22.1123 92.5142 22.0283Z" fill="#F0F0F0"/>
<path d="M41.0921 44.2724C41.247 44.258 41.4031 44.2514 41.5592 44.2524C43.2609 42.9564 45.2203 42.1284 46.9274 42.1284C47.4631 42.1089 47.9943 42.2093 48.4526 42.4167C48.9109 42.6242 49.2753 42.9292 49.4988 43.2924C52.6285 40.7804 56.338 39.1484 59.4838 39.1484C62.023 39.1484 63.7301 40.2084 64.4495 41.9484C66.1244 40.9644 67.9012 40.3724 69.4688 40.3724C72.2334 40.3724 73.5648 42.1964 73.0601 44.7724C74.4343 44.2185 75.9479 43.8834 77.5051 43.7884C80.3019 43.6724 82.0788 44.7204 82.5459 46.4284C83.112 46.1514 83.761 45.9824 84.4355 45.9364C85.9655 45.8764 86.6096 46.8164 85.9708 48.0804H33.4102C34.8864 46.1604 38.2416 44.4884 41.0921 44.2724Z" fill="#F5F5F5"/>
<path d="M134.499 149.024C191.984 149.024 238.585 146.997 238.585 144.496C238.585 141.995 191.984 139.968 134.499 139.968C77.0146 139.968 30.4141 141.995 30.4141 144.496C30.4141 146.997 77.0146 149.024 134.499 149.024Z" fill="#F5F5F5"/>
<path d="M43.9336 144.496H60.4356L58.0092 108.088H46.36L43.9336 144.496Z" fill="#049F67"/>
<path opacity="0.1" d="M43.9336 144.496H60.4356L58.0092 108.088H46.36L43.9336 144.496Z" fill="black"/>
<path d="M51.0359 127.176L54.1012 124.892L35.2103 111.492L33.0469 113.1L51.0359 127.176Z" fill="#049F67"/>
<path opacity="0.1" d="M51.0359 127.176L54.1012 124.892L35.2103 111.492L33.0469 113.1L51.0359 127.176Z" fill="black"/>
<path d="M69.4473 111.488C78.1253 111.488 85.1602 106.728 85.1602 100.856C85.1602 94.9837 78.1253 90.2236 69.4473 90.2236C60.7693 90.2236 53.7344 94.9837 53.7344 100.856C53.7344 106.728 60.7693 111.488 69.4473 111.488Z" fill="#049F67"/>
<path d="M55.7172 97.7601C62.4236 97.7601 67.8602 94.0817 67.8602 89.5441C67.8602 85.0065 62.4236 81.3281 55.7172 81.3281C49.0108 81.3281 43.5742 85.0065 43.5742 89.5441C43.5742 94.0817 49.0108 97.7601 55.7172 97.7601Z" fill="#049F67"/>
<path d="M50.1508 107.456C56.8572 107.456 62.2938 103.778 62.2938 99.2404C62.2938 94.7028 56.8572 91.0244 50.1508 91.0244C43.4444 91.0244 38.0078 94.7028 38.0078 99.2404C38.0078 103.778 43.4444 107.456 50.1508 107.456Z" fill="#049F67"/>
<path d="M40.0415 99.8002C46.7479 99.8002 52.1845 96.1217 52.1845 91.5842C52.1845 87.0466 46.7479 83.3682 40.0415 83.3682C33.3351 83.3682 27.8984 87.0466 27.8984 91.5842C27.8984 96.1217 33.3351 99.8002 40.0415 99.8002Z" fill="#049F67"/>
<path d="M34.9125 111.116C41.6189 111.116 47.0556 107.437 47.0556 102.9C47.0556 98.362 41.6189 94.6836 34.9125 94.6836C28.2061 94.6836 22.7695 98.362 22.7695 102.9C22.7695 107.437 28.2061 111.116 34.9125 111.116Z" fill="#049F67"/>
<path d="M39.5961 117.288C46.3025 117.288 51.7391 113.61 51.7391 109.072C51.7391 104.535 46.3025 100.856 39.5961 100.856C32.8897 100.856 27.4531 104.535 27.4531 109.072C27.4531 113.61 32.8897 117.288 39.5961 117.288Z" fill="#049F67"/>
<path d="M52.1831 115.74C61.4185 115.74 68.9052 110.676 68.9052 104.428C68.9052 98.1808 61.4185 93.1162 52.1831 93.1162C42.9477 93.1162 35.4609 98.1808 35.4609 104.428C35.4609 110.676 42.9477 115.74 52.1831 115.74Z" fill="#049F67"/>
<path d="M60.9018 119.824C70.1372 119.824 77.624 114.76 77.624 108.512C77.624 102.265 70.1372 97.2002 60.9018 97.2002C51.6664 97.2002 44.1797 102.265 44.1797 108.512C44.1797 114.76 51.6664 119.824 60.9018 119.824Z" fill="#049F67"/>
<path d="M25.4014 101.48C29.9939 101.48 33.7168 98.9599 33.7168 95.8516C33.7168 92.7434 29.9939 90.2236 25.4014 90.2236C20.8089 90.2236 17.0859 92.7434 17.0859 95.8516C17.0859 98.9599 20.8089 101.48 25.4014 101.48Z" fill="#049F67"/>
<path d="M30.2608 97.7599C34.8532 97.7599 38.5762 95.2402 38.5762 92.1319C38.5762 89.0236 34.8532 86.5039 30.2608 86.5039C25.6683 86.5039 21.9453 89.0236 21.9453 92.1319C21.9453 95.2402 25.6683 97.7599 30.2608 97.7599Z" fill="#049F67"/>
<path d="M70.8818 93.7365C75.4743 93.7365 79.1973 91.2167 79.1973 88.1085C79.1973 85.0002 75.4743 82.4805 70.8818 82.4805C66.2894 82.4805 62.5664 85.0002 62.5664 88.1085C62.5664 91.2167 66.2894 93.7365 70.8818 93.7365Z" fill="#049F67"/>
<g opacity="0.3">
<path d="M69.4473 111.488C78.1253 111.488 85.1602 106.728 85.1602 100.856C85.1602 94.9837 78.1253 90.2236 69.4473 90.2236C60.7693 90.2236 53.7344 94.9837 53.7344 100.856C53.7344 106.728 60.7693 111.488 69.4473 111.488Z" fill="white"/>
<path d="M55.7172 97.7601C62.4236 97.7601 67.8602 94.0817 67.8602 89.5441C67.8602 85.0065 62.4236 81.3281 55.7172 81.3281C49.0108 81.3281 43.5742 85.0065 43.5742 89.5441C43.5742 94.0817 49.0108 97.7601 55.7172 97.7601Z" fill="white"/>
<path d="M50.1508 107.456C56.8572 107.456 62.2938 103.778 62.2938 99.2404C62.2938 94.7028 56.8572 91.0244 50.1508 91.0244C43.4444 91.0244 38.0078 94.7028 38.0078 99.2404C38.0078 103.778 43.4444 107.456 50.1508 107.456Z" fill="white"/>
<path d="M40.0415 99.8002C46.7479 99.8002 52.1845 96.1217 52.1845 91.5842C52.1845 87.0466 46.7479 83.3682 40.0415 83.3682C33.3351 83.3682 27.8984 87.0466 27.8984 91.5842C27.8984 96.1217 33.3351 99.8002 40.0415 99.8002Z" fill="white"/>
<path d="M34.9125 111.117C41.6189 111.117 47.0556 107.438 47.0556 102.901C47.0556 98.363 41.6189 94.6846 34.9125 94.6846C28.2061 94.6846 22.7695 98.363 22.7695 102.901C22.7695 107.438 28.2061 111.117 34.9125 111.117Z" fill="white"/>
<path d="M39.5961 117.288C46.3025 117.288 51.7391 113.61 51.7391 109.072C51.7391 104.535 46.3025 100.856 39.5961 100.856C32.8897 100.856 27.4531 104.535 27.4531 109.072C27.4531 113.61 32.8897 117.288 39.5961 117.288Z" fill="white"/>
<path d="M52.1831 115.74C61.4185 115.74 68.9052 110.676 68.9052 104.428C68.9052 98.1808 61.4185 93.1162 52.1831 93.1162C42.9477 93.1162 35.4609 98.1808 35.4609 104.428C35.4609 110.676 42.9477 115.74 52.1831 115.74Z" fill="white"/>
<path d="M60.9018 119.824C70.1372 119.824 77.624 114.76 77.624 108.512C77.624 102.265 70.1372 97.2002 60.9018 97.2002C51.6664 97.2002 44.1797 102.265 44.1797 108.512C44.1797 114.76 51.6664 119.824 60.9018 119.824Z" fill="white"/>
<path d="M25.4014 101.48C29.9939 101.48 33.7168 98.9599 33.7168 95.8516C33.7168 92.7434 29.9939 90.2236 25.4014 90.2236C20.8089 90.2236 17.0859 92.7434 17.0859 95.8516C17.0859 98.9599 20.8089 101.48 25.4014 101.48Z" fill="white"/>
<path d="M30.2608 97.7599C34.8532 97.7599 38.5762 95.2402 38.5762 92.1319C38.5762 89.0236 34.8532 86.5039 30.2608 86.5039C25.6683 86.5039 21.9453 89.0236 21.9453 92.1319C21.9453 95.2402 25.6683 97.7599 30.2608 97.7599Z" fill="white"/>
<path d="M70.8818 93.7365C75.4743 93.7365 79.1973 91.2167 79.1973 88.1085C79.1973 85.0002 75.4743 82.4805 70.8818 82.4805C66.2894 82.4805 62.5664 85.0002 62.5664 88.1085C62.5664 91.2167 66.2894 93.7365 70.8818 93.7365Z" fill="white"/>
</g>
<path d="M151.03 140.34C151.031 141.784 150.573 143.208 149.694 144.496H122.761C121.886 143.207 121.43 141.784 121.43 140.34C121.431 139.469 121.595 138.604 121.918 137.768L122.085 137.368C122.737 135.966 123.805 134.692 125.209 133.64C125.429 133.48 125.655 133.32 125.891 133.168C127.331 132.212 129.009 131.477 130.83 131.004C132.072 130.669 133.368 130.456 134.684 130.368C135.198 130.329 135.714 130.31 136.23 130.312C138.816 130.305 141.364 130.769 143.654 131.664C148.067 133.408 151.03 136.64 151.03 140.34Z" fill="#049F67"/>
<path d="M123.298 137.424C129.613 137.424 134.732 133.959 134.732 129.684C134.732 125.41 129.613 121.944 123.298 121.944C116.983 121.944 111.863 125.41 111.863 129.684C111.863 133.959 116.983 137.424 123.298 137.424Z" fill="#049F67"/>
<path d="M129.488 138.8C129.474 139.889 129.139 140.963 128.505 141.944C127.871 142.926 126.955 143.792 125.821 144.48H110.286C108.577 143.434 107.373 142.001 106.855 140.4C106.74 140.022 106.668 139.638 106.641 139.252C106.641 139.116 106.641 138.972 106.641 138.852C106.649 137.539 107.137 136.253 108.052 135.132C109.111 133.842 110.632 132.799 112.444 132.12C114.762 131.245 117.39 130.931 119.959 131.224C122.152 131.457 124.214 132.141 125.913 133.2C126.435 133.531 126.914 133.9 127.341 134.3C128.034 134.941 128.578 135.664 128.951 136.44C129.032 136.604 129.101 136.768 129.16 136.936C129.382 137.543 129.492 138.17 129.488 138.8Z" fill="#049F67"/>
<path d="M108.536 139.348C114.851 139.348 119.97 135.883 119.97 131.608C119.97 127.333 114.851 123.868 108.536 123.868C102.221 123.868 97.1016 127.333 97.1016 131.608C97.1016 135.883 102.221 139.348 108.536 139.348Z" fill="#049F67"/>
<path d="M115.175 142.26C115.175 143.02 115.01 143.775 114.686 144.496H92.7839C92.4624 143.775 92.2992 143.02 92.3008 142.26C92.3006 141.735 92.378 141.212 92.5316 140.7C93.0092 139.189 94.0958 137.824 95.6452 136.788C96.5048 136.205 97.4788 135.723 98.5333 135.36C99.7617 134.933 101.077 134.663 102.425 134.56C102.844 134.532 103.274 134.512 103.708 134.512C104.531 134.511 105.351 134.573 106.156 134.696C106.793 134.789 107.418 134.923 108.024 135.096C110.368 135.739 112.364 136.937 113.704 138.508C114.486 139.449 114.964 140.513 115.1 141.616C115.1 141.732 115.1 141.852 115.132 141.972C115.164 142.092 115.175 142.164 115.175 142.26Z" fill="#049F67"/>
<path d="M118.251 144.496H97.9961C99.523 142.586 102.004 141.205 104.894 140.656C105.542 140.528 106.203 140.438 106.87 140.388C109.698 140.17 112.541 140.682 114.922 141.84C115.008 141.884 115.089 141.924 115.169 141.972C116.431 142.636 117.483 143.497 118.251 144.496Z" fill="#049F67"/>
<path d="M135.713 143.704C135.713 143.972 135.713 144.236 135.67 144.504H104.266C104.239 144.244 104.223 143.98 104.223 143.704C104.222 142.105 104.749 140.531 105.758 139.12C106.031 138.725 106.341 138.346 106.687 137.984C107.517 137.102 108.519 136.317 109.661 135.656C110.895 134.931 112.266 134.347 113.73 133.92C115.655 133.358 117.702 133.064 119.769 133.052H119.973C121.749 133.051 123.515 133.255 125.207 133.656C127.1 134.108 128.867 134.815 130.42 135.74C131.207 136.217 131.926 136.753 132.567 137.34C134.579 139.123 135.691 141.374 135.713 143.704Z" fill="#049F67"/>
<path d="M143.273 144.496H113.098C113.513 143.549 114.117 142.653 114.891 141.84C114.955 141.768 115.03 141.688 115.105 141.616C116.85 139.885 119.21 138.552 121.918 137.768C122.361 137.64 122.818 137.524 123.287 137.42C124.622 137.126 126.002 136.954 127.393 136.908H128.182C128.505 136.908 128.827 136.908 129.138 136.928C130.301 136.972 131.454 137.106 132.579 137.328C137.722 138.32 141.748 141.04 143.273 144.496Z" fill="#049F67"/>
<path d="M94.7503 140.924C99.0759 140.924 102.583 138.551 102.583 135.624C102.583 132.697 99.0759 130.324 94.7503 130.324C90.4246 130.324 86.918 132.697 86.918 135.624C86.918 138.551 90.4246 140.924 94.7503 140.924Z" fill="#049F67"/>
<path d="M99.3206 137.424C103.646 137.424 107.153 135.051 107.153 132.124C107.153 129.197 103.646 126.824 99.3206 126.824C94.9949 126.824 91.4883 129.197 91.4883 132.124C91.4883 135.051 94.9949 137.424 99.3206 137.424Z" fill="#049F67"/>
<path d="M137.582 133.632C141.908 133.632 145.415 131.259 145.415 128.332C145.415 125.405 141.908 123.032 137.582 123.032C133.257 123.032 129.75 125.405 129.75 128.332C129.75 131.259 133.257 133.632 137.582 133.632Z" fill="#049F67"/>
<g opacity="0.3">
<path d="M151.03 140.341C151.031 141.785 150.573 143.209 149.694 144.497H122.761C121.886 143.208 121.43 141.785 121.43 140.341C121.431 139.47 121.595 138.605 121.918 137.769L122.085 137.369C122.737 135.967 123.805 134.693 125.209 133.641C125.429 133.481 125.655 133.321 125.891 133.169C127.331 132.213 129.009 131.478 130.83 131.005C132.072 130.67 133.368 130.457 134.684 130.369C135.198 130.33 135.714 130.311 136.23 130.313C138.816 130.306 141.364 130.77 143.654 131.665C148.067 133.409 151.03 136.641 151.03 140.341Z" fill="white"/>
<path d="M123.298 137.424C129.613 137.424 134.732 133.959 134.732 129.684C134.732 125.41 129.613 121.944 123.298 121.944C116.983 121.944 111.863 125.41 111.863 129.684C111.863 133.959 116.983 137.424 123.298 137.424Z" fill="white"/>
<path d="M129.488 138.801C129.474 139.89 129.139 140.964 128.505 141.945C127.871 142.927 126.955 143.793 125.821 144.481H110.286C108.577 143.435 107.373 142.002 106.855 140.401C106.74 140.023 106.668 139.639 106.641 139.253C106.641 139.117 106.641 138.973 106.641 138.853C106.649 137.54 107.137 136.254 108.052 135.133C109.111 133.843 110.632 132.8 112.444 132.121C114.762 131.246 117.39 130.932 119.959 131.225C122.152 131.458 124.214 132.142 125.913 133.201C126.435 133.532 126.914 133.9 127.341 134.301C128.034 134.942 128.578 135.665 128.951 136.441C129.032 136.605 129.101 136.769 129.16 136.937C129.382 137.544 129.492 138.171 129.488 138.801Z" fill="white"/>
<path d="M108.536 139.348C114.851 139.348 119.97 135.883 119.97 131.608C119.97 127.333 114.851 123.868 108.536 123.868C102.221 123.868 97.1016 127.333 97.1016 131.608C97.1016 135.883 102.221 139.348 108.536 139.348Z" fill="white"/>
<path d="M115.175 142.261C115.175 143.021 115.01 143.776 114.686 144.497H92.7839C92.4624 143.776 92.2992 143.021 92.3008 142.261C92.3006 141.736 92.378 141.213 92.5316 140.701C93.0092 139.19 94.0958 137.825 95.6452 136.789C96.5048 136.206 97.4788 135.724 98.5333 135.361C99.7617 134.934 101.077 134.664 102.425 134.561C102.844 134.533 103.274 134.513 103.708 134.513C104.531 134.512 105.351 134.574 106.156 134.697C106.793 134.79 107.418 134.924 108.024 135.097C110.368 135.74 112.364 136.938 113.704 138.509C114.486 139.45 114.964 140.514 115.1 141.617C115.1 141.733 115.1 141.853 115.132 141.973C115.164 142.093 115.175 142.165 115.175 142.261Z" fill="white"/>
<path d="M118.254 144.496H98C99.5269 142.586 102.007 141.205 104.898 140.656C105.546 140.528 106.207 140.438 106.874 140.388C109.702 140.17 112.545 140.682 114.926 141.84C115.012 141.884 115.093 141.924 115.173 141.972C116.435 142.636 117.487 143.497 118.254 144.496Z" fill="white"/>
<path d="M135.717 143.705C135.717 143.973 135.717 144.237 135.674 144.505H104.27C104.243 144.245 104.227 143.981 104.227 143.705C104.226 142.106 104.753 140.532 105.762 139.121C106.035 138.726 106.345 138.346 106.691 137.985C107.521 137.103 108.523 136.318 109.665 135.657C110.899 134.932 112.27 134.347 113.734 133.921C115.659 133.359 117.706 133.065 119.773 133.053H119.977C121.753 133.052 123.519 133.256 125.211 133.657C127.104 134.109 128.871 134.816 130.424 135.741C131.211 136.218 131.93 136.754 132.571 137.341C134.582 139.124 135.695 141.375 135.717 143.705Z" fill="white"/>
<path d="M143.273 144.496H113.098C113.513 143.549 114.117 142.653 114.891 141.84C114.955 141.768 115.03 141.688 115.105 141.616C116.85 139.885 119.21 138.552 121.918 137.768C122.361 137.64 122.818 137.524 123.287 137.42C124.622 137.126 126.002 136.954 127.393 136.908H128.182C128.505 136.908 128.827 136.908 129.138 136.928C130.301 136.972 131.454 137.106 132.579 137.328C137.722 138.32 141.748 141.04 143.273 144.496Z" fill="white"/>
<path d="M94.7503 140.924C99.0759 140.924 102.583 138.551 102.583 135.624C102.583 132.697 99.0759 130.324 94.7503 130.324C90.4246 130.324 86.918 132.697 86.918 135.624C86.918 138.551 90.4246 140.924 94.7503 140.924Z" fill="white"/>
<path d="M99.3245 137.424C103.65 137.424 107.157 135.051 107.157 132.124C107.157 129.197 103.65 126.824 99.3245 126.824C94.9988 126.824 91.4922 129.197 91.4922 132.124C91.4922 135.051 94.9988 137.424 99.3245 137.424Z" fill="white"/>
<path d="M137.582 133.632C141.908 133.632 145.415 131.259 145.415 128.332C145.415 125.405 141.908 123.032 137.582 123.032C133.257 123.032 129.75 125.405 129.75 128.332C129.75 131.259 133.257 133.632 137.582 133.632Z" fill="white"/>
</g>
<path d="M185.973 144.496H208.423L205.121 94.9805H189.274L185.973 144.496Z" fill="#049F67"/>
<path opacity="0.1" d="M185.973 144.496H208.423L205.121 94.9805H189.274L185.973 144.496Z" fill="black"/>
<path d="M195.635 120.94L199.806 117.836L174.119 99.6084L171.172 101.8L195.635 120.94Z" fill="#049F67"/>
<path opacity="0.1" d="M195.635 120.94L199.806 117.836L174.119 99.6084L171.172 101.8L195.635 120.94Z" fill="black"/>
<path d="M220.676 99.6075C232.479 99.6075 242.047 93.1335 242.047 85.1475C242.047 77.1615 232.479 70.6875 220.676 70.6875C208.873 70.6875 199.305 77.1615 199.305 85.1475C199.305 93.1335 208.873 99.6075 220.676 99.6075Z" fill="#049F67"/>
<path d="M202.001 80.936C211.121 80.936 218.514 75.9323 218.514 69.76C218.514 63.5876 211.121 58.584 202.001 58.584C192.881 58.584 185.488 63.5876 185.488 69.76C185.488 75.9323 192.881 80.936 202.001 80.936Z" fill="#049F67"/>
<path d="M194.431 94.1245C203.551 94.1245 210.944 89.1208 210.944 82.9485C210.944 76.7761 203.551 71.7725 194.431 71.7725C185.311 71.7725 177.918 76.7761 177.918 82.9485C177.918 89.1208 185.311 94.1245 194.431 94.1245Z" fill="#049F67"/>
<path d="M180.685 83.7163C189.804 83.7163 197.197 78.7126 197.197 72.5403C197.197 66.3679 189.804 61.3643 180.685 61.3643C171.565 61.3643 164.172 66.3679 164.172 72.5403C164.172 78.7126 171.565 83.7163 180.685 83.7163Z" fill="#049F67"/>
<path d="M173.712 99.1C182.832 99.1 190.225 94.0964 190.225 87.924C190.225 81.7517 182.832 76.748 173.712 76.748C164.592 76.748 157.199 81.7517 157.199 87.924C157.199 94.0964 164.592 99.1 173.712 99.1Z" fill="#049F67"/>
<path d="M180.075 107.5C189.195 107.5 196.588 102.497 196.588 96.3244C196.588 90.1521 189.195 85.1484 180.075 85.1484C170.956 85.1484 163.562 90.1521 163.562 96.3244C163.562 102.497 170.956 107.5 180.075 107.5Z" fill="#049F67"/>
<path d="M197.197 105.396C209.756 105.396 219.937 98.5067 219.937 90.0081C219.937 81.5096 209.756 74.6201 197.197 74.6201C184.638 74.6201 174.457 81.5096 174.457 90.0081C174.457 98.5067 184.638 105.396 197.197 105.396Z" fill="#049F67"/>
<path d="M209.056 110.948C221.615 110.948 231.796 104.058 231.796 95.5599C231.796 87.0613 221.615 80.1719 209.056 80.1719C196.497 80.1719 186.316 87.0613 186.316 95.5599C186.316 104.058 196.497 110.948 209.056 110.948Z" fill="#049F67"/>
<path d="M160.78 85.9915C167.027 85.9915 172.091 82.5656 172.091 78.3395C172.091 74.1134 167.027 70.6875 160.78 70.6875C154.533 70.6875 149.469 74.1134 149.469 78.3395C149.469 82.5656 154.533 85.9915 160.78 85.9915Z" fill="#049F67"/>
<path d="M167.381 80.9358C173.628 80.9358 178.692 77.5099 178.692 73.2838C178.692 69.0578 173.628 65.6318 167.381 65.6318C161.134 65.6318 156.07 69.0578 156.07 73.2838C156.07 77.5099 161.134 80.9358 167.381 80.9358Z" fill="#049F67"/>
<path d="M222.627 75.4642C228.874 75.4642 233.938 72.0382 233.938 67.8122C233.938 63.5861 228.874 60.1602 222.627 60.1602C216.38 60.1602 211.316 63.5861 211.316 67.8122C211.316 72.0382 216.38 75.4642 222.627 75.4642Z" fill="#049F67"/>
<g opacity="0.3">
<path d="M220.68 99.6075C232.483 99.6075 242.051 93.1335 242.051 85.1475C242.051 77.1615 232.483 70.6875 220.68 70.6875C208.877 70.6875 199.309 77.1615 199.309 85.1475C199.309 93.1335 208.877 99.6075 220.68 99.6075Z" fill="white"/>
<path d="M202.001 80.936C211.121 80.936 218.514 75.9323 218.514 69.76C218.514 63.5876 211.121 58.584 202.001 58.584C192.881 58.584 185.488 63.5876 185.488 69.76C185.488 75.9323 192.881 80.936 202.001 80.936Z" fill="white"/>
<path d="M194.435 94.1245C203.554 94.1245 210.947 89.1208 210.947 82.9485C210.947 76.7761 203.554 71.7725 194.435 71.7725C185.315 71.7725 177.922 76.7761 177.922 82.9485C177.922 89.1208 185.315 94.1245 194.435 94.1245Z" fill="white"/>
<path d="M180.685 83.7163C189.804 83.7163 197.197 78.7126 197.197 72.5403C197.197 66.3679 189.804 61.3643 180.685 61.3643C171.565 61.3643 164.172 66.3679 164.172 72.5403C164.172 78.7126 171.565 83.7163 180.685 83.7163Z" fill="white"/>
<path d="M173.712 99.1C182.832 99.1 190.225 94.0964 190.225 87.924C190.225 81.7517 182.832 76.748 173.712 76.748C164.592 76.748 157.199 81.7517 157.199 87.924C157.199 94.0964 164.592 99.1 173.712 99.1Z" fill="white"/>
<path d="M180.079 107.5C189.199 107.5 196.592 102.497 196.592 96.3244C196.592 90.1521 189.199 85.1484 180.079 85.1484C170.959 85.1484 163.566 90.1521 163.566 96.3244C163.566 102.497 170.959 107.5 180.079 107.5Z" fill="white"/>
<path d="M197.197 105.396C209.756 105.396 219.937 98.5067 219.937 90.0081C219.937 81.5096 209.756 74.6201 197.197 74.6201C184.638 74.6201 174.457 81.5096 174.457 90.0081C174.457 98.5067 184.638 105.396 197.197 105.396Z" fill="white"/>
<path d="M209.056 110.948C221.615 110.948 231.796 104.058 231.796 95.5599C231.796 87.0613 221.615 80.1719 209.056 80.1719C196.497 80.1719 186.316 87.0613 186.316 95.5599C186.316 104.058 196.497 110.948 209.056 110.948Z" fill="white"/>
<path d="M160.78 85.9915C167.027 85.9915 172.091 82.5656 172.091 78.3395C172.091 74.1134 167.027 70.6875 160.78 70.6875C154.533 70.6875 149.469 74.1134 149.469 78.3395C149.469 82.5656 154.533 85.9915 160.78 85.9915Z" fill="white"/>
<path d="M167.381 80.9358C173.628 80.9358 178.692 77.5099 178.692 73.2838C178.692 69.0578 173.628 65.6318 167.381 65.6318C161.134 65.6318 156.07 69.0578 156.07 73.2838C156.07 77.5099 161.134 80.9358 167.381 80.9358Z" fill="white"/>
<path d="M222.627 75.4642C228.874 75.4642 233.938 72.0382 233.938 67.8122C233.938 63.5861 228.874 60.1602 222.627 60.1602C216.38 60.1602 211.316 63.5861 211.316 67.8122C211.316 72.0382 216.38 75.4642 222.627 75.4642Z" fill="white"/>
</g>
<path d="M74.9438 31.708H65.6836V53.576H74.9438V31.708Z" fill="#263238"/>
<path d="M91.043 28.1436L48.4297 59.8956H133.651L91.043 28.1436Z" fill="#263238"/>
<path d="M91.0434 30.8398L52.043 59.8958H130.038L91.0434 30.8398Z" fill="#049F67"/>
<path opacity="0.1" d="M74.0078 54.9154V56.6074H108.075V54.9154H74.0078Z" fill="black"/>
<path opacity="0.1" d="M91.3605 39.7955V38.1035H85.1602V39.7955H88.2576V41.4835H94.458V39.7955H91.3605Z" fill="black"/>
<path d="M125.406 58.1074H56.6758V144.495H125.406V58.1074Z" fill="#049F67"/>
<path d="M126.743 143.407H55.3398V144.495H126.743V143.407Z" fill="#049F67"/>
<path d="M55.7539 76.9834V101.423H54.8789V102.715H56.6773V101.423V76.9834H55.7539Z" fill="#049F67"/>
<path d="M126.33 76.9834V101.423H127.205V102.715H125.406V101.423V76.9834H126.33Z" fill="#049F67"/>
<path d="M54.8242 61.0879H127.258L126.405 69.6559H55.6778L54.8242 61.0879Z" fill="#049F67"/>
<path opacity="0.1" d="M125.406 59.8955H56.6758V61.0875H125.406V59.8955Z" fill="black"/>
<path opacity="0.1" d="M125.406 69.584H56.6758V70.776H125.406V69.584Z" fill="black"/>
<path opacity="0.4" d="M91.0426 44.0195C87.1629 44.0195 83.442 45.1679 80.6987 47.2121C77.9553 49.2562 76.4141 52.0287 76.4141 54.9195H105.666C105.666 52.0294 104.125 49.2575 101.383 47.2135C98.6408 45.1695 94.9214 44.0206 91.0426 44.0195Z" fill="white"/>
<path opacity="0.3" d="M93.1153 46.6592C90.1761 46.6602 87.3579 47.531 85.2801 49.0799C83.2023 50.6288 82.0352 52.7292 82.0352 54.9192H104.195C104.195 52.7292 103.028 50.6288 100.95 49.0799C98.8726 47.531 96.0544 46.6602 93.1153 46.6592Z" fill="#049F67"/>
<path opacity="0.1" d="M58.9517 62.7637H58.125V67.9797H58.9517V62.7637Z" fill="black"/>
<path opacity="0.1" d="M63.0142 62.7637H62.1875V67.9797H63.0142V62.7637Z" fill="black"/>
<path opacity="0.1" d="M67.0806 62.7637H66.2539V67.9797H67.0806V62.7637Z" fill="black"/>
<path opacity="0.1" d="M71.1431 62.7637H70.3164V67.9797H71.1431V62.7637Z" fill="black"/>
<path opacity="0.1" d="M75.2017 62.7637H74.375V67.9797H75.2017V62.7637Z" fill="black"/>
<path opacity="0.1" d="M79.2642 62.7637H78.4375V67.9797H79.2642V62.7637Z" fill="black"/>
<path opacity="0.1" d="M83.3306 62.7637H82.5039V67.9797H83.3306V62.7637Z" fill="black"/>
<path opacity="0.1" d="M87.3931 62.7637H86.5664V67.9797H87.3931V62.7637Z" fill="black"/>
<path opacity="0.1" d="M91.4517 62.7637H90.625V67.9797H91.4517V62.7637Z" fill="black"/>
<path opacity="0.1" d="M95.5142 62.7637H94.6875V67.9797H95.5142V62.7637Z" fill="black"/>
<path opacity="0.1" d="M99.5767 62.7637H98.75V67.9797H99.5767V62.7637Z" fill="black"/>
<path opacity="0.1" d="M103.643 62.7637H102.816V67.9797H103.643V62.7637Z" fill="black"/>
<path opacity="0.1" d="M107.706 62.7637H106.879V67.9797H107.706V62.7637Z" fill="black"/>
<path opacity="0.1" d="M111.764 62.7637H110.938V67.9797H111.764V62.7637Z" fill="black"/>
<path opacity="0.1" d="M115.827 62.7637H115V67.9797H115.827V62.7637Z" fill="black"/>
<path opacity="0.1" d="M119.893 62.7637H119.066V67.9797H119.893V62.7637Z" fill="black"/>
<path opacity="0.1" d="M123.956 62.7637H123.129V67.9797H123.956V62.7637Z" fill="black"/>
<path opacity="0.1" d="M59.7506 104.403H58.9453V105.807H59.7506V104.403Z" fill="black"/>
<path opacity="0.1" d="M63.7115 104.403H62.9062V105.807H63.7115V104.403Z" fill="black"/>
<path opacity="0.1" d="M67.6763 104.403H66.8711V105.807H67.6763V104.403Z" fill="black"/>
<path opacity="0.1" d="M71.6373 104.403H70.832V105.807H71.6373V104.403Z" fill="black"/>
<path opacity="0.1" d="M75.5982 104.403H74.793V105.807H75.5982V104.403Z" fill="black"/>
<path opacity="0.1" d="M79.5591 104.403H78.7539V105.807H79.5591V104.403Z" fill="black"/>
<path opacity="0.1" d="M83.524 104.403H82.7188V105.807H83.524V104.403Z" fill="black"/>
<path opacity="0.1" d="M87.4849 104.403H86.6797V105.807H87.4849V104.403Z" fill="black"/>
<path opacity="0.1" d="M91.442 104.403H90.6367V105.807H91.442V104.403Z" fill="black"/>
<path opacity="0.1" d="M95.4029 104.403H94.5977V105.807H95.4029V104.403Z" fill="black"/>
<path opacity="0.1" d="M99.3638 104.403H98.5586V105.807H99.3638V104.403Z" fill="black"/>
<path opacity="0.1" d="M103.325 104.403H102.52V105.807H103.325V104.403Z" fill="black"/>
<path opacity="0.1" d="M107.286 104.403H106.48V105.807H107.286V104.403Z" fill="black"/>
<path opacity="0.1" d="M111.251 104.403H110.445V105.807H111.251V104.403Z" fill="black"/>
<path opacity="0.1" d="M115.211 104.403H114.406V105.807H115.211V104.403Z" fill="black"/>
<path opacity="0.1" d="M119.169 104.403H118.363V105.807H119.169V104.403Z" fill="black"/>
<path opacity="0.1" d="M123.129 104.403H122.324V105.807H123.129V104.403Z" fill="black"/>
<path opacity="0.4" d="M79.293 101.419V76.9795H63.4298V101.419H79.293Z" fill="white"/>
<path opacity="0.1" d="M63.3086 101.424V102.716H79.2845V101.424H63.3086Z" fill="black"/>
<path opacity="0.4" d="M79.293 89.9471V88.4551H63.4298V89.9471H79.293Z" fill="white"/>
<path opacity="0.4" d="M78.0886 77.876H64.625V100.528H78.0886V77.876Z" fill="white"/>
<path opacity="0.3" d="M77.0785 81.6514H66.6641V100.527H77.0785V81.6514Z" fill="#049F67"/>
<path opacity="0.4" d="M111.508 101.423V76.9834H95.6446V101.423H111.508Z" fill="white"/>
<path opacity="0.1" d="M88.3438 101.424V102.716H118.809V101.424H88.3438Z" fill="black"/>
<path opacity="0.4" d="M111.508 89.952V88.46H95.6446V89.952H111.508Z" fill="white"/>
<path opacity="0.4" d="M110.303 77.876H96.8398V100.528H110.303V77.876Z" fill="white"/>
<path opacity="0.3" d="M109.293 81.6514H98.8789V100.527H109.293V81.6514Z" fill="#049F67"/>
<path opacity="0.4" d="M118.809 101.423V76.9834H113.634V101.423H118.809Z" fill="white"/>
<path opacity="0.4" d="M118.809 89.9471V88.4551H113.634V89.9471H118.809Z" fill="white"/>
<path opacity="0.4" d="M117.604 77.876H114.828V100.528H117.604V77.876Z" fill="white"/>
<path opacity="0.4" d="M93.5117 101.423V76.9834H88.3367V101.423H93.5117Z" fill="white"/>
<path opacity="0.4" d="M93.5117 89.9471V88.4551H88.3367V89.9471H93.5117Z" fill="white"/>
<path opacity="0.4" d="M92.3145 77.876H89.5391V100.528H92.3145V77.876Z" fill="white"/>
<path opacity="0.4" d="M111.508 134.328V109.888H95.6446V134.328H111.508Z" fill="white"/>
<path opacity="0.1" d="M88.3438 134.327V135.619H118.809V134.327H88.3438Z" fill="black"/>
<path opacity="0.4" d="M111.508 122.855V121.363H95.6446V122.855H111.508Z" fill="white"/>
<path opacity="0.4" d="M110.303 110.783H96.8398V133.435H110.303V110.783Z" fill="white"/>
<path opacity="0.3" d="M109.293 114.56H98.8789V133.436H109.293V114.56Z" fill="#049F67"/>
<path opacity="0.4" d="M118.801 134.332V109.892H113.626V134.332H118.801Z" fill="white"/>
<path opacity="0.4" d="M118.801 122.859V121.367H113.626V122.859H118.801Z" fill="white"/>
<path opacity="0.4" d="M117.604 110.783H114.828V133.435H117.604V110.783Z" fill="white"/>
<path opacity="0.4" d="M93.5117 134.332V109.892H88.3367V134.332H93.5117Z" fill="white"/>
<path opacity="0.4" d="M93.5117 122.855V121.363H88.3367V122.855H93.5117Z" fill="white"/>
<path opacity="0.4" d="M92.3145 110.783H89.5391V133.435H92.3145V110.783Z" fill="white"/>
<path opacity="0.1" d="M84.9559 142.32V140.144H61.2013V142.32H59.6875V144.496H86.4698V142.32H84.9559Z" fill="black"/>
<path opacity="0.4" d="M73.0804 109.892C75.8539 109.892 78.5138 110.713 80.4749 112.174C82.436 113.635 83.5378 115.617 83.5378 117.684V140.144H62.6016V117.684C62.6016 116.659 62.8728 115.644 63.3996 114.698C63.9265 113.752 64.6987 112.892 65.672 112.168C66.6454 111.444 67.8007 110.871 69.072 110.48C70.3432 110.09 71.7053 109.89 73.0804 109.892Z" fill="white"/>
<path opacity="0.5" d="M81.4648 118.411H64.6836V140.143H81.4648V118.411Z" fill="#049F67"/>
<path opacity="0.5" d="M73.0811 111.407C72.2417 111.407 71.4105 111.529 70.6348 111.768C69.8591 112.007 69.1542 112.358 68.5605 112.8C67.9667 113.242 67.4957 113.767 67.1743 114.345C66.8529 114.923 66.6875 115.542 66.6875 116.167H79.4693C79.4693 115.542 79.3041 114.923 78.9831 114.346C78.662 113.768 78.1915 113.243 77.5983 112.801C77.0051 112.359 76.3008 112.009 75.5258 111.77C74.7507 111.53 73.92 111.407 73.0811 111.407Z" fill="#049F67"/>
<path d="M80.5262 129.276C80.5262 129.434 80.4632 129.588 80.3453 129.72C80.2273 129.852 80.0596 129.954 79.8634 130.015C79.6672 130.075 79.4514 130.091 79.2431 130.06C79.0348 130.029 78.8435 129.953 78.6934 129.841C78.5432 129.729 78.441 129.587 78.3995 129.432C78.3581 129.276 78.3794 129.116 78.4606 128.969C78.5419 128.823 78.6795 128.698 78.8561 128.61C79.0326 128.523 79.2402 128.476 79.4526 128.476C79.7373 128.476 80.0104 128.56 80.2117 128.71C80.4131 128.86 80.5262 129.063 80.5262 129.276Z" fill="#049F67"/>
<path opacity="0.1" d="M70.7227 74.1V75.792H76.923V74.1H70.7227Z" fill="black"/>
<path opacity="0.1" d="M99.8242 71.7514V73.4434H106.025V71.7514H99.8242Z" fill="black"/>
<path opacity="0.1" d="M115.185 139.431V137.743H108.984V139.431H112.082V141.123H118.282V139.431H115.185Z" fill="black"/>
<path d="M206.591 41.1201H138.902V144.496H206.591V41.1201Z" fill="#049F67"/>
<path d="M148.512 28.624C148.448 28.6235 148.385 28.6324 148.325 28.6503C148.266 28.6681 148.212 28.6946 148.167 28.7281C148.121 28.7615 148.085 28.8014 148.061 28.8453C148.036 28.8893 148.023 28.9364 148.023 28.984V39.456H148.995V28.984C148.995 28.8886 148.944 28.797 148.854 28.7295C148.763 28.662 148.64 28.624 148.512 28.624Z" fill="#263238"/>
<path d="M196.663 36.084C196.535 36.084 196.412 36.1219 196.321 36.1894C196.231 36.257 196.18 36.3485 196.18 36.444V39.456H197.151V36.444C197.151 36.3964 197.139 36.3492 197.114 36.3053C197.089 36.2614 197.053 36.2215 197.008 36.188C196.963 36.1545 196.909 36.1281 196.849 36.1103C196.79 36.0924 196.727 36.0835 196.663 36.084Z" fill="#263238"/>
<path d="M156.589 31.3564H155.617V39.4564H156.589V31.3564Z" fill="#263238"/>
<path d="M163.654 29.348C165.076 32.26 164.072 35.208 161.41 35.928C158.747 36.648 155.435 34.876 154.012 31.96C152.59 29.044 153.599 26.104 156.262 25.384C158.924 24.664 162.237 26.436 163.654 29.348Z" fill="#263238"/>
<path d="M206.59 94.4316L231.069 106.668V144.496H206.59V94.4316Z" fill="#049F67"/>
<path opacity="0.1" d="M206.59 94.4316L231.069 106.668V144.496H206.59V94.4316Z" fill="black"/>
<path opacity="0.1" d="M225.254 133.688V131.852H218.527V133.688H221.893V135.524H228.614V133.688H225.254Z" fill="black"/>
<path d="M233.367 108.532L206.59 95.0675V93.0195L233.367 106.488V108.532Z" fill="#263238"/>
<path opacity="0.4" d="M226.832 126.276V110.148H210.228V126.276H226.832Z" fill="white"/>
<path opacity="0.4" d="M226.832 118.704V117.72H210.228V118.704H226.832Z" fill="white"/>
<path opacity="0.4" d="M226.112 110.74H210.941V125.688H226.112V110.74Z" fill="white"/>
<path opacity="0.3" d="M225.506 113.232H212.16V125.688H225.506V113.232Z" fill="#049F67"/>
<path d="M206.588 41.1204H138.9L137.977 40.0244H207.512L206.588 41.1204Z" fill="#049F67"/>
<path opacity="0.2" d="M206.588 41.1204H138.9L137.977 40.0244H207.512L206.588 41.1204Z" fill="black"/>
<path d="M207.91 40.0238H137.581L136.625 38.8838H208.866L207.91 40.0238Z" fill="#263238"/>
<path opacity="0.2" d="M146.824 43.832H141.059V54.176H146.824V43.832Z" fill="black"/>
<path opacity="0.4" d="M145.972 45.3643H141.914V52.6523H145.972V45.3643Z" fill="#049F67"/>
<path opacity="0.2" d="M204.433 43.832H198.668V54.176H204.433V43.832Z" fill="black"/>
<path opacity="0.4" d="M203.574 45.3643H199.516V52.6523H203.574V45.3643Z" fill="#049F67"/>
<path opacity="0.2" d="M196.18 43.832H187.043V54.176H196.18V43.832Z" fill="black"/>
<path opacity="0.4" d="M194.835 45.3643H188.398V52.6523H194.835V45.3643Z" fill="#049F67"/>
<path opacity="0.2" d="M158.445 43.832H149.309V54.176H158.445V43.832Z" fill="black"/>
<path opacity="0.4" d="M157.101 45.3643H150.664V52.6523H157.101V45.3643Z" fill="#049F67"/>
<path opacity="0.2" d="M184.3 43.832H161.195V54.176H184.3V43.832Z" fill="black"/>
<path opacity="0.4" d="M180.881 45.3643H164.609V52.6523H180.881V45.3643Z" fill="#049F67"/>
<path opacity="0.4" d="M169.801 92.2481V62.9961H152.59V92.2481H169.801Z" fill="white"/>
<path opacity="0.1" d="M144.672 92.2435V93.0195H177.719V92.2435H144.672Z" fill="black"/>
<path opacity="0.4" d="M169.801 78.5164V76.7324H152.59V78.5164H169.801Z" fill="white"/>
<path opacity="0.4" d="M168.498 64.0645H153.891V91.1765H168.498V64.0645Z" fill="white"/>
<path opacity="0.3" d="M167.396 68.584H156.102V91.176H167.396V68.584Z" fill="#049F67"/>
<path opacity="0.4" d="M177.715 92.2442V62.9922H172.105V92.2442H177.715Z" fill="white"/>
<path opacity="0.4" d="M177.715 78.5115V76.7275H172.105V78.5115H177.715Z" fill="white"/>
<path opacity="0.4" d="M176.416 64.0645H173.41V91.1765H176.416V64.0645Z" fill="white"/>
<path opacity="0.4" d="M150.281 92.2481V62.9961H144.671V92.2481H150.281Z" fill="white"/>
<path opacity="0.4" d="M150.281 78.5115V76.7275H144.671V78.5115H150.281Z" fill="white"/>
<path opacity="0.4" d="M148.979 64.0645H145.973V91.1765H148.979V64.0645Z" fill="white"/>
<path opacity="0.4" d="M169.801 128.668V99.416H152.59V128.668H169.801Z" fill="white"/>
<path opacity="0.1" d="M144.668 128.668V129.444H177.715V128.668H144.668Z" fill="black"/>
<path opacity="0.4" d="M169.801 114.936V113.152H152.59V114.936H169.801Z" fill="white"/>
<path opacity="0.4" d="M168.498 100.488H153.891V127.6H168.498V100.488Z" fill="white"/>
<path opacity="0.3" d="M167.396 105.008H156.102V127.6H167.396V105.008Z" fill="#049F67"/>
<path opacity="0.4" d="M177.719 128.668V99.416H172.109V128.668H177.719Z" fill="white"/>
<path opacity="0.4" d="M177.719 114.936V113.152H172.109V114.936H177.719Z" fill="white"/>
<path opacity="0.4" d="M176.416 100.488H173.41V127.6H176.416V100.488Z" fill="white"/>
<path opacity="0.4" d="M150.281 128.672V99.4199H144.671V128.672H150.281Z" fill="white"/>
<path opacity="0.4" d="M150.281 114.936V113.152H144.671V114.936H150.281Z" fill="white"/>
<path opacity="0.4" d="M148.979 100.488H145.973V127.6H148.979V100.488Z" fill="white"/>
<path opacity="0.4" d="M201.504 92.2481V62.9961H184.293V92.2481H201.504Z" fill="white"/>
<path opacity="0.1" d="M184.301 92.2484V93.0244H201.511V92.2484H184.301Z" fill="black"/>
<path opacity="0.4" d="M201.504 78.5115V76.7275H184.293V78.5115H201.504Z" fill="white"/>
<path opacity="0.4" d="M200.209 64.0645H185.602V91.1765H200.209V64.0645Z" fill="white"/>
<path opacity="0.3" d="M199.107 68.584H187.812V91.176H199.107V68.584Z" fill="#049F67"/>
<path opacity="0.1" d="M154.75 58.588V56.752H148.023V58.588H151.389V60.42H158.11V58.588H154.75Z" fill="black"/>
<path opacity="0.1" d="M187.281 97.584V95.748H180.555V97.584H183.921V99.42H190.642V97.584H187.281Z" fill="black"/>
<path opacity="0.1" d="M173.055 55.832V57.668H179.781V55.832H173.055Z" fill="black"/>
<path opacity="0.1" d="M146.922 133.328V135.164H153.648V133.328H146.922Z" fill="black"/>
<path opacity="0.1" d="M163.074 138.584V140.42H169.801V138.584H163.074Z" fill="black"/>
<path opacity="0.1" d="M209.527 104.448V106.284H216.254V104.448H209.527Z" fill="black"/>
<path opacity="0.1" d="M203.633 140.988V137.48H202.806V133.972H182.23V137.48H181.403V140.988H180.426V144.496H204.61V140.988H203.633Z" fill="black"/>
<path opacity="0.1" d="M202.805 133.972V103.484H182.223V133.972H202.805Z" fill="#263238"/>
<path opacity="0.3" d="M201.51 104.452H183.531V133.968H201.51V104.452Z" fill="#263238"/>
<g opacity="0.6">
<path d="M192.025 107.6H186.539V111.688H192.025V107.6Z" fill="#049F67"/>
<path d="M198.498 107.6H193.012V111.688H198.498V107.6Z" fill="#049F67"/>
<path d="M192.025 112.443H186.539V116.531H192.025V112.443Z" fill="#049F67"/>
<path d="M198.498 112.443H193.012V116.531H198.498V112.443Z" fill="#049F67"/>
</g>
<path d="M198.899 121.352C199.533 121.352 200.048 120.968 200.048 120.496C200.048 120.023 199.533 119.64 198.899 119.64C198.264 119.64 197.75 120.023 197.75 120.496C197.75 120.968 198.264 121.352 198.899 121.352Z" fill="#049F67"/>
</svg>
