<svg width="269" height="150" viewBox="0 0 269 150" fill="none" xmlns="http://www.w3.org/2000/svg">
<path d="M268.706 130.96H0.292969V131.06H268.706V130.96Z" fill="#E0E0E0"/>
<path d="M198.264 135.196H189.562V135.296H198.264V135.196Z" fill="#E0E0E0"/>
<path d="M222.362 135.244H202.199V135.344H222.362V135.244Z" fill="#E0E0E0"/>
<path d="M166.167 137.056H145.102V137.156H166.167V137.056Z" fill="#E0E0E0"/>
<path d="M126.683 133.588H93.4805V133.688H126.683V133.588Z" fill="#E0E0E0"/>
<path d="M63.5749 134.476H40.7812V134.576H63.5749V134.476Z" fill="#E0E0E0"/>
<path d="M127.52 113.12H23.8646C23.0526 113.119 22.2743 112.878 21.7006 112.45C21.1269 112.021 20.8047 111.441 20.8047 110.836V2.264C20.8118 1.66241 21.1371 1.08719 21.71 0.663287C22.2829 0.239383 23.0572 0.00103055 23.8646 0H127.52C128.333 0 129.113 0.240635 129.688 0.668968C130.263 1.0973 130.586 1.67825 130.586 2.284V110.836C130.586 111.442 130.263 112.023 129.688 112.451C129.113 112.879 128.333 113.12 127.52 113.12ZM23.8646 0.0800003C23.0882 0.0810599 22.344 0.311626 21.7955 0.721091C21.247 1.13056 20.9389 1.68546 20.9389 2.264V110.836C20.9389 111.415 21.247 111.969 21.7955 112.379C22.344 112.788 23.0882 113.019 23.8646 113.02H127.52C128.297 113.019 129.042 112.788 129.591 112.379C130.141 111.97 130.45 111.415 130.451 110.836V2.264C130.45 1.68509 130.141 1.1302 129.591 0.720847C129.042 0.311496 128.297 0.0810577 127.52 0.0800003H23.8646Z" fill="#E0E0E0"/>
<path d="M243.641 113.12H139.979C139.167 113.119 138.388 112.878 137.813 112.45C137.239 112.022 136.915 111.441 136.914 110.836V2.264C136.923 1.66205 137.249 1.08683 137.823 0.663037C138.397 0.239243 139.171 0.00101932 139.979 0H243.641C244.447 0.0020818 245.22 0.2409 245.792 0.664691C246.363 1.08848 246.688 1.6631 246.695 2.264V110.836C246.695 111.44 246.374 112.02 245.801 112.448C245.229 112.876 244.452 113.118 243.641 113.12ZM139.979 0.0800003C139.202 0.0810577 138.458 0.311496 137.908 0.720847C137.359 1.1302 137.05 1.68509 137.048 2.264V110.836C137.05 111.415 137.359 111.97 137.908 112.379C138.458 112.788 139.202 113.019 139.979 113.02H243.641C244.417 113.019 245.162 112.788 245.712 112.379C246.261 111.97 246.57 111.415 246.572 110.836V2.264C246.57 1.68509 246.261 1.1302 245.712 0.720847C245.162 0.311496 244.417 0.0810577 243.641 0.0800003H139.979Z" fill="#E0E0E0"/>
<path d="M224.86 117.8C224.86 117.8 234.523 112.672 226.267 105.16C218.622 98.1878 200.112 105.04 200.112 105.04C200.112 105.04 203.532 96.9358 189.177 95.6238C174.822 94.3118 178.473 105.82 178.473 105.82C167.532 101.724 167.2 106.42 168.166 109.932C165.482 108.864 162.191 108.528 159.41 111.064C153.059 116.856 160.484 120.808 160.484 120.808C160.484 120.808 146.575 123.824 154.691 130.96H232.37C242.897 121.708 224.86 117.8 224.86 117.8Z" fill="#E0E0E0"/>
<path d="M146.164 26.2637H87.2422V123.368H146.164V26.2637Z" fill="#E6E6E6"/>
<path d="M127.665 18.0957H108.543V21.6317H127.665V18.0957Z" fill="#E6E6E6"/>
<path d="M128.153 18.0957H109.031V21.6317H128.153V18.0957Z" fill="#F5F5F5"/>
<path d="M146.17 26.2637H90.0391V123.368H146.17V26.2637Z" fill="#F5F5F5"/>
<path d="M143.211 121.164V28.4678L92.9908 28.4678V121.164H143.211Z" fill="#F0F0F0"/>
<path d="M139.023 41.2878V31.2998L97.1778 31.2998V41.2878H139.023Z" fill="#E6E6E6"/>
<path d="M139.023 54.1276V44.1396H97.1778V54.1276H139.023Z" fill="#E6E6E6"/>
<path d="M139.023 66.9685V56.9805H97.1778V66.9685H139.023Z" fill="#E6E6E6"/>
<path d="M139.023 79.8083V69.8203H97.1778V79.8083H139.023Z" fill="#E6E6E6"/>
<path d="M139.023 92.6482V82.6602H97.1778V92.6482H139.023Z" fill="#E6E6E6"/>
<path d="M139.023 105.488V95.5H97.1778V105.488H139.023Z" fill="#E6E6E6"/>
<path d="M139.023 118.328V108.34H97.1778V118.328H139.023Z" fill="#E6E6E6"/>
<path d="M143.211 121.164V28.4678H142.443V121.164H143.211Z" fill="#E6E6E6"/>
<path d="M140.011 74.6201C140.012 74.9921 139.865 75.356 139.588 75.6657C139.312 75.9754 138.918 76.217 138.457 76.3599C137.996 76.5028 137.489 76.5406 136.999 76.4685C136.509 76.3964 136.059 76.2177 135.706 75.9549C135.352 75.6922 135.112 75.3572 135.014 74.9924C134.916 74.6276 134.966 74.2494 135.156 73.9056C135.347 73.5619 135.671 73.268 136.086 73.0613C136.501 72.8545 136.989 72.7441 137.488 72.7441C137.819 72.7436 138.147 72.7918 138.453 72.8858C138.759 72.9798 139.037 73.1179 139.272 73.2922C139.506 73.4665 139.692 73.6734 139.819 73.9013C139.946 74.1292 140.011 74.3734 140.011 74.6201Z" fill="#FAFAFA"/>
<path d="M98.4833 123.364H87.2422V127.16H98.4833V123.364Z" fill="#E6E6E6"/>
<path d="M98.4886 127.164H157.438V123.368H98.4886V127.164Z" fill="#F5F5F5"/>
<path d="M109.724 127.164H87.2422V130.96H109.724V127.164Z" fill="#E6E6E6"/>
<path d="M109.727 130.956H168.676V127.16H109.727V130.956Z" fill="#F5F5F5"/>
<path d="M232.056 26.2637H162.359V78.0877H232.056V26.2637Z" fill="#E0E0E0"/>
<path d="M233.673 26.2637H163.977V78.0877H233.673V26.2637Z" fill="#F5F5F5"/>
<path d="M232.056 78.084H162.359V80.492H232.056V78.084Z" fill="#E0E0E0"/>
<path d="M239.175 78.084H173.285V80.492H239.175V78.084Z" fill="#F5F5F5"/>
<path d="M230.77 75.6563V28.6963L166.887 28.6963V75.6563H230.77Z" fill="#FAFAFA"/>
<path opacity="0.5" d="M166.887 28.6963V75.6523H168.766C168.766 75.6523 177.382 60.2883 179.787 28.6963H166.887Z" fill="#E0E0E0"/>
<path opacity="0.5" d="M229.544 28.6963V75.6523H227.66C227.66 75.6523 219.071 60.2883 216.645 28.6963H229.544Z" fill="#E0E0E0"/>
<path d="M230.77 75.6524V28.6924H229.546V75.6524H230.77Z" fill="#E0E0E0"/>
<path d="M196.633 75.6563V28.6963H195.409V75.6563H196.633Z" fill="#E0E0E0"/>
<path d="M232.471 50.54H165.18V53.804H232.471V50.54Z" fill="#F5F5F5"/>
<path d="M201.02 77.2435V27.1035H196.639V77.2435H201.02Z" fill="#F5F5F5"/>
<path d="M69.1516 26.2637H34.3008V78.0877H69.1516V26.2637Z" fill="#E0E0E0"/>
<path d="M70.7687 26.2637H35.918V78.0877H70.7687V26.2637Z" fill="#F5F5F5"/>
<path d="M69.1516 78.084H34.3008V80.492H69.1516V78.084Z" fill="#E0E0E0"/>
<path d="M76.2634 78.084H45.2188V80.492H76.2634V78.084Z" fill="#F5F5F5"/>
<path d="M67.8594 75.6563V28.6963H38.8224V75.6563H67.8594Z" fill="#FAFAFA"/>
<path opacity="0.5" d="M38.8203 28.6963V75.6523H40.7046C40.7046 75.6523 49.2938 60.2883 51.7203 28.6963H38.8203Z" fill="#E0E0E0"/>
<path opacity="0.5" d="M66.6343 28.6963V75.6523H64.7554C64.7554 75.6523 56.1662 60.2883 53.7344 28.6963H66.6343Z" fill="#E0E0E0"/>
<path d="M67.8594 75.6524V28.6924H66.6354V75.6524H67.8594Z" fill="#E0E0E0"/>
<path d="M69.5669 50.54H37.1211V53.804H69.5669V50.54Z" fill="#F5F5F5"/>
<path d="M45.46 121.964C45.46 121.964 38.798 118.424 44.4884 113.236C49.7654 108.436 62.5526 113.156 62.5526 113.156C62.5526 113.156 60.1906 107.556 70.1004 106.648C80.0102 105.74 77.4925 113.692 77.4925 113.692C85.051 110.86 85.2711 114.092 84.6108 116.532C86.4736 115.796 88.739 115.56 90.6608 117.312C95.0467 121.312 89.9093 124.044 89.9093 124.044C89.9093 124.044 99.5185 126.124 93.9086 131.052H40.2689C33.0003 124.664 45.46 121.964 45.46 121.964Z" fill="#E0E0E0"/>
<path d="M134.499 149.024C191.984 149.024 238.585 146.997 238.585 144.496C238.585 141.995 191.984 139.968 134.499 139.968C77.0146 139.968 30.4141 141.995 30.4141 144.496C30.4141 146.997 77.0146 149.024 134.499 149.024Z" fill="#F5F5F5"/>
<path d="M123.36 77.4459C143.859 76.5545 159.508 63.4494 158.311 48.1749C157.115 32.9004 139.527 21.2406 119.028 22.132C98.5282 23.0235 82.88 36.1285 84.0763 51.403C85.2727 66.6775 102.861 78.3373 123.36 77.4459Z" fill="#049F67"/>
<path opacity="0.3" d="M123.36 77.4459C143.859 76.5545 159.508 63.4494 158.311 48.1749C157.115 32.9004 139.527 21.2406 119.028 22.132C98.5282 23.0235 82.88 36.1285 84.0763 51.403C85.2727 66.6775 102.861 78.3373 123.36 77.4459Z" fill="#FAFAFA"/>
<path d="M96.0794 28L95.7305 27.7C96.5411 27.176 97.3946 26.676 98.2589 26.208L98.5756 26.532C97.7221 27 96.8793 27.496 96.0794 28Z" fill="#049F67"/>
<path opacity="0.3" d="M96.0794 28L95.7305 27.7C96.5411 27.176 97.3946 26.676 98.2589 26.208L98.5756 26.532C97.7221 27 96.8793 27.496 96.0794 28Z" fill="#FAFAFA"/>
<path d="M88.0515 35.1553L87.5898 34.9513C89.1761 32.9569 91.0736 31.1094 93.2426 29.4473L93.6291 29.7233C91.4893 31.364 89.6172 33.1873 88.0515 35.1553Z" fill="#049F67"/>
<path opacity="0.3" d="M88.0515 35.1553L87.5898 34.9513C89.1761 32.9569 91.0736 31.1094 93.2426 29.4473L93.6291 29.7233C91.4893 31.364 89.6172 33.1873 88.0515 35.1553Z" fill="#FAFAFA"/>
<path d="M121.164 78.9076V78.5076C124.395 78.5037 127.612 78.1986 130.741 77.5996L130.875 77.9996C127.702 78.6025 124.439 78.9075 121.164 78.9076Z" fill="#049F67"/>
<path opacity="0.3" d="M121.164 78.9076V78.5076C124.395 78.5037 127.612 78.1986 130.741 77.5996L130.875 77.9996C127.702 78.6025 124.439 78.9075 121.164 78.9076Z" fill="#FAFAFA"/>
<path d="M121.239 75.4633C112.726 75.4682 104.512 73.1206 98.1871 68.8746C91.862 64.6286 87.8746 58.7858 86.9962 52.4761C86.1177 46.1664 88.4106 39.8381 93.4313 34.7151C98.452 29.5921 105.844 26.0383 114.177 24.741C122.511 23.4437 131.194 24.4951 138.548 27.6918C145.901 30.8885 151.402 36.0035 153.988 42.0475C156.573 48.0914 156.059 54.6351 152.544 60.4128C149.03 66.1906 142.764 70.792 134.96 73.3273L134.853 73.1433L134.96 73.3273C130.633 74.7366 125.962 75.4639 121.239 75.4633ZM121.153 24.5193C112.671 24.5088 104.489 26.8571 98.2083 31.1047C91.9274 35.3523 87.9999 41.1935 87.1943 47.4851C86.3887 53.7767 88.763 60.0658 93.8526 65.1218C98.9421 70.1777 106.381 73.6366 114.712 74.8214C123.044 76.0061 131.669 74.8316 138.9 71.5277C146.131 68.2237 151.447 63.0281 153.807 56.9577C156.168 50.8872 155.404 44.3788 151.664 38.7062C147.924 33.0336 141.477 28.6051 133.586 26.2873C129.629 25.1187 125.41 24.5188 121.153 24.5193Z" fill="#FAFAFA"/>
<path d="M126.79 74.9399C125.139 74.9308 123.504 74.7046 121.959 74.2719C114.55 72.2479 107.464 65.7839 103.427 57.4039C97.0928 44.2039 99.8789 30.0519 109.628 25.8479C112.849 24.4599 116.574 24.2759 120.396 25.3199C127.799 27.3439 134.891 33.8079 138.922 42.1879C145.257 55.3879 142.476 69.5399 132.722 73.7439L132.588 73.5719L132.722 73.7439C130.923 74.5284 128.875 74.9413 126.79 74.9399ZM115.597 25.0519C113.6 25.05 111.638 25.4434 109.912 26.1919C100.373 30.3039 97.6994 44.2479 103.953 57.2719C107.921 65.5399 114.899 71.9119 122.163 73.8959C125.829 74.8959 129.394 74.7239 132.47 73.3999C142.014 69.2879 144.699 55.3439 138.434 42.3199C134.467 34.0519 127.488 27.6799 120.225 25.6959C118.745 25.2803 117.178 25.0623 115.597 25.0519Z" fill="#FAFAFA"/>
<path d="M88.0751 56.3035C88.0039 56.3104 87.932 56.2959 87.8751 56.2633C87.8182 56.2306 87.781 56.1825 87.7718 56.1295C87.7625 56.0764 87.7819 56.0228 87.8257 55.9804C87.8695 55.938 87.9341 55.9103 88.0053 55.9035L154.25 43.2915C154.284 43.2843 154.319 43.2824 154.354 43.2859C154.389 43.2893 154.422 43.298 154.453 43.3115C154.483 43.325 154.509 43.343 154.529 43.3643C154.55 43.3856 154.564 43.4098 154.572 43.4355C154.581 43.4609 154.583 43.4875 154.578 43.5135C154.573 43.5396 154.561 43.5647 154.543 43.5874C154.525 43.61 154.501 43.6298 154.473 43.6456C154.445 43.6614 154.413 43.6729 154.379 43.6795L88.1395 56.2955L88.0751 56.3035Z" fill="#FAFAFA"/>
<path d="M129.666 74.6754C129.607 74.6756 129.549 74.6607 129.502 74.6331C129.455 74.6055 129.422 74.5668 129.409 74.5234L112.488 25.1674C112.471 25.116 112.482 25.0618 112.518 25.0163C112.555 24.9708 112.613 24.9375 112.681 24.9234C112.715 24.9168 112.751 24.9153 112.786 24.9189C112.821 24.9226 112.855 24.9314 112.885 24.9447C112.915 24.9581 112.942 24.9759 112.963 24.9969C112.984 25.0179 113 25.0419 113.009 25.0674L129.935 74.4234C129.944 74.4489 129.946 74.4754 129.941 74.5015C129.936 74.5275 129.924 74.5526 129.906 74.5753C129.888 74.598 129.864 74.6178 129.836 74.6336C129.808 74.6494 129.776 74.6609 129.742 74.6674L129.666 74.6754Z" fill="#FAFAFA"/>
<path d="M97.2598 68.1799C97.1994 68.1803 97.1406 68.1655 97.0929 68.1379C97.0451 68.1103 97.0113 68.0716 96.9968 68.0279C96.988 68.0026 96.986 67.9764 96.991 67.9506C96.9959 67.9248 97.0078 67.9 97.0258 67.8776C97.0438 67.8553 97.0676 67.8358 97.0958 67.8204C97.124 67.805 97.156 67.7939 97.19 67.7879L153.82 56.9879C153.854 56.9812 153.89 56.9797 153.925 56.9834C153.96 56.9871 153.993 56.9958 154.024 57.0092C154.054 57.0226 154.081 57.0403 154.102 57.0614C154.123 57.0824 154.139 57.1064 154.147 57.1319C154.164 57.1833 154.153 57.2374 154.117 57.2829C154.081 57.3284 154.022 57.3618 153.954 57.3759L97.3242 68.1759C97.3035 68.1811 97.2814 68.1825 97.2598 68.1799Z" fill="#FAFAFA"/>
<path d="M88.5048 42.5956C88.4336 42.6025 88.3616 42.588 88.3048 42.5554C88.2479 42.5228 88.2107 42.4746 88.2015 42.4216C88.1922 42.3685 88.2116 42.3149 88.2554 42.2726C88.2992 42.2302 88.3638 42.2025 88.435 42.1956L145.065 31.4156C145.099 31.409 145.135 31.4075 145.17 31.4111C145.205 31.4148 145.238 31.4236 145.269 31.4369C145.299 31.4503 145.326 31.468 145.347 31.4891C145.368 31.5101 145.384 31.5341 145.392 31.5596C145.409 31.6105 145.398 31.6641 145.361 31.709C145.325 31.7538 145.267 31.7864 145.199 31.7996L88.5692 42.5996L88.5048 42.5956Z" fill="#FAFAFA"/>
<path d="M112.477 58.7832L121.19 39.6992H117.749L105.193 49.6192L96.4531 59.2072H99.8942L107.882 53.2592L109.036 58.7832H112.477Z" fill="#263238"/>
<path d="M109.039 58.7832L117.751 39.6992L92.1393 46.1912L99.5583 49.6192L91.5703 55.5712L96.4554 59.2072L104.438 53.2592L109.039 58.7832Z" fill="#FAFAFA"/>
<path d="M169.926 141.228L173.813 140.424L171.703 133.636L167.816 134.44L169.926 141.228Z" fill="#E4897B"/>
<path d="M129.203 134.823V134.827L128.268 138.415L127.442 141.603L123.453 141.135L124.189 138.415L125.166 134.827V134.823H129.203Z" fill="#E4897B"/>
<path d="M127.792 141.292L123.315 140.768C123.236 140.759 123.155 140.769 123.085 140.798C123.015 140.827 122.96 140.873 122.929 140.928L121.581 143.476C121.55 143.538 121.537 143.605 121.545 143.671C121.553 143.737 121.58 143.801 121.626 143.858C121.671 143.915 121.733 143.964 121.807 144.001C121.881 144.038 121.965 144.062 122.054 144.072C123.621 144.236 124.394 144.26 126.348 144.492C129.43 144.782 132.535 144.904 135.641 144.856C137.294 144.856 137.552 143.608 136.859 143.496C133.751 142.992 129.226 142.328 128.383 141.552C128.235 141.415 128.025 141.323 127.792 141.292Z" fill="#263238"/>
<path d="M173.686 140.095L169.391 140.971C169.313 140.987 169.245 141.022 169.198 141.071C169.151 141.12 169.128 141.179 169.134 141.239L169.321 143.971C169.326 144.037 169.351 144.102 169.393 144.16C169.436 144.217 169.496 144.268 169.568 144.306C169.64 144.344 169.723 144.37 169.81 144.382C169.898 144.393 169.988 144.389 170.073 144.371C171.598 144.035 173.788 143.511 175.715 143.115C177.964 142.651 179.945 142.339 182.586 141.795C184.197 141.463 184.197 140.171 183.467 140.195C180.246 140.327 177.739 140.787 174.657 140.123C174.342 140.051 174.007 140.041 173.686 140.095Z" fill="#263238"/>
<path d="M171.703 133.636L172.793 137.136L168.901 137.94L167.816 134.44L171.703 133.636Z" fill="#CE6F64"/>
<path d="M129.201 134.827L128.267 138.415H124.188L125.165 134.827H129.201Z" fill="#CE6F64"/>
<path d="M157.91 65.2993H136.324C136.238 63.9153 136.861 59.5193 136.861 53.8753C136.886 49.9015 136.513 45.9317 135.744 41.9993C135.551 41.0473 135.324 40.0953 135.062 39.1433C137.449 38.7991 139.862 38.572 142.288 38.4633C145.344 38.3312 148.407 38.3312 151.463 38.4633C153.557 38.6197 155.632 38.8978 157.668 39.2953C157.668 39.2953 162.414 48.3993 157.91 65.2993Z" fill="#049F67"/>
<path opacity="0.2" d="M157.91 65.2993H136.324C136.238 63.9153 136.861 59.5193 136.861 53.8753C136.886 49.9015 136.513 45.9317 135.744 41.9993C135.551 41.0473 135.324 40.0953 135.062 39.1433C137.449 38.7991 139.862 38.572 142.288 38.4633C145.344 38.3312 148.407 38.3312 151.463 38.4633C153.557 38.6197 155.632 38.8978 157.668 39.2953C157.668 39.2953 162.414 48.3993 157.91 65.2993Z" fill="black"/>
<path d="M139.209 46.896C138.607 49.2546 137.822 51.5852 136.857 53.876C136.885 49.9022 136.513 45.9325 135.746 42C138.21 42.34 139.869 44.076 139.209 46.896Z" fill="#049F67"/>
<path opacity="0.4" d="M139.209 46.896C138.607 49.2546 137.822 51.5852 136.857 53.876C136.885 49.9022 136.513 45.9325 135.746 42C138.21 42.34 139.869 44.076 139.209 46.896Z" fill="black"/>
<path d="M153.287 45.4312H148.198C148.127 45.4312 148.059 45.4102 148.008 45.3727C147.958 45.3352 147.93 45.2843 147.93 45.2312C147.931 45.1785 147.96 45.1282 148.01 45.091C148.06 45.0537 148.127 45.0323 148.198 45.0312H153.287C153.358 45.0323 153.425 45.0537 153.475 45.091C153.526 45.1282 153.554 45.1785 153.556 45.2312C153.556 45.2843 153.527 45.3352 153.477 45.3727C153.427 45.4102 153.358 45.4312 153.287 45.4312Z" fill="#FAFAFA"/>
<path d="M153.287 47.1314H148.198C148.127 47.1314 148.059 47.1104 148.008 47.0729C147.958 47.0354 147.93 46.9845 147.93 46.9314C147.93 46.8784 147.958 46.8275 148.008 46.79C148.059 46.7525 148.127 46.7314 148.198 46.7314H153.287C153.358 46.7314 153.427 46.7525 153.477 46.79C153.527 46.8275 153.556 46.8784 153.556 46.9314C153.556 46.9845 153.527 47.0354 153.477 47.0729C153.427 47.1104 153.358 47.1314 153.287 47.1314Z" fill="#FAFAFA"/>
<path d="M153.287 48.8316H148.198C148.127 48.8306 148.06 48.8092 148.01 48.7719C147.96 48.7346 147.931 48.6844 147.93 48.6316C147.93 48.5786 147.958 48.5277 148.008 48.4902C148.059 48.4527 148.127 48.4316 148.198 48.4316H153.287C153.358 48.4316 153.427 48.4527 153.477 48.4902C153.527 48.5277 153.556 48.5786 153.556 48.6316C153.554 48.6844 153.526 48.7346 153.475 48.7719C153.425 48.8092 153.358 48.8306 153.287 48.8316Z" fill="#FAFAFA"/>
<path d="M166.466 56.628C166.466 56.384 166.418 56.164 166.375 55.952C166.235 55.072 166.053 54.248 165.838 53.42C165.425 51.78 164.941 50.176 164.41 48.58C163.878 46.984 163.309 45.412 162.649 43.832L156.508 45.168C157.045 46.7 157.641 48.256 158.22 49.796C158.6 50.8094 158.975 51.82 159.348 52.828L159.17 52.872C159.283 53.72 159.471 54.532 159.707 55.356C159.932 56.2046 160.226 57.0422 160.588 57.864C160.714 58.1392 160.868 58.4066 161.049 58.664C161.142 58.7911 161.25 58.9116 161.371 59.024C161.514 59.1622 161.68 59.2859 161.865 59.392C161.941 59.436 162.064 59.5 162.166 59.548L162.402 59.64C162.499 59.676 162.6 59.7068 162.703 59.732C162.832 59.7653 162.965 59.7907 163.1 59.808C163.277 59.8338 163.457 59.8458 163.637 59.844C164.059 59.8372 164.473 59.7607 164.85 59.62C165.161 59.5023 165.44 59.3422 165.671 59.148C165.747 59.0861 165.817 59.0206 165.881 58.952C165.937 58.8944 165.989 58.8343 166.036 58.772C166.143 58.6283 166.229 58.4769 166.294 58.32C166.352 58.1816 166.393 58.0398 166.418 57.896C166.45 57.708 166.455 57.6 166.466 57.496C166.504 57.104 166.482 56.876 166.466 56.628Z" fill="#E4897B"/>
<path d="M152.882 41.3679C151.518 44.0559 158.411 51.9799 158.411 51.9799L166.463 48.7159C165.253 46.2517 163.691 43.8915 161.804 41.6759C158.964 38.5039 154.363 38.3999 152.882 41.3679Z" fill="#049F67"/>
<path opacity="0.2" d="M152.882 41.3679C151.518 44.0559 158.411 51.9799 158.411 51.9799L166.463 48.7159C165.253 46.2517 163.691 43.8915 161.804 41.6759C158.964 38.5039 154.363 38.3999 152.882 41.3679Z" fill="black"/>
<path d="M157.552 39.1753C156.478 38.856 155.341 38.6669 154.186 38.6153C154.165 38.6147 154.143 38.6185 154.124 38.6261C154.105 38.6338 154.088 38.6451 154.077 38.6589C154.066 38.6727 154.059 38.6885 154.059 38.7048C154.058 38.721 154.063 38.737 154.074 38.7513C154.734 39.7073 156.221 41.7553 156.065 49.9273C155.91 57.3153 158.137 60.3033 158.862 61.0753C158.88 61.0937 158.905 61.1077 158.934 61.1157C158.962 61.1237 158.993 61.1252 159.023 61.1201C159.053 61.1149 159.08 61.1034 159.101 61.0869C159.122 61.0704 159.136 61.0497 159.141 61.0273L159.356 60.0233C159.37 59.9718 159.37 59.9188 159.356 59.8673C159.147 59.3393 157.955 56.0673 158.535 51.0673C159.549 42.2913 157.783 39.4673 157.601 39.2073C157.588 39.1941 157.571 39.1831 157.552 39.1753Z" fill="#263238"/>
<path d="M155.36 49.3838L154.984 52.5478L158.388 52.9238L159.032 49.4558L155.36 49.3838Z" fill="#E4897B"/>
<path d="M162.075 51.1994L159.031 49.4434L158.387 52.9154C158.387 52.9154 161.114 54.3834 162.998 53.0114L162.075 51.1994Z" fill="#E4897B"/>
<path d="M143.196 30.7754C143.776 32.9754 144.356 37.0074 142.289 38.4754C142.289 38.4754 143.475 40.7074 148.962 40.7074C153.976 40.7074 151.463 38.4754 151.463 38.4754C148.173 37.8874 148.242 36.0754 148.833 34.3594L143.196 30.7754Z" fill="#E4897B"/>
<path d="M145.493 32.2393L148.826 34.3593C148.686 34.7525 148.591 35.154 148.542 35.5593C147.468 36.3193 145.557 34.3953 145.423 33.4153C145.352 33.0233 145.375 32.625 145.493 32.2393Z" fill="#CE6F64"/>
<path d="M152.579 23.9991C154.565 24.6271 155.644 28.7751 153.116 29.7311C150.587 30.6871 148.821 22.8231 152.579 23.9991Z" fill="#263238"/>
<path d="M142.847 27.4676C143.094 30.4436 143.035 32.1956 145.053 33.7276C148.086 36.0276 153.025 34.6596 153.975 31.6876C154.834 29.0116 154.292 24.5916 150.378 23.4036C149.517 23.1392 148.579 23.0433 147.654 23.125C146.728 23.2067 145.846 23.4634 145.092 23.8706C144.337 24.2779 143.735 24.8221 143.342 25.4517C142.949 26.0812 142.778 26.7752 142.847 27.4676Z" fill="#E4897B"/>
<path d="M154.421 23.6436C154.663 22.8436 153.643 21.9316 152.784 21.3996C151.939 20.8835 150.948 20.517 149.885 20.3279C148.822 20.1387 147.715 20.1318 146.648 20.3076C145.287 20.4531 143.986 20.8205 142.837 21.3836L143.986 21.7836C142.729 22.2156 139.063 21.8156 139.723 23.7836C134.409 25.5076 142.187 30.0876 143.76 30.2676C147.19 30.6676 143.594 28.3396 145.102 26.2316C145.301 25.9125 145.413 25.5674 145.432 25.216C145.451 24.8645 145.378 24.5137 145.215 24.1836C146.734 23.9676 151.077 23.9796 152.73 24.4316C153.444 24.3676 154.298 24.0596 154.421 23.6436Z" fill="#263238"/>
<path d="M140.446 24.2233C140.446 24.2233 139.968 23.1113 137.891 23.3513C138.411 23.5673 139.78 23.9353 140.446 24.2233Z" fill="#263238"/>
<path d="M141.045 30.7472C141.308 31.0625 141.653 31.3355 142.06 31.5505C142.466 31.7654 142.926 31.918 143.412 31.9992C144.717 32.2152 145.297 31.3312 144.873 30.4432C144.491 29.6432 143.348 28.5712 142.07 28.7552C141.792 28.7994 141.533 28.8947 141.317 29.0324C141.1 29.1701 140.934 29.3459 140.832 29.5438C140.73 29.7418 140.696 29.9555 140.733 30.1657C140.771 30.3759 140.878 30.5758 141.045 30.7472Z" fill="#E4897B"/>
<path d="M157.911 65.2998C157.911 65.2998 165.963 89.2158 167.611 98.3118C169.324 107.768 173.484 136.332 173.484 136.332L167.069 137.312C167.069 137.312 158.056 109.772 155.635 100.58C152.994 90.5558 143.723 65.2998 143.723 65.2998H157.911Z" fill="#049F67"/>
<path opacity="0.7" d="M157.911 65.2998C157.911 65.2998 165.963 89.2158 167.611 98.3118C169.324 107.768 173.484 136.332 173.484 136.332L167.069 137.312C167.069 137.312 158.056 109.772 155.635 100.58C152.994 90.5558 143.723 65.2998 143.723 65.2998H157.911Z" fill="black"/>
<path d="M148.219 67.0674L146.34 72.5434C148.085 77.4354 150.42 84.0674 152.39 90.0314C152.576 82.2631 151.17 74.5192 148.219 67.0674Z" fill="#049F67"/>
<path opacity="0.8" d="M148.219 67.0674L146.34 72.5434C148.085 77.4354 150.42 84.0674 152.39 90.0314C152.576 82.2631 151.17 74.5192 148.219 67.0674Z" fill="black"/>
<path d="M150.255 65.2998C150.255 65.2998 148.419 89.8798 145.907 98.4998C143.153 107.928 130.033 137.732 130.033 137.732H122.641C122.641 137.732 132.228 108.688 133.801 99.3558C135.508 89.2238 136.324 65.3118 136.324 65.3118L150.255 65.2998Z" fill="#049F67"/>
<path opacity="0.7" d="M150.255 65.2998C150.255 65.2998 148.419 89.8798 145.907 98.4998C143.153 107.928 130.033 137.732 130.033 137.732H122.641C122.641 137.732 132.228 108.688 133.801 99.3558C135.508 89.2238 136.324 65.3118 136.324 65.3118L150.255 65.2998Z" fill="black"/>
<path d="M125.619 134.467C125.61 134.467 125.601 134.465 125.593 134.462C125.585 134.459 125.578 134.454 125.572 134.449C125.567 134.444 125.563 134.438 125.561 134.431C125.558 134.425 125.558 134.418 125.56 134.411C125.624 134.131 134.541 108.067 135.952 99.6831C137.482 90.5831 137.966 68.8071 137.998 68.6031C138.002 68.5923 138.011 68.5827 138.023 68.5759C138.035 68.5691 138.05 68.5654 138.065 68.5654C138.08 68.5654 138.095 68.5691 138.107 68.5759C138.119 68.5827 138.128 68.5923 138.132 68.6031C138.1 68.8071 137.622 90.6031 136.087 99.6831C134.68 108.083 125.758 134.135 125.699 134.415C125.698 134.423 125.696 134.43 125.691 134.436C125.687 134.443 125.681 134.449 125.673 134.454C125.666 134.458 125.657 134.462 125.648 134.464C125.638 134.467 125.628 134.468 125.619 134.467Z" fill="#049F67"/>
<path opacity="0.3" d="M125.619 134.467C125.61 134.467 125.601 134.465 125.593 134.462C125.585 134.459 125.578 134.454 125.572 134.449C125.567 134.444 125.563 134.438 125.561 134.431C125.558 134.425 125.558 134.418 125.56 134.411C125.624 134.131 134.541 108.067 135.952 99.6831C137.482 90.5831 137.966 68.8071 137.998 68.6031C138.002 68.5923 138.011 68.5827 138.023 68.5759C138.035 68.5691 138.05 68.5654 138.065 68.5654C138.08 68.5654 138.095 68.5691 138.107 68.5759C138.119 68.5827 138.128 68.5923 138.132 68.6031C138.1 68.8071 137.622 90.6031 136.087 99.6831C134.68 108.083 125.758 134.135 125.699 134.415C125.698 134.423 125.696 134.43 125.691 134.436C125.687 134.443 125.681 134.449 125.673 134.454C125.666 134.458 125.657 134.462 125.648 134.464C125.638 134.467 125.628 134.468 125.619 134.467Z" fill="black"/>
<path d="M148.906 28.2994C148.906 28.5394 149.083 28.7354 149.293 28.7354C149.502 28.7354 149.679 28.5394 149.679 28.2994C149.679 28.0594 149.507 27.8594 149.293 27.8594C149.078 27.8594 148.906 28.0554 148.906 28.2994Z" fill="#263238"/>
<path d="M152.59 28.2994C152.59 28.5394 152.762 28.7354 152.976 28.7354C153.191 28.7354 153.358 28.5394 153.358 28.2994C153.358 28.0594 153.186 27.8594 152.976 27.8594C152.767 27.8594 152.59 28.0554 152.59 28.2994Z" fill="#263238"/>
<path d="M151.422 28.4199C151.81 29.1608 152.334 29.8581 152.979 30.4919C152.757 30.6114 152.502 30.693 152.233 30.731C151.964 30.769 151.687 30.7625 151.422 30.7119V28.4199Z" fill="#DE5753"/>
<path d="M150.471 31.3792C150.496 31.3792 150.521 31.3716 150.539 31.3581C150.557 31.3446 150.567 31.3263 150.567 31.3072C150.566 31.2888 150.555 31.2715 150.537 31.2589C150.519 31.2462 150.495 31.2392 150.471 31.2392C150.066 31.2465 149.665 31.1821 149.3 31.0513C148.935 30.9206 148.617 30.7273 148.372 30.4872C148.365 30.4793 148.356 30.4726 148.345 30.4673C148.335 30.462 148.323 30.4583 148.31 30.4565C148.298 30.4546 148.285 30.4546 148.272 30.4565C148.26 30.4583 148.248 30.462 148.238 30.4672C148.221 30.48 148.211 30.4972 148.211 30.5152C148.211 30.5332 148.221 30.5505 148.238 30.5632C148.494 30.8234 148.831 31.0335 149.22 31.1756C149.609 31.3177 150.038 31.3876 150.471 31.3792Z" fill="#263238"/>
<path d="M147.803 27.4157C147.832 27.4157 147.861 27.4106 147.887 27.4009C147.913 27.3912 147.936 27.3771 147.953 27.3597C148.092 27.2132 148.275 27.0936 148.488 27.0108C148.701 26.9279 148.937 26.8844 149.177 26.8837C149.228 26.8859 149.277 26.8733 149.316 26.8486C149.354 26.824 149.377 26.7892 149.381 26.7517C149.384 26.7328 149.382 26.7138 149.375 26.6956C149.367 26.6775 149.355 26.6608 149.338 26.6465C149.321 26.6322 149.301 26.6206 149.278 26.6125C149.255 26.6045 149.23 26.6001 149.204 26.5997C148.9 26.5975 148.599 26.6511 148.328 26.7557C148.058 26.8603 147.826 27.0127 147.653 27.1997C147.622 27.2289 147.609 27.2659 147.615 27.3026C147.621 27.3394 147.646 27.3728 147.685 27.3957C147.721 27.4113 147.762 27.4183 147.803 27.4157Z" fill="#263238"/>
<path d="M154.243 27.3274C154.269 27.3308 154.296 27.3308 154.323 27.3274C154.345 27.3183 154.364 27.3061 154.379 27.2914C154.394 27.2768 154.405 27.2601 154.412 27.2423C154.418 27.2244 154.42 27.2058 154.417 27.1874C154.413 27.1691 154.405 27.1514 154.393 27.1354C154.251 26.9352 154.046 26.7636 153.795 26.6354C153.545 26.5072 153.256 26.4262 152.954 26.3994C152.909 26.4051 152.868 26.4224 152.839 26.4484C152.809 26.4744 152.793 26.5074 152.793 26.5414C152.793 26.5755 152.809 26.6084 152.839 26.6344C152.868 26.6604 152.909 26.6778 152.954 26.6834C153.192 26.7079 153.418 26.7744 153.614 26.8774C153.81 26.9804 153.971 27.1169 154.081 27.2754C154.101 27.2929 154.126 27.3068 154.154 27.3158C154.182 27.3249 154.212 27.3288 154.243 27.3274Z" fill="#263238"/>
<path d="M140.862 50.9154C138.484 51.9594 136.03 53.0234 133.679 53.9194C133.223 54.0914 132.766 54.2514 132.321 54.3994C132.519 53.8914 132.74 53.3714 132.965 52.8554C133.4 51.8954 133.84 50.9274 134.312 49.9634L137.184 44.1554L131.247 42.3994C130.173 44.3994 129.191 46.3994 128.311 48.4434C127.876 49.4674 127.463 50.5034 127.092 51.5594C126.695 52.6485 126.378 53.7528 126.142 54.8674L126.056 55.3114V55.4234V55.5994C126.038 55.7216 126.029 55.8445 126.029 55.9674C126.017 56.2906 126.064 56.6136 126.169 56.9274C126.336 57.4134 126.666 57.8595 127.13 58.2234C127.623 58.5973 128.248 58.8594 128.933 58.9794C129.378 59.056 129.836 59.0816 130.292 59.0554C130.87 59.0154 131.438 58.9186 131.983 58.7674C132.789 58.5473 133.564 58.2686 134.296 57.9354C134.978 57.6354 135.617 57.3234 136.229 57.0034C138.605 55.7291 140.83 54.3052 142.88 52.7474L140.862 50.9154Z" fill="#E4897B"/>
<path d="M135.063 39.1558C131.246 39.5558 126.871 49.4278 126.871 49.4278L134.891 52.7998C134.891 52.7998 138.424 48.1118 140.163 44.6318C142.015 40.9838 139.159 38.7118 135.063 39.1558Z" fill="#049F67"/>
<path opacity="0.2" d="M135.063 39.1558C131.246 39.5558 126.871 49.4278 126.871 49.4278L134.891 52.7998C134.891 52.7998 138.424 48.1118 140.163 44.6318C142.015 40.9838 139.159 38.7118 135.063 39.1558Z" fill="black"/>
<path d="M137.049 38.672C138.4 38.5004 139.765 38.4015 141.135 38.376C141.205 38.3755 141.274 38.3903 141.333 38.4188C141.392 38.4472 141.439 38.488 141.467 38.536C142.267 39.848 146.761 48.712 145.843 54.136C145.027 58.936 138.73 60.936 136.765 61.464C136.698 61.4813 136.627 61.4864 136.557 61.4789C136.487 61.4715 136.421 61.4516 136.364 61.421C136.306 61.3904 136.26 61.35 136.228 61.3032C136.196 61.2564 136.179 61.2045 136.18 61.152V60.4C136.179 60.3347 136.205 60.2707 136.253 60.2164C136.302 60.1622 136.372 60.1202 136.453 60.096C137.919 59.66 144.656 57.328 142.654 51.536C141.203 47.2538 139.245 43.0761 136.802 39.052C136.778 39.0155 136.766 38.9753 136.766 38.9346C136.766 38.8939 136.778 38.8538 136.802 38.8171C136.825 38.7805 136.86 38.7484 136.903 38.7233C136.946 38.6981 136.996 38.6806 137.049 38.672Z" fill="#263238"/>
<path d="M129.001 141.968C129.269 142.016 129.551 141.995 129.801 141.908C129.881 141.87 129.948 141.819 129.996 141.757C130.044 141.696 130.071 141.627 130.075 141.556C130.082 141.515 130.075 141.474 130.055 141.436C130.034 141.398 130 141.365 129.956 141.34C129.554 141.12 128.142 141.556 127.981 141.608C127.964 141.613 127.949 141.622 127.938 141.633C127.927 141.644 127.922 141.658 127.922 141.672C127.921 141.686 127.927 141.701 127.937 141.713C127.948 141.725 127.963 141.734 127.981 141.74C128.309 141.843 128.651 141.92 129.001 141.968ZM129.726 141.424C129.768 141.427 129.809 141.438 129.844 141.456C129.844 141.456 129.892 141.488 129.881 141.544C129.881 141.592 129.865 141.639 129.834 141.681C129.803 141.723 129.758 141.758 129.704 141.784C129.226 141.884 128.716 141.844 128.276 141.672C128.733 141.52 129.226 141.436 129.726 141.424Z" fill="#049F67"/>
<path d="M128.003 141.743H128.056C128.502 141.623 129.436 141.067 129.425 140.727C129.421 140.674 129.393 140.623 129.345 140.583C129.298 140.543 129.233 140.516 129.162 140.507C129.092 140.491 129.019 140.487 128.946 140.495C128.874 140.502 128.805 140.522 128.743 140.551C128.207 140.779 127.938 141.623 127.927 141.659C127.924 141.672 127.926 141.684 127.931 141.696C127.937 141.708 127.947 141.719 127.96 141.727C127.972 141.735 127.987 141.741 128.003 141.743ZM129.076 140.631H129.119C129.243 140.659 129.243 140.699 129.243 140.719C129.243 140.919 128.641 141.351 128.169 141.519C128.271 141.185 128.503 140.88 128.835 140.643C128.906 140.622 128.985 140.618 129.06 140.631H129.076Z" fill="#049F67"/>
<path d="M175.47 140.268C175.81 140.221 176.118 140.09 176.345 139.895C176.393 139.841 176.423 139.779 176.431 139.714C176.439 139.649 176.426 139.584 176.393 139.523C176.378 139.486 176.35 139.453 176.311 139.426C176.272 139.4 176.225 139.383 176.173 139.376C175.636 139.272 174.283 140.176 174.133 140.292C174.123 140.304 174.117 140.319 174.117 140.333C174.117 140.348 174.123 140.363 174.133 140.376C174.141 140.389 174.155 140.4 174.172 140.408C174.19 140.415 174.21 140.418 174.23 140.416C174.648 140.394 175.063 140.344 175.47 140.268ZM175.948 139.523C176.008 139.512 176.07 139.512 176.13 139.523C176.15 139.527 176.169 139.534 176.184 139.545C176.199 139.555 176.21 139.569 176.216 139.583C176.238 139.623 176.247 139.666 176.241 139.709C176.235 139.751 176.216 139.792 176.184 139.828C176.007 140.036 175.373 140.196 174.477 140.268C174.906 139.958 175.403 139.706 175.948 139.523Z" fill="#049F67"/>
<path d="M174.226 140.4H174.263C174.671 140.148 175.369 139.328 175.176 139.016C175.133 138.94 175.02 138.86 174.763 138.896C174.668 138.905 174.578 138.93 174.497 138.968C174.417 139.006 174.348 139.056 174.296 139.116C173.914 139.516 174.097 140.316 174.108 140.36C174.11 140.372 174.117 140.383 174.127 140.392C174.138 140.401 174.151 140.408 174.167 140.412C174.177 140.413 174.188 140.412 174.198 140.41C174.208 140.408 174.218 140.405 174.226 140.4ZM174.736 139.028H174.795C174.967 139.004 174.993 139.052 175.004 139.068C175.117 139.256 174.671 139.868 174.269 140.192C174.19 139.852 174.254 139.503 174.451 139.192C174.528 139.116 174.639 139.064 174.763 139.044L174.736 139.028Z" fill="#049F67"/>
<path d="M139.611 51.5519L142.655 49.7959L143.299 53.2679C143.299 53.2679 140.566 54.7359 138.688 53.3639L139.611 51.5519Z" fill="#E4897B"/>
<path d="M146.319 49.7236L146.7 52.8876L143.297 53.2676L142.652 49.7956L146.319 49.7236Z" fill="#E4897B"/>
</svg>
